<svg width="24" height="24" viewBox="0 0 24 24" fill="none" xmlns="http://www.w3.org/2000/svg">
<path d="M15.9053 2.00012C16.0268 3.18375 15.5662 4.34294 14.8882 5.20555C14.1852 6.04373 13.0714 6.70884 11.957 6.61043C11.8113 5.47635 12.3692 4.26965 12.9989 3.52988C13.7005 2.66591 14.9123 2.05034 15.9053 2.00012Z" fill="white"/>
<path d="M13.2899 7.42012C14.0139 7.13002 14.9087 6.77142 15.8932 6.83087C16.5216 6.88041 18.333 7.07723 19.4931 8.82145C19.4873 8.82592 19.4745 8.83444 19.4556 8.84705C19.1579 9.04506 17.3442 10.2517 17.3669 12.6323C17.3896 15.4684 19.6653 16.531 19.9672 16.672C19.9872 16.6813 19.9985 16.6866 20 16.6881C19.9988 16.6918 19.9967 16.6985 19.9938 16.7083C19.9365 16.896 19.5434 18.1836 18.6479 19.5148C17.8261 20.7453 16.9809 21.9492 15.6274 21.9737C14.9906 21.9859 14.5609 21.7988 14.1138 21.6039C13.645 21.3997 13.157 21.1871 12.3907 21.1871C11.587 21.1871 11.0756 21.4065 10.5837 21.6176C10.1589 21.7998 9.74877 21.9758 9.17756 21.9988C7.87309 22.0476 6.88349 20.695 6.06174 19.4659C4.36989 16.9833 3.09027 12.4606 4.82978 9.41123C5.67503 7.88758 7.22119 6.92928 8.88752 6.90417C9.61487 6.89067 10.311 7.17048 10.9186 7.41469C11.3805 7.60034 11.7912 7.76542 12.1255 7.76542C12.4283 7.76542 12.8236 7.60698 13.2899 7.42012Z" fill="white"/>
</svg>
