<svg width="96" height="40" viewBox="0 0 96 40" fill="none" xmlns="http://www.w3.org/2000/svg">
<rect x="2" y="2" width="92" height="36" rx="6" fill="#242828" stroke="#323738" stroke-width="4"/>
<path fill-rule="evenodd" clip-rule="evenodd" d="M13.1805 20.4718L10 19.3991L11.1443 15.9255L14.1911 16.9531V14H17.8096V16.9529L20.8557 15.9255L22 19.3991L18.8201 20.4716L21.1243 23.969L18.1135 26L16.0003 22.7927L13.8872 26L10.8764 23.9689L13.1805 20.4718ZM29.1805 20.4718L26 19.3991L27.1443 15.9255L30.1911 16.9531V14H33.8096V16.9529L36.8557 15.9255L38 19.3991L34.8201 20.4716L37.1243 23.969L34.1135 26L32.0003 22.7927L29.8872 26L26.8764 23.9689L29.1805 20.4718ZM42 19.3991L45.1805 20.4718L42.8764 23.9689L45.8872 26L48.0004 22.7927L50.1135 26L53.1243 23.969L50.8201 20.4716L54 19.3991L52.8557 15.9255L49.8096 16.9529V14H46.1911V16.9531L43.1443 15.9255L42 19.3991ZM61.1805 20.4718L58 19.3991L59.1443 15.9255L62.1911 16.9531V14H65.8096V16.9529L68.8557 15.9255L70 19.3991L66.8201 20.4716L69.1243 23.969L66.1135 26L64.0004 22.7927L61.8872 26L58.8764 23.9689L61.1805 20.4718ZM74 19.3991L77.1805 20.4718L74.8764 23.9689L77.8872 26L80.0004 22.7927L82.1135 26L85.1243 23.969L82.8201 20.4716L86 19.3991L84.8557 15.9255L81.8096 16.9529V14H78.1911V16.9531L75.1443 15.9255L74 19.3991Z" fill="#6E6E6E"/>
</svg>
