<svg width="72" height="72" viewBox="0 0 72 72" fill="none" xmlns="http://www.w3.org/2000/svg">
<path d="M0 33.5456V13.3638L24 26.4547L48 13.3638V33.5456C48 36.8593 45.3137 39.5456 42 39.5456H6C2.68629 39.5456 0 36.8593 0 33.5456Z" fill="#323738"/>
<path d="M20.62 21.1219L0 35.181C0 37.591 1.95366 39.5446 4.36363 39.5446H43.6364C46.0463 39.5446 48 37.591 48 35.181L27.38 21.1219C25.3411 19.7318 22.6589 19.7318 20.62 21.1219Z" fill="#242828"/>
<path d="M26.8731 24.8874L48 13.3636C48 10.9537 46.0463 9 43.6364 9H4.36363C1.95367 9 0 10.9537 0 13.3636L21.1269 24.8874C22.9178 25.8642 25.0823 25.8642 26.8731 24.8874Z" fill="#4A5153"/>
<rect x="19.6355" y="19.9087" width="8.72727" height="8.72727" rx="4.36363" fill="#FF444F"/>
<path fill-rule="evenodd" clip-rule="evenodd" d="M25.0914 22.7721H26.1823C26.485 22.7721 26.7277 23.0148 26.7277 23.3175V26.3175C26.7277 26.6202 26.485 26.863 26.1823 26.863H21.8186C21.5159 26.863 21.2732 26.6202 21.2732 26.3175L21.2759 23.3175C21.2759 23.0148 21.5159 22.7721 21.8186 22.7721H22.9096V22.2266C22.9096 21.9239 23.1523 21.6812 23.455 21.6812H24.5459C24.8486 21.6812 25.0914 21.9239 25.0914 22.2266V22.7721ZM23.455 22.7721H24.5459V22.2266H23.455V22.7721Z" fill="white"/>
<path d="M24 57.5456V37.3638L48 50.4547L72 37.3638V57.5456C72 60.8593 69.3137 63.5456 66 63.5456H30C26.6863 63.5456 24 60.8593 24 57.5456Z" fill="#323738"/>
<path d="M44.62 45.1219L24 59.181C24 61.591 25.9537 63.5446 28.3636 63.5446H67.6364C70.0463 63.5446 72 61.591 72 59.181L51.38 45.1219C49.3411 43.7318 46.6589 43.7318 44.62 45.1219Z" fill="#242828"/>
<path d="M50.8731 48.8874L72 37.3636C72 34.9537 70.0463 33 67.6364 33H28.3636C25.9537 33 24 34.9537 24 37.3636L45.1269 48.8874C46.9178 49.8642 49.0823 49.8642 50.8731 48.8874Z" fill="#4A5153"/>
<rect x="43.6355" y="43.9087" width="8.72727" height="8.72727" rx="4.36363" fill="#FF444F"/>
<path fill-rule="evenodd" clip-rule="evenodd" d="M49.0916 47.1822C49.0916 47.7849 48.6034 48.2731 48.0007 48.2731C47.3979 48.2731 46.9098 47.7849 46.9098 47.1822C46.9098 46.5795 47.3979 46.0913 48.0007 46.0913C48.6034 46.0913 49.0916 46.5795 49.0916 47.1822ZM45.8188 49.9095C45.8188 49.184 47.2725 48.8186 48.0007 48.8186C48.7288 48.8186 50.1825 49.184 50.1825 49.9095V50.1822C50.1825 50.3322 50.0598 50.4549 49.9098 50.4549H46.0916C45.9416 50.4549 45.8188 50.3322 45.8188 50.1822V49.9095Z" fill="white"/>
</svg>
