<svg width="72" height="72" viewBox="0 0 72 72" fill="none" xmlns="http://www.w3.org/2000/svg">
<path d="M69 54V21C69 17.6863 66.3137 15 63 15H9C5.68629 15 3 17.6863 3 21V54C3 57.3137 5.68629 60 9 60H63C66.3137 60 69 57.3137 69 54Z" fill="#242828"/>
<path d="M66 54V21C66 19.3431 64.6569 18 63 18H9C5.68629 18 3 20.6863 3 24V54C3 57.3137 5.68629 60 9 60H60C63.3137 60 66 57.3137 66 54Z" fill="#6E6E6E"/>
<path d="M69 54V30C69 26.6863 66.3137 24 63 24H39L28.7574 13.7574C27.6321 12.6321 26.106 12 24.5147 12H9C5.68629 12 3 14.6863 3 18V54C3 57.3137 5.68629 60 9 60H63C66.3137 60 69 57.3137 69 54Z" fill="#323738"/>
<rect x="45" y="36" width="21" height="21" rx="10.5" fill="#FF444F"/>
<path fill-rule="evenodd" clip-rule="evenodd" d="M58.1476 40.7906L61.2189 43.8619C61.337 43.98 61.4092 44.1506 61.4026 44.3212V48.6788C61.4026 48.8559 61.337 49.02 61.2123 49.1447L58.1411 52.2159C58.0164 52.3341 57.8523 52.4062 57.6751 52.4062H53.3242C53.1536 52.4062 52.9829 52.3341 52.8582 52.2094L49.787 49.1381C49.6689 49.0134 49.5967 48.8494 49.5967 48.6722V44.3212C49.5967 44.1506 49.6689 43.98 49.787 43.8619L52.8648 40.7841C52.9829 40.6659 53.1536 40.5938 53.3242 40.5938H57.6817C57.8523 40.5938 58.0229 40.6659 58.1476 40.7906ZM57.4061 51.0938L60.0967 48.4031V44.5969L57.4061 41.9062H53.5998L50.9092 44.5969V48.4031L53.5998 51.0938H57.4061ZM55.5029 48.4688C55.1405 48.4688 54.8467 48.7626 54.8467 49.125C54.8467 49.4874 55.1405 49.7812 55.5029 49.7812C55.8654 49.7812 56.1592 49.4874 56.1592 49.125C56.1592 48.7626 55.8654 48.4688 55.5029 48.4688ZM54.8467 43.875C54.8467 43.5141 55.142 43.2188 55.5029 43.2188C55.8639 43.2188 56.1592 43.5141 56.1592 43.875V47.1562C56.1592 47.5172 55.8639 47.8125 55.5029 47.8125C55.142 47.8125 54.8467 47.5172 54.8467 47.1562V43.875Z" fill="white"/>
</svg>
