<svg width="96" height="96" viewBox="0 0 96 96" fill="none" xmlns="http://www.w3.org/2000/svg">
<path d="M43.4933 9.07274L4 36L48 64L92 36L52.5067 9.07275C49.7881 7.21917 46.2119 7.21917 43.4933 9.07274Z" fill="#242828"/>
<path d="M16 24V72H80V24C80 19.5817 76.4183 16 72 16H24C19.5817 16 16 19.5817 16 24Z" fill="#6E6E6E"/>
<rect x="28" y="28" width="40" height="4" rx="2" fill="#0E0E0E"/>
<rect x="28" y="36" width="40" height="4" rx="2" fill="#0E0E0E"/>
<rect x="28" y="44" width="20" height="4" rx="2" fill="#0E0E0E"/>
<path d="M4 80V36L48 64L92 36V80C92 84.4183 88.4183 88 84 88H12C7.58172 88 4 84.4183 4 80Z" fill="#323738"/>
<path d="M43.4933 53.0727L4 80C4 84.4183 7.58172 88 12 88H84C88.4183 88 92 84.4183 92 80L52.5067 53.0727C49.7881 51.2192 46.2119 51.2192 43.4933 53.0727Z" fill="#242828"/>
</svg>
