<svg width="25" height="24" viewBox="0 0 25 24" fill="none" xmlns="http://www.w3.org/2000/svg">
<path d="M22.4991 12.234C22.4991 11.5484 22.4361 10.8628 22.3157 10.1885H12.7026V14.0547H18.1942C17.9649 15.291 17.2312 16.3812 16.1592 17.0724L19.4553 19.5844C21.3871 17.8423 22.4991 15.2798 22.4991 12.234Z" fill="#3E82F1"/>
<path d="M16.1607 17.0737C15.2493 17.675 14.0799 18.029 12.7042 18.029C10.0444 18.029 7.79732 16.2701 6.99479 13.9043L3.58408 16.4949C5.31523 19.8723 8.84633 22.0077 12.7042 22.0021C15.4614 22.0021 17.7715 21.1086 19.4568 19.58L16.1607 17.0737Z" fill="#32A753"/>
<path d="M6.99412 10.1033L3.58341 7.5127C2.13886 10.3393 2.13886 13.6717 3.58341 16.4984L6.99412 13.9077C6.56993 12.6714 6.56993 11.334 6.99412 10.1033Z" fill="#F9BB00"/>
<path d="M12.7042 2C8.84633 2 5.31465 4.13535 3.5835 7.5127L6.99422 10.1033C7.79674 7.73748 10.0444 5.97864 12.7042 5.97864C14.2003 5.97864 15.5474 6.4844 16.6021 7.47344L19.5313 4.60185C17.7658 2.98904 15.4557 2 12.7042 2Z" fill="#E74133"/>
</svg>
