<svg width="360" height="160" viewBox="0 0 360 160" fill="none" xmlns="http://www.w3.org/2000/svg">
<text fill="white" xml:space="preserve" style="white-space: pre" font-family="IBM Plex Sans" font-size="32" font-weight="bold" letter-spacing="0px"><tspan x="143.859" y="93.4034">24/7</tspan></text>
<path d="M189.842 24.1901L179.461 33.881L179.461 14.4992L189.842 24.1901Z" fill="#999999"/>
<path d="M179.5 24C168.325 24 157.402 27.3137 148.11 33.522C138.819 39.7303 131.577 48.5544 127.301 58.8784C123.024 69.2024 121.906 80.5627 124.086 91.5226C126.266 102.483 131.647 112.55 139.548 120.452C147.45 128.353 157.517 133.734 168.477 135.914C179.437 138.094 190.798 136.976 201.122 132.699C211.446 128.423 220.27 121.181 226.478 111.89C232.686 102.598 236 91.6746 236 80.5" stroke="#999999" stroke-width="3" stroke-linecap="round"/>
</svg>
