<svg width="24" height="24" viewBox="0 0 24 24" fill="none" xmlns="http://www.w3.org/2000/svg">
<path d="M3.41524 7.90984C6.11473 6.67854 9.04273 6.02787 12.0096 5.99997C14.9578 6.02787 17.8858 6.67854 20.5853 7.90984C21.0877 8.13904 21.6809 7.91749 21.9101 7.41501C22.1393 6.91253 21.9177 6.31939 21.4152 6.09019C18.4609 4.74267 15.2566 4.0306 12.0096 4.00006C8.74389 4.0306 5.53954 4.74267 2.58525 6.09019C2.08277 6.31939 1.86123 6.91253 2.09042 7.41501C2.31961 7.91749 2.91275 8.13904 3.41524 7.90984Z" fill="#85ACB0"/>
<path d="M3.41524 13.9098C6.11473 12.6785 9.04273 12.0279 12.0096 12C14.9578 12.0279 17.8858 12.6785 20.5853 13.9098C21.0877 14.139 21.6809 13.9175 21.9101 13.415C22.1393 12.9125 21.9177 12.3194 21.4152 12.0902C18.4609 10.7427 15.2566 10.0306 12.0096 10.0001C8.74389 10.0306 5.53954 10.7427 2.58525 12.0902C2.08277 12.3194 1.86123 12.9125 2.09042 13.415C2.31961 13.9175 2.91275 14.139 3.41524 13.9098Z" fill="#FF444F"/>
<path d="M3.41524 19.9098C6.11473 18.6785 9.04273 18.0279 12.0096 18C14.9578 18.0279 17.8858 18.6785 20.5853 19.9098C21.0877 20.139 21.6809 19.9175 21.9101 19.415C22.1393 18.9125 21.9177 18.3194 21.4152 18.0902C18.4609 16.7427 15.2566 16.0306 12.0096 16.0001C8.74389 16.0306 5.53954 16.7427 2.58525 18.0902C2.08277 18.3194 1.86123 18.9125 2.09042 19.415C2.31961 19.9175 2.91275 20.139 3.41524 19.9098Z" fill="#FF6444"/>
</svg>
