<svg width="58" height="48" viewBox="0 0 58 48" fill="none" xmlns="http://www.w3.org/2000/svg">
<g clip-path="url(#clip0_9852_923)">
<path d="M49.1 30.624V7.776C49.1 4.99712 49.1 3.60767 48.542 2.55394C48.0918 1.70358 47.3964 1.00817 46.546 0.557925C45.4923 0 44.1028 0 41.324 0H18.476C15.6971 0 14.3076 0 13.2539 0.557925C12.4035 1.00817 11.7081 1.70358 11.2579 2.55394C10.7 3.60767 10.7 4.99712 10.7 7.776V28.8V30.624C10.7 33.4029 10.7 34.7923 11.2579 35.8461C11.7081 36.6964 12.4035 37.3918 13.2539 37.8421C14.3076 38.4 15.6971 38.4 18.476 38.4H22.7H41.324C44.1028 38.4 45.4923 38.4 46.546 37.8421C47.3964 37.3918 48.0918 36.6964 48.542 35.8461C49.1 34.7923 49.1 33.4029 49.1 30.624Z" fill="#242828"/>
<path d="M16.7933 32.6394L16.7406 32.6115C16.737 32.6095 16.7334 32.6074 16.7299 32.6053C16.7062 32.5915 16.6834 32.5758 16.6617 32.5589C16.614 32.5218 16.5713 32.4785 16.535 32.4302C16.5216 32.4127 16.5089 32.3941 16.4971 32.3749C16.4931 32.3675 16.4892 32.3608 16.4854 32.354C16.4129 32.227 16.3811 32.0743 16.4084 31.9152C16.4118 31.8963 16.4155 31.8785 16.4199 31.861C16.4238 31.8457 16.4288 31.8286 16.4345 31.8115L19.1345 23.7115C19.1505 23.6636 19.1717 23.6178 19.1977 23.5749L19.243 23.5091L19.2976 23.4477L36.8476 5.89765C37.1112 5.63405 37.5385 5.63405 37.8021 5.89765L43.2021 11.2977C43.4657 11.5613 43.4657 11.9886 43.2021 12.2522L25.6521 29.8022C25.6141 29.8403 25.5727 29.8728 25.5288 29.8999C25.5079 29.9126 25.4861 29.9244 25.4637 29.935C25.4552 29.9393 25.4462 29.9433 25.4372 29.9471C25.4212 29.9536 25.4049 29.9598 25.3883 29.9653L21.2357 31.3486L40.0248 31.35C40.3562 31.35 40.6318 31.5887 40.689 31.9036L40.6998 32.025C40.6998 32.3977 40.3976 32.7 40.0248 32.7L17.0947 32.7007C17.0064 32.7038 16.9213 32.6891 16.8427 32.66C16.8405 32.6582 16.8378 32.6572 16.8351 32.6561C16.8259 32.6538 16.8095 32.6469 16.7933 32.6394ZM20.0693 25.1737L18.1421 30.9577L23.9249 29.0293L20.0693 25.1737ZM33.95 10.7044L20.7295 23.925L25.1737 28.3692L38.3942 15.1486L33.95 10.7044ZM37.3248 7.32955L34.9045 9.74995L39.3487 14.1942L41.7703 11.775L37.3248 7.32955Z" fill="#323738"/>
<path fill-rule="evenodd" clip-rule="evenodd" d="M49.798 37.4644H50.938L57.0562 43.6079C57.6478 44.1991 57.6478 45.1654 57.0562 45.7566C56.4646 46.3479 55.4978 46.3479 54.9062 45.7566L48.7735 39.6276V38.4883L48.3839 38.0845C46.3638 39.8151 43.6077 40.7092 40.6784 40.2189C36.667 39.5411 33.4636 36.1953 32.973 32.1574C32.2226 26.0572 37.3596 20.9232 43.4634 21.6731C47.5037 22.1634 50.8514 25.365 51.5296 29.3741C52.0202 32.3016 51.1256 35.0561 49.394 37.075L49.798 37.4644ZM35.7868 30.9748C35.7868 34.5657 38.6871 37.4644 42.2801 37.4644C45.8731 37.4644 48.7735 34.5657 48.7735 30.9748C48.7735 27.3839 45.8731 24.4853 42.2801 24.4853C38.6871 24.4853 35.7868 27.3839 35.7868 30.9748Z" fill="#6E6E6E"/>
</g>
<defs>
<clipPath id="clip0_9852_923">
<rect width="57" height="48" fill="white" transform="translate(0.5)"/>
</clipPath>
</defs>
</svg>
