<svg width="18" height="19" viewBox="0 0 18 19" fill="none" xmlns="http://www.w3.org/2000/svg">
<path d="M8.00001 0H10V2H10.5C10.8978 2 11.2794 2.15804 11.5607 2.43934C11.842 2.72064 12 3.10218 12 3.5V7L11.56 7.44L13.2 10.28C14.31 9.19 15 7.68 15 6H17C17 8.42 15.93 10.59 14.23 12.06L17 16L17.13 18.22L15.26 17L12.56 13.17C11.5 13.7 10.28 14 9.00001 14C7.72001 14 6.50001 13.7 5.44001 13.17L2.74048 17L0.870483 18.22L1.00048 16L6.44001 7.44L6.00001 7V3.5C6.00001 3.10218 6.15805 2.72064 6.43935 2.43934C6.72066 2.15804 7.10219 2 7.50001 2H8.00001V0ZM6.44001 11.43C7.22001 11.8 8.09001 12 9.00001 12C9.91001 12 10.78 11.8 11.56 11.43L10.1 8.9H10.09C9.47001 9.5 8.53001 9.5 7.91001 8.9H7.90001L6.44001 11.43ZM9.00001 4C8.7348 4 8.48044 4.10536 8.29291 4.29289C8.10537 4.48043 8.00001 4.73478 8.00001 5C8.00001 5.26522 8.10537 5.51957 8.29291 5.70711C8.48044 5.89464 8.7348 6 9.00001 6C9.26523 6 9.51958 5.89464 9.70712 5.70711C9.89466 5.51957 10 5.26522 10 5C10 4.73478 9.89466 4.48043 9.70712 4.29289C9.51958 4.10536 9.26523 4 9.00001 4Z" fill="white"/>
</svg>
