<svg width="48" height="48" viewBox="0 0 48 48" fill="none" xmlns="http://www.w3.org/2000/svg">
<path d="M39.0992 30.624V7.776C39.0992 4.99712 39.0992 3.60767 38.5413 2.55394C38.0911 1.70358 37.3956 1.00817 36.5453 0.557925C35.4915 0 34.1021 0 31.3232 0H8.47522C5.69633 0 4.30689 0 3.25316 0.557925C2.4028 1.00817 1.70738 1.70358 1.25714 2.55394C0.699219 3.60767 0.699219 4.99712 0.699219 7.776V28.8V30.624C0.699219 33.4029 0.699219 34.7923 1.25714 35.8461C1.70738 36.6964 2.4028 37.3918 3.25316 37.8421C4.30689 38.4 5.69633 38.4 8.47522 38.4H12.6992H31.3232C34.1021 38.4 35.4915 38.4 36.5453 37.8421C37.3956 37.3918 38.0911 36.6964 38.5413 35.8461C39.0992 34.7923 39.0992 33.4029 39.0992 30.624Z" fill="#242828"/>
<path d="M18.5487 7.05005H21.2487V9.75005H21.9237C22.4608 9.75005 22.9758 9.9634 23.3556 10.3432C23.7353 10.7229 23.9487 11.238 23.9487 11.775V16.5L23.3547 17.094L25.5687 20.928C27.0672 19.4565 27.9987 17.418 27.9987 15.15H30.6987C30.6987 18.417 29.2542 21.3465 26.9592 23.331L30.6987 28.65L30.8742 31.647L28.3497 30L24.7047 24.8295C23.2737 25.545 21.6267 25.95 19.8987 25.95C18.1707 25.95 16.5237 25.545 15.0927 24.8295L11.4483 30L8.92383 31.647L9.09933 28.65L16.4427 17.094L15.8487 16.5V11.775C15.8487 11.238 16.062 10.7229 16.4418 10.3432C16.8216 9.9634 17.3366 9.75005 17.8737 9.75005H18.5487V7.05005ZM16.4427 22.4805C17.4957 22.98 18.6702 23.25 19.8987 23.25C21.1272 23.25 22.3017 22.98 23.3547 22.4805L21.3837 19.065H21.3702C20.5332 19.875 19.2642 19.875 18.4272 19.065H18.4137L16.4427 22.4805ZM19.8987 12.45C19.5407 12.45 19.1973 12.5923 18.9441 12.8455C18.6909 13.0986 18.5487 13.442 18.5487 13.8C18.5487 14.1581 18.6909 14.5015 18.9441 14.7546C19.1973 15.0078 19.5407 15.15 19.8987 15.15C20.2567 15.15 20.6001 15.0078 20.8533 14.7546C21.1065 14.5015 21.2487 14.1581 21.2487 13.8C21.2487 13.442 21.1065 13.0986 20.8533 12.8455C20.6001 12.5923 20.2567 12.45 19.8987 12.45Z" fill="#323738"/>
<path fill-rule="evenodd" clip-rule="evenodd" d="M39.7966 37.4644H40.9365L47.0547 43.6079C47.6463 44.1991 47.6463 45.1654 47.0547 45.7566C46.4631 46.3479 45.4963 46.3479 44.9047 45.7566L38.7721 39.6276V38.4883L38.3825 38.0845C36.3623 39.8151 33.6062 40.7092 30.677 40.2189C26.6655 39.5411 23.4621 36.1953 22.9715 32.1574C22.2211 26.0572 27.3581 20.9232 33.4619 21.6731C37.5022 22.1634 40.8499 25.365 41.5281 29.3741C42.0187 32.3016 41.1241 35.0561 39.3925 37.075L39.7966 37.4644ZM25.7853 30.9748C25.7853 34.5657 28.6857 37.4644 32.2787 37.4644C35.8717 37.4644 38.7721 34.5657 38.7721 30.9748C38.7721 27.3839 35.8717 24.4853 32.2787 24.4853C28.6857 24.4853 25.7853 27.3839 25.7853 30.9748Z" fill="#6E6E6E"/>
</svg>
