<svg width="24" height="24" viewBox="0 0 24 24" fill="none" xmlns="http://www.w3.org/2000/svg">
<path d="M6 19V22H3V19H6ZM14 16V19H11V16H14ZM18 12V18H15V12H18ZM21 2C21.5523 2 22 2.44772 22 3C22 3.55228 21.5523 4 21 4H16.3837L6.66896 12.7433C6.48534 12.9086 6.24704 13 6 13H3C2.44772 13 2 12.5523 2 12C2 11.4477 2.44772 11 3 11H5.61626L15.331 2.25671C15.5147 2.09144 15.753 2 16 2H21Z" fill="#85ACB0"/>
<path d="M10 18V20H7V18H10ZM21 5C21.5523 5 22 5.44772 22 6C22 6.55228 21.5523 7 21 7H18.3866L7.67267 16.7399C7.4886 16.9073 7.24877 17 7 17H3C2.44772 17 2 16.5523 2 16C2 15.4477 2.44772 15 3 15H6.61339L17.3273 5.26006C17.5114 5.09272 17.7512 5 18 5H21ZM22 8V17H19V8H22Z" fill="#FF444F"/>
</svg>
