<svg width="24" height="24" viewBox="0 0 24 24" fill="none" xmlns="http://www.w3.org/2000/svg">
<path d="M2.07179 13.3714C2.25972 13.8412 2.62346 14.496 3.19458 15.1549C4.18212 16.2944 5.45219 17 7.00027 17C9.29692 17 10.3917 15.7035 12.3826 11.9706C13.9917 8.95354 14.7969 8 16.0003 8C17.3885 8 18.4187 8.87061 19.1749 10.4352C19.4595 11.024 19.6792 11.6639 19.8395 12.305C19.9352 12.6879 19.9887 12.9797 20.009 13.1322C20.082 13.6796 20.585 14.0642 21.1324 13.9912C21.6799 13.9182 22.0645 13.4153 21.9915 12.8678C21.9618 12.6453 21.895 12.2809 21.7798 11.82C21.5885 11.0548 21.3254 10.2885 20.9756 9.56483C19.9193 7.37939 18.287 6 16.0003 6C13.7036 6 12.6088 7.29646 10.6179 11.0294C9.00882 14.0465 8.20361 15 7.00027 15C6.09834 15 5.34341 14.5806 4.70595 13.8451C4.47009 13.5729 4.26931 13.2776 4.10567 12.9831C4.01027 12.8114 3.95134 12.6851 3.92874 12.6286C3.72363 12.1158 3.14166 11.8664 2.62888 12.0715C2.11609 12.2766 1.86668 12.8586 2.07179 13.3714Z" fill="#85ACB0"/>
</svg>
