<svg width="24" height="24" viewBox="0 0 24 24" fill="none" xmlns="http://www.w3.org/2000/svg">
<path d="M8.2362 4L11.0352 14.2631C11.1539 14.6982 11.549 15 12 15H17.3406L20.0809 21.3939C20.2984 21.9015 20.8863 22.1367 21.3939 21.9191C21.9015 21.7016 22.1367 21.1137 21.9191 20.6061L18.9191 13.6061C18.7616 13.2384 18.4 13 18 13H12.7638L9.96476 2.73688C9.84611 2.30182 9.45095 2 9 2H3C2.44772 2 2 2.44772 2 3C2 3.55228 2.44772 4 3 4H8.2362Z" fill="#85ACB0"/>
<path d="M6 6C6.55228 6 7 6.44772 7 7C7 7.55228 6.55228 8 6 8H3C2.44772 8 2 7.55228 2 7C2 6.44772 2.44772 6 3 6H6ZM21 6C21.5523 6 22 6.44772 22 7C22 7.55228 21.5523 8 21 8H14C13.4477 8 13 7.55228 13 7C13 6.44772 13.4477 6 14 6H21Z" fill="#D6DADB"/>
<path d="M3 20H16C16.5523 20 17 19.5523 17 19C17 18.4477 16.5523 18 16 18H3C2.44772 18 2 18.4477 2 19C2 19.5523 2.44772 20 3 20Z" fill="#FF444F"/>
</svg>
