<svg width="22" height="20" viewBox="0 0 22 20" fill="none" xmlns="http://www.w3.org/2000/svg">
<path fill-rule="evenodd" clip-rule="evenodd" d="M1.71 2.5399C1.32 2.1499 1.32 1.5199 1.71 1.1299C2.1 0.739902 2.74 0.739902 3.13 1.1299L19.44 17.4599C19.83 17.8499 19.83 18.4799 19.44 18.8699C19.05 19.2599 18.42 19.2599 18.03 18.8699L15.31 16.1499C13.97 16.6699 12.52 16.9699 11 16.9699C6 16.9699 1.73 13.8599 0 9.4699C0.77 7.4999 2.06 5.7999 3.68 4.5099L1.71 2.5399ZM16 9.4699C16 6.7099 13.76 4.4699 11 4.4699C10.49 4.4699 10 4.5699 9.53 4.7099L7.36 2.5399C8.51 2.1699 9.73 1.9699 11 1.9699C16 1.9699 20.27 5.0799 22 9.4599C21.31 11.2199 20.21 12.7599 18.82 13.9899L15.76 10.9299C15.9 10.4699 16 9.9799 16 9.4699ZM11 14.4699C8.24 14.4699 6 12.2299 6 9.4699C6 8.6999 6.18 7.9699 6.49 7.3299L8.06 8.8999C8.03 9.0799 8 9.2699 8 9.4699C8 11.1299 9.34 12.4699 11 12.4699C11.2 12.4699 11.38 12.4399 11.57 12.3999L13.14 13.9699C12.49 14.2899 11.77 14.4699 11 14.4699ZM13.97 9.1399C13.82 7.7399 12.72 6.6499 11.33 6.4999L13.97 9.1399Z" fill="#C2C2C2"/>
</svg>
