<svg width="112" height="32" viewBox="0 0 112 32" fill="none" xmlns="http://www.w3.org/2000/svg">
<path fill-rule="evenodd" clip-rule="evenodd" d="M18.1079 6.46068L17.0577 12.4168H13.412C10.0108 12.4168 6.76892 15.1724 6.16806 18.5736L5.91374 20.0213C5.31568 23.4225 7.58498 26.1782 10.9862 26.1782H14.0268C16.5057 26.1782 18.8673 24.1715 19.3033 21.6926L22.1035 5.81836L18.1079 6.46068ZM15.5211 21.1308C15.3869 21.8966 14.6975 22.5199 13.9318 22.5199H12.0845C10.5558 22.5199 9.53291 21.2789 9.80119 19.7474L9.9605 18.8447C10.2316 17.316 11.6904 16.0723 13.2191 16.0723H16.4131L15.5211 21.1308ZM46.1843 26.1791H49.9683L52.3606 12.6077H48.5766L46.1843 26.1791ZM46.3103 14.3769L46.3108 14.3744L46.3111 14.3724C46.4058 13.8363 46.5005 13.3002 46.5949 12.7641C42.7121 11.7636 39.6878 12.7987 38.4562 13.3087C38.4562 13.3087 36.6995 23.2665 36.1853 26.1823H39.9718C40.5864 22.6975 41.2009 19.2119 41.8145 15.7271C42.3828 15.6138 44.2324 15.4364 46.0251 15.9935C46.12 15.4546 46.2152 14.9158 46.3103 14.3769ZM31.2485 12.4154H28.3057C25.4355 12.4154 22.6996 14.7406 22.1936 17.6108L21.5984 20.9841C21.0925 23.8542 23.007 26.1795 25.8772 26.1795H32.1429L32.7857 22.5324H26.8971C25.9414 22.5324 25.3013 21.7582 25.4719 20.7996L25.4914 20.685H34.9851L35.5273 17.6108C36.033 14.7406 34.1187 12.4154 31.2485 12.4154ZM31.7292 17.3201L31.7069 17.5158H26.0616L26.0923 17.3425C26.2627 16.3867 27.1348 15.5455 28.0932 15.5455H30.2983C31.2458 15.5455 31.8858 16.3727 31.7292 17.3201ZM58.9373 21.5593C60.6554 18.4682 62.5496 14.4127 63.3388 12.6077H67.1285C65.8385 16.0374 62.8823 21.8714 60.0187 26.1791H56.2319C54.9174 22.0792 54.0686 16.3667 53.9067 12.6077H57.6936C57.7619 13.8339 58.3108 18.382 58.9373 21.5593Z" fill="#FF444F"/>
<path d="M81.5216 9.95598C79.487 9.95598 78.0123 10.5253 77.0976 11.664C76.2016 12.784 75.7536 14.324 75.7536 16.284C75.7536 17.236 75.8656 18.104 76.0896 18.888C76.3136 19.6533 76.6496 20.316 77.0976 20.876C77.5456 21.436 78.1056 21.8747 78.7776 22.192C79.4496 22.4907 80.2336 22.64 81.1296 22.64C81.615 22.64 82.0256 22.6307 82.3616 22.612C82.7163 22.5933 83.0243 22.556 83.2856 22.5V15.752H87.6536V25.356C87.131 25.5613 86.291 25.776 85.1336 26C83.9763 26.2427 82.5483 26.364 80.8496 26.364C79.3936 26.364 78.0683 26.14 76.8736 25.692C75.6976 25.244 74.6896 24.5907 73.8496 23.732C73.0096 22.8733 72.3563 21.8187 71.8896 20.568C71.4416 19.3173 71.2176 17.8893 71.2176 16.284C71.2176 14.66 71.4696 13.2227 71.9736 11.972C72.4776 10.7213 73.1683 9.66665 74.0456 8.80798C74.923 7.93065 75.9496 7.26798 77.1256 6.81998C78.3203 6.37198 79.5896 6.14798 80.9336 6.14798C81.8483 6.14798 82.6696 6.21331 83.3976 6.34398C84.1443 6.45598 84.779 6.59598 85.3016 6.76398C85.843 6.91331 86.2816 7.07198 86.6176 7.23998C86.9723 7.40798 87.2243 7.53865 87.3736 7.63198L86.1136 11.132C85.5163 10.8147 84.8256 10.544 84.0416 10.32C83.2763 10.0773 82.4363 9.95598 81.5216 9.95598ZM93.9858 16.284C93.9858 17.236 94.0978 18.0947 94.3218 18.86C94.5645 19.6253 94.9005 20.288 95.3298 20.848C95.7778 21.3893 96.3191 21.8093 96.9538 22.108C97.5885 22.4067 98.3165 22.556 99.1378 22.556C99.9405 22.556 100.659 22.4067 101.294 22.108C101.947 21.8093 102.488 21.3893 102.918 20.848C103.366 20.288 103.702 19.6253 103.926 18.86C104.168 18.0947 104.29 17.236 104.29 16.284C104.29 15.332 104.168 14.4733 103.926 13.708C103.702 12.924 103.366 12.2613 102.918 11.72C102.488 11.16 101.947 10.7307 101.294 10.432C100.659 10.1333 99.9405 9.98398 99.1378 9.98398C98.3165 9.98398 97.5885 10.1427 96.9538 10.46C96.3191 10.7587 95.7778 11.188 95.3298 11.748C94.9005 12.2893 94.5645 12.952 94.3218 13.736C94.0978 14.5013 93.9858 15.3507 93.9858 16.284ZM108.798 16.284C108.798 17.9453 108.546 19.4107 108.042 20.68C107.556 21.9307 106.884 22.9853 106.026 23.844C105.167 24.684 104.14 25.3187 102.946 25.748C101.77 26.1773 100.5 26.392 99.1378 26.392C97.8125 26.392 96.5618 26.1773 95.3858 25.748C94.2098 25.3187 93.1831 24.684 92.3058 23.844C91.4285 22.9853 90.7378 21.9307 90.2338 20.68C89.7298 19.4107 89.4778 17.9453 89.4778 16.284C89.4778 14.6227 89.7391 13.1667 90.2618 11.916C90.7845 10.6467 91.4845 9.58265 92.3618 8.72398C93.2578 7.86531 94.2845 7.22131 95.4418 6.79198C96.6178 6.36265 97.8498 6.14798 99.1378 6.14798C100.463 6.14798 101.714 6.36265 102.89 6.79198C104.066 7.22131 105.092 7.86531 105.97 8.72398C106.847 9.58265 107.538 10.6467 108.042 11.916C108.546 13.1667 108.798 14.6227 108.798 16.284Z" fill="white"/>
</svg>
