<svg width="360" height="160" viewBox="0 0 360 160" fill="none" xmlns="http://www.w3.org/2000/svg">
<g clip-path="url(#clip0_30069_75893)">
<path d="M187.264 48.4375C187.264 44.3299 190.594 41 194.701 41H222.826C226.934 41 230.264 44.3299 230.264 48.4375V76.5625C230.264 80.6701 226.934 84 222.826 84H194.701C190.594 84 187.264 80.6701 187.264 76.5625V48.4375Z" stroke="#6E6E6E" stroke-width="2"/>
<path d="M208.719 69.1775C205.129 69.1775 202.219 66.2677 202.219 62.6769C202.219 59.0861 205.129 56.1763 208.719 56.1763C210.639 56.1763 212.434 56.9811 213.672 58.4051L217.201 55.3715C215.963 53.8856 214.353 52.8331 212.558 52.214V48.4375H210.391V51.5949C209.834 51.533 209.277 51.4711 208.719 51.4711C208.1 51.4711 207.543 51.533 206.924 51.5949V48.4375H204.757V52.214C200.547 53.8237 197.514 57.9098 197.514 62.6769C197.514 67.444 200.547 71.5301 204.757 73.1397V76.9163H206.924V73.6969C207.481 73.7588 208.1 73.8208 208.719 73.8208C209.277 73.8208 209.834 73.7588 210.391 73.6969V76.9163H212.558V73.2016C214.353 72.5825 215.901 71.4682 217.201 70.0442L213.61 66.9487C212.372 68.3726 210.577 69.1775 208.719 69.1775Z" fill="white"/>
<path d="M128.264 84.4375C128.264 80.3299 131.594 77 135.701 77H163.826C167.934 77 171.264 80.3299 171.264 84.4375V112.562C171.264 116.67 167.934 120 163.826 120H135.701C131.594 120 128.264 116.67 128.264 112.562V84.4375Z" stroke="#6E6E6E" stroke-width="2"/>
<path d="M163.417 88.5809L154.979 82.4531H144.548L136.111 88.5809L132.889 98.5002L136.111 108.42L144.548 114.547H154.979L163.417 108.42L166.639 98.5002L163.417 88.5809ZM153.365 112.111H146.178V105.039H153.365V112.111ZM146.178 102.598V94.408H153.365V102.598H146.178ZM146.178 84.8947H153.365V91.9664H146.178V84.8947ZM155.807 94.408H162.742L164.071 98.5002L162.742 102.592H155.807V94.4027V94.408ZM161.951 91.9664H155.807V86.0707L161.339 90.0891L161.951 91.9664ZM143.741 86.0602V91.9664H137.582L138.194 90.0891L143.747 86.0549L143.741 86.0602ZM136.786 94.408H143.741V102.598H136.786L135.457 98.5055L136.786 94.4133V94.408ZM137.577 105.039H143.736V110.946L138.183 106.911L137.577 105.034V105.039ZM155.807 110.935V105.039H161.951L161.339 106.917L155.807 110.935Z" fill="white"/>
<path d="M128.264 142.438C128.264 138.33 131.594 135 135.701 135H163.826C167.934 135 171.264 138.33 171.264 142.438V170.562C171.264 174.67 167.934 178 163.826 178H135.701C131.594 178 128.264 174.67 128.264 170.562V142.438Z" stroke="#3E3E3E" stroke-width="2"/>
<path d="M128.264 -29.5625C128.264 -33.6701 131.594 -37 135.701 -37H163.826C167.934 -37 171.264 -33.6701 171.264 -29.5625V-1.4375C171.264 2.67012 167.934 6 163.826 6H135.701C131.594 6 128.264 2.67012 128.264 -1.4375V-29.5625Z" stroke="#3E3E3E" stroke-width="2"/>
<path d="M187.264 160.438C187.264 156.33 190.594 153 194.701 153H222.826C226.934 153 230.264 156.33 230.264 160.438V188.562C230.264 192.67 226.934 196 222.826 196H194.701C190.594 196 187.264 192.67 187.264 188.562V160.438Z" stroke="#3E3E3E" stroke-width="2"/>
<path d="M186.264 -6.5625C186.264 -10.6701 189.594 -14 193.701 -14H221.826C225.934 -14 229.264 -10.6701 229.264 -6.5625V21.5625C229.264 25.6701 225.934 29 221.826 29H193.701C189.594 29 186.264 25.6701 186.264 21.5625V-6.5625Z" stroke="#3E3E3E" stroke-width="2"/>
<path d="M187.264 106.438C187.264 102.33 190.594 99 194.701 99H222.826C226.934 99 230.264 102.33 230.264 106.438V134.562C230.264 138.67 226.934 142 222.826 142H194.701C190.594 142 187.264 138.67 187.264 134.562V106.438Z" stroke="#6E6E6E" stroke-width="2"/>
<path d="M193.295 109.25V131.75H198.92V123.312H205.951V119.094H198.92V114.875H207.92L210.873 119.797L204.545 131.75H210.17L214.389 124.719L218.607 131.75H224.232L217.904 119.797L224.232 109.25H217.904L214.389 114.875L210.873 109.25H193.295Z" fill="white"/>
<path d="M128.264 26.4375C128.264 22.3299 131.594 19 135.701 19H163.826C167.934 19 171.264 22.3299 171.264 26.4375V54.5625C171.264 58.6701 167.934 62 163.826 62H135.701C131.594 62 128.264 58.6701 128.264 54.5625V26.4375Z" stroke="#6E6E6E" stroke-width="2"/>
<path d="M145.545 32.0625L146.951 31.3594L145.545 27.1406H158.201L149.764 39.0938L148.357 35.5781L146.951 36.2813L148.357 39.7969H135.701L144.139 27.8438L145.545 32.0625Z" fill="white"/>
<path d="M134.998 41.2031H148.357L145.545 44.7188L146.951 45.4219L149.764 41.9062L155.389 53.8594H142.029L144.842 49.6406L143.436 48.9375L140.623 53.1562L134.998 41.2031Z" fill="white"/>
<path d="M165.232 39.7969L159.607 27.1406L150.948 39.7969L155.389 39.797V41.2032L150.818 41.2031L156.795 53.1562L165.232 41.2031H159.607V39.7969H165.232Z" fill="white"/>
</g>
<defs>
<clipPath id="clip0_30069_75893">
<rect width="360" height="160" fill="white"/>
</clipPath>
</defs>
</svg>
