<svg width="72" height="72" viewBox="0 0 72 72" fill="none" xmlns="http://www.w3.org/2000/svg">
<rect x="1.5" y="22.5" width="69" height="27" rx="4.5" fill="#242828" stroke="#323738" stroke-width="3"/>
<path d="M9.7103 33.1189V37.1101C9.7103 37.3676 9.66739 37.6036 9.58155 37.8182C9.50109 38.0274 9.38038 38.2071 9.21945 38.3573C9.05851 38.5022 8.86271 38.6175 8.63203 38.7034C8.40672 38.7838 8.14922 38.8241 7.85954 38.8241C7.58059 38.8241 7.33382 38.7865 7.11924 38.7114C6.91002 38.6363 6.72763 38.529 6.57205 38.3895C6.42185 38.2501 6.29846 38.0838 6.2019 37.8906C6.10534 37.6975 6.03828 37.4829 6.00073 37.2469L7.14338 37.0216C7.23457 37.5097 7.46793 37.7538 7.84345 37.7538C8.02048 37.7538 8.17068 37.6975 8.29407 37.5848C8.42282 37.4722 8.48719 37.2952 8.48719 37.0538V34.1006H6.78127V33.1189H9.7103Z" fill="#6E6E6E"/>
<path d="M12.5636 38.8321C12.2525 38.8321 11.9735 38.7811 11.7268 38.6792C11.4854 38.5773 11.2788 38.4298 11.1072 38.2366C10.9409 38.0435 10.8121 37.8102 10.7209 37.5366C10.6297 37.263 10.5841 36.9572 10.5841 36.6192C10.5841 36.2813 10.6297 35.9755 10.7209 35.7019C10.8121 35.4283 10.9409 35.1976 11.1072 35.0099C11.2788 34.8168 11.4854 34.6692 11.7268 34.5673C11.9735 34.4654 12.2525 34.4144 12.5636 34.4144C12.8748 34.4144 13.1511 34.4654 13.3925 34.5673C13.6392 34.6692 13.8458 34.8168 14.0121 35.0099C14.1837 35.1976 14.3152 35.4283 14.4064 35.7019C14.4976 35.9755 14.5432 36.2813 14.5432 36.6192C14.5432 36.9572 14.4976 37.263 14.4064 37.5366C14.3152 37.8102 14.1837 38.0435 14.0121 38.2366C13.8458 38.4298 13.6392 38.5773 13.3925 38.6792C13.1511 38.7811 12.8748 38.8321 12.5636 38.8321ZM12.5636 37.8906C12.7997 37.8906 12.9821 37.8182 13.1108 37.6734C13.2396 37.5285 13.3039 37.322 13.3039 37.0538V36.1928C13.3039 35.9245 13.2396 35.718 13.1108 35.5732C12.9821 35.4283 12.7997 35.3559 12.5636 35.3559C12.3276 35.3559 12.1452 35.4283 12.0165 35.5732C11.8877 35.718 11.8233 35.9245 11.8233 36.1928V37.0538C11.8233 37.322 11.8877 37.5285 12.0165 37.6734C12.1452 37.8182 12.3276 37.8906 12.5636 37.8906Z" fill="#6E6E6E"/>
<path d="M15.3917 38.7355V34.511H16.5826V35.2271H16.6309C16.706 35.0072 16.8375 34.8168 17.0252 34.6558C17.213 34.4949 17.4731 34.4144 17.8057 34.4144C18.2403 34.4144 18.5675 34.5593 18.7875 34.8489C19.0128 35.1386 19.1254 35.5517 19.1254 36.0881V38.7355H17.9345V36.1847C17.9345 35.9111 17.8916 35.7099 17.8057 35.5812C17.7199 35.4471 17.567 35.38 17.3471 35.38C17.2505 35.38 17.1566 35.3934 17.0654 35.4203C16.9742 35.4417 16.8911 35.4793 16.816 35.5329C16.7463 35.5866 16.6899 35.6536 16.647 35.7341C16.6041 35.8092 16.5826 35.8977 16.5826 35.9996V38.7355H15.3917Z" fill="#6E6E6E"/>
<path d="M20.1852 32.7809H21.3761V35.2271H21.4244C21.4995 35.0072 21.6309 34.8168 21.8187 34.6558C22.0065 34.4949 22.2666 34.4144 22.5992 34.4144C23.0338 34.4144 23.361 34.5593 23.581 34.8489C23.8063 35.1386 23.9189 35.5517 23.9189 36.0881V38.7355H22.728V36.1847C22.728 35.9111 22.6851 35.7099 22.5992 35.5812C22.5134 35.4471 22.3605 35.38 22.1406 35.38C22.044 35.38 21.9501 35.3934 21.8589 35.4203C21.7677 35.4417 21.6846 35.4793 21.6095 35.5329C21.5398 35.5866 21.4834 35.6536 21.4405 35.7341C21.3976 35.8092 21.3761 35.8977 21.3761 35.9996V38.7355H20.1852V32.7809Z" fill="#6E6E6E"/>
<path d="M29.8309 39.7092H28.1411C27.6315 39.7092 27.1755 39.6287 26.7731 39.4678C26.3762 39.3069 26.0382 39.0789 25.7592 38.7838C25.4857 38.4941 25.2764 38.1481 25.1316 37.7458C24.9868 37.3381 24.9143 36.8875 24.9143 36.3939C24.9143 35.9058 24.9894 35.4551 25.1396 35.0421C25.2898 34.629 25.5044 34.2749 25.7834 33.9799C26.0623 33.6795 26.4003 33.4461 26.7973 33.2798C27.1943 33.1135 27.6422 33.0304 28.1411 33.0304C28.6024 33.0304 29.0236 33.1028 29.4044 33.2476C29.7853 33.3871 30.1099 33.5883 30.3781 33.8511C30.6517 34.1086 30.8609 34.4251 31.0058 34.8007C31.156 35.1708 31.2311 35.5839 31.2311 36.0399C31.2311 36.6836 31.0943 37.1852 30.8207 37.5446C30.5525 37.8987 30.1877 38.0757 29.7263 38.0757C29.4366 38.0757 29.2006 38.006 29.0182 37.8665C28.8358 37.727 28.7366 37.5446 28.7205 37.3193H28.6802C28.6266 37.5446 28.5247 37.7243 28.3745 37.8584C28.2296 37.9926 28.0231 38.0596 27.7548 38.0596C27.4008 38.0596 27.1057 37.9201 26.8697 37.6412C26.6337 37.3569 26.5156 36.9411 26.5156 36.3939C26.5156 35.8467 26.6337 35.4337 26.8697 35.1547C27.1057 34.8704 27.4008 34.7282 27.7548 34.7282C27.9802 34.7282 28.1626 34.7899 28.302 34.9133C28.4415 35.0313 28.5354 35.1789 28.5837 35.3559H28.6239V34.8007H29.5171V36.9652C29.5171 37.2335 29.6351 37.3676 29.8712 37.3676C30.0536 37.3676 30.2011 37.271 30.3137 37.0779C30.4264 36.8794 30.4827 36.5736 30.4827 36.1606V35.9353C30.4827 35.5919 30.4237 35.2835 30.3057 35.0099C30.193 34.7363 30.0321 34.5056 29.8229 34.3179C29.619 34.1301 29.3723 33.9853 29.0826 33.8833C28.7983 33.7814 28.4844 33.7304 28.1411 33.7304C27.7602 33.7304 27.4169 33.7921 27.1111 33.9155C26.8107 34.0389 26.5505 34.2132 26.3306 34.4386C26.116 34.6585 25.9497 34.924 25.8317 35.2352C25.719 35.541 25.6627 35.8762 25.6627 36.241V36.5468C25.6627 36.9116 25.719 37.2469 25.8317 37.5527C25.9497 37.8531 26.116 38.1106 26.3306 38.3252C26.5505 38.5397 26.8107 38.706 27.1111 38.8241C27.4169 38.9421 27.7602 39.0011 28.1411 39.0011H29.8309V39.7092ZM28.0848 37.3274C28.2242 37.3274 28.3476 37.2764 28.4549 37.1745C28.5676 37.0672 28.6239 36.9518 28.6239 36.8285V35.895C28.6239 35.7716 28.5676 35.6697 28.4549 35.5892C28.3476 35.5034 28.2242 35.4605 28.0848 35.4605C27.8916 35.4605 27.7361 35.5222 27.6181 35.6456C27.5054 35.769 27.4491 35.9272 27.4491 36.1203V36.6675C27.4491 36.8606 27.5054 37.0189 27.6181 37.1423C27.7361 37.2657 27.8916 37.3274 28.0848 37.3274Z" fill="#6E6E6E"/>
<path d="M32.2475 38.7355V34.511H33.4385V35.2271H33.4867C33.5618 35.0018 33.6906 34.8114 33.873 34.6558C34.0554 34.4949 34.3048 34.4144 34.6213 34.4144C34.911 34.4144 35.1578 34.4868 35.3616 34.6317C35.5655 34.7765 35.713 34.9884 35.8042 35.2674H35.8284C35.8659 35.1494 35.9222 35.0394 35.9973 34.9375C36.0778 34.8302 36.1744 34.739 36.287 34.6639C36.3997 34.5888 36.5257 34.5298 36.6652 34.4868C36.8047 34.4386 36.9549 34.4144 37.1158 34.4144C37.5235 34.4144 37.8347 34.5593 38.0493 34.8489C38.2692 35.1386 38.3792 35.5517 38.3792 36.0881V38.7355H37.1883V36.1847C37.1883 35.6483 36.9951 35.38 36.6089 35.38C36.4319 35.38 36.2709 35.431 36.1261 35.5329C35.9812 35.6348 35.9088 35.7904 35.9088 35.9996V38.7355H34.7179V36.1847C34.7179 35.6483 34.5248 35.38 34.1385 35.38C34.0527 35.38 33.9669 35.3934 33.881 35.4203C33.8006 35.4417 33.7255 35.4793 33.6557 35.5329C33.5913 35.5866 33.5377 35.6536 33.4948 35.7341C33.4572 35.8092 33.4385 35.8977 33.4385 35.9996V38.7355H32.2475Z" fill="#6E6E6E"/>
<path d="M42.5599 38.7355C42.3454 38.7355 42.1656 38.6685 42.0208 38.5344C41.8813 38.4003 41.7928 38.2205 41.7553 37.9952H41.707C41.6426 38.2688 41.5004 38.478 41.2805 38.6229C41.0606 38.7624 40.7896 38.8321 40.4678 38.8321C40.044 38.8321 39.7194 38.7194 39.4941 38.4941C39.2688 38.2688 39.1561 37.9711 39.1561 37.6009C39.1561 37.1557 39.3171 36.8258 39.639 36.6112C39.9662 36.3912 40.4088 36.2813 40.9667 36.2813H41.6346V36.0157C41.6346 35.8119 41.5809 35.6509 41.4736 35.5329C41.3663 35.4095 41.1866 35.3478 40.9345 35.3478C40.6984 35.3478 40.5107 35.3988 40.3712 35.5007C40.2317 35.6027 40.1164 35.718 40.0252 35.8467L39.3171 35.2191C39.4887 34.967 39.7033 34.7712 39.9608 34.6317C40.2237 34.4868 40.5777 34.4144 41.023 34.4144C41.6238 34.4144 42.0744 34.5458 42.3749 34.8087C42.6753 35.0716 42.8255 35.4551 42.8255 35.9594V37.8102H43.2198V38.7355H42.5599ZM40.9103 38.0033C41.1088 38.0033 41.2778 37.9604 41.4173 37.8745C41.5621 37.7887 41.6346 37.6492 41.6346 37.4561V36.9572H41.0552C40.5885 36.9572 40.3551 37.1155 40.3551 37.432V37.5527C40.3551 37.7082 40.4034 37.8236 40.5 37.8987C40.5965 37.9684 40.7333 38.0033 40.9103 38.0033Z" fill="#6E6E6E"/>
<path d="M44.6146 34.0604C44.3732 34.0604 44.1961 34.0067 44.0835 33.8994C43.9762 33.7868 43.9226 33.6446 43.9226 33.4729V33.2959C43.9226 33.1242 43.9762 32.9848 44.0835 32.8775C44.1961 32.7648 44.3732 32.7085 44.6146 32.7085C44.856 32.7085 45.0303 32.7648 45.1376 32.8775C45.2503 32.9848 45.3066 33.1242 45.3066 33.2959V33.4729C45.3066 33.6446 45.2503 33.7868 45.1376 33.8994C45.0303 34.0067 44.856 34.0604 44.6146 34.0604ZM44.0191 34.511H45.21V38.7355H44.0191V34.511Z" fill="#6E6E6E"/>
<path d="M47.5044 38.7355C47.0967 38.7355 46.7963 38.6363 46.6032 38.4378C46.4154 38.2393 46.3216 37.9523 46.3216 37.5768V32.7809H47.5125V37.8102H48.0436V38.7355H47.5044Z" fill="#6E6E6E"/>
<path d="M49.5282 38.8241C49.2868 38.8241 49.1071 38.765 48.9891 38.647C48.8764 38.5236 48.8201 38.3681 48.8201 38.1803V38.0194C48.8201 37.8316 48.8764 37.6787 48.9891 37.5607C49.1071 37.4373 49.2868 37.3756 49.5282 37.3756C49.7696 37.3756 49.9466 37.4373 50.0593 37.5607C50.1773 37.6787 50.2363 37.8316 50.2363 38.0194V38.1803C50.2363 38.3681 50.1773 38.5236 50.0593 38.647C49.9466 38.765 49.7696 38.8241 49.5282 38.8241Z" fill="#6E6E6E"/>
<path d="M52.9153 38.8321C52.5988 38.8321 52.3171 38.7811 52.0704 38.6792C51.8236 38.5719 51.6171 38.4244 51.4508 38.2366C51.2845 38.0435 51.1584 37.8102 51.0726 37.5366C50.9867 37.263 50.9438 36.9572 50.9438 36.6192C50.9438 36.2813 50.9867 35.9782 51.0726 35.7099C51.1584 35.4364 51.2845 35.203 51.4508 35.0099C51.6171 34.8168 51.8236 34.6692 52.0704 34.5673C52.3171 34.4654 52.5988 34.4144 52.9153 34.4144C53.3444 34.4144 53.7012 34.511 53.9855 34.7041C54.2752 34.8972 54.4817 35.1681 54.6051 35.5168L53.6395 35.9353C53.6019 35.7743 53.5241 35.6375 53.4061 35.5249C53.2881 35.4122 53.1245 35.3559 52.9153 35.3559C52.6739 35.3559 52.4915 35.4364 52.3681 35.5973C52.2447 35.7529 52.183 35.9648 52.183 36.233V37.0216C52.183 37.2898 52.2447 37.5017 52.3681 37.6573C52.4915 37.8128 52.6739 37.8906 52.9153 37.8906C53.1299 37.8906 53.2988 37.8343 53.4222 37.7216C53.551 37.6036 53.6448 37.4507 53.7039 37.263L54.6292 37.6653C54.4898 38.0677 54.2725 38.3627 53.9775 38.5505C53.6878 38.7382 53.3337 38.8321 52.9153 38.8321Z" fill="#6E6E6E"/>
<path d="M57.041 38.8321C56.7299 38.8321 56.4509 38.7811 56.2041 38.6792C55.9627 38.5773 55.7562 38.4298 55.5845 38.2366C55.4182 38.0435 55.2895 37.8102 55.1983 37.5366C55.1071 37.263 55.0615 36.9572 55.0615 36.6192C55.0615 36.2813 55.1071 35.9755 55.1983 35.7019C55.2895 35.4283 55.4182 35.1976 55.5845 35.0099C55.7562 34.8168 55.9627 34.6692 56.2041 34.5673C56.4509 34.4654 56.7299 34.4144 57.041 34.4144C57.3522 34.4144 57.6284 34.4654 57.8698 34.5673C58.1166 34.6692 58.3231 34.8168 58.4894 35.0099C58.6611 35.1976 58.7925 35.4283 58.8837 35.7019C58.9749 35.9755 59.0205 36.2813 59.0205 36.6192C59.0205 36.9572 58.9749 37.263 58.8837 37.5366C58.7925 37.8102 58.6611 38.0435 58.4894 38.2366C58.3231 38.4298 58.1166 38.5773 57.8698 38.6792C57.6284 38.7811 57.3522 38.8321 57.041 38.8321ZM57.041 37.8906C57.2771 37.8906 57.4594 37.8182 57.5882 37.6734C57.7169 37.5285 57.7813 37.322 57.7813 37.0538V36.1928C57.7813 35.9245 57.7169 35.718 57.5882 35.5732C57.4594 35.4283 57.2771 35.3559 57.041 35.3559C56.805 35.3559 56.6226 35.4283 56.4938 35.5732C56.3651 35.718 56.3007 35.9245 56.3007 36.1928V37.0538C56.3007 37.322 56.3651 37.5285 56.4938 37.6734C56.6226 37.8182 56.805 37.8906 57.041 37.8906Z" fill="#6E6E6E"/>
<path d="M59.8691 38.7355V34.511H61.06V35.2271H61.1083C61.1834 35.0018 61.3121 34.8114 61.4945 34.6558C61.6769 34.4949 61.9264 34.4144 62.2429 34.4144C62.5326 34.4144 62.7793 34.4868 62.9832 34.6317C63.187 34.7765 63.3346 34.9884 63.4258 35.2674H63.4499C63.4875 35.1494 63.5438 35.0394 63.6189 34.9375C63.6994 34.8302 63.7959 34.739 63.9086 34.6639C64.0212 34.5888 64.1473 34.5298 64.2868 34.4868C64.4262 34.4386 64.5765 34.4144 64.7374 34.4144C65.1451 34.4144 65.4562 34.5593 65.6708 34.8489C65.8908 35.1386 66.0007 35.5517 66.0007 36.0881V38.7355H64.8098V36.1847C64.8098 35.6483 64.6167 35.38 64.2304 35.38C64.0534 35.38 63.8925 35.431 63.7476 35.5329C63.6028 35.6348 63.5304 35.7904 63.5304 35.9996V38.7355H62.3394V36.1847C62.3394 35.6483 62.1463 35.38 61.7601 35.38C61.6742 35.38 61.5884 35.3934 61.5026 35.4203C61.4221 35.4417 61.347 35.4793 61.2773 35.5329C61.2129 35.5866 61.1592 35.6536 61.1163 35.7341C61.0788 35.8092 61.06 35.8977 61.06 35.9996V38.7355H59.8691Z" fill="#6E6E6E"/>
<path d="M6 40.4994L7.5 39.8994L9 40.4994L10.5 39.8994L12 40.4994L13.5 39.8994L15 40.4994L16.5 39.8994L18 40.4994L19.5 39.8994L21 40.4994L22.5 39.8994L24 40.4994" stroke="#FF444F" stroke-width="0.6"/>
<rect x="48" y="45" width="24" height="24" rx="12" fill="#FF444F"/>
<path fill-rule="evenodd" clip-rule="evenodd" d="M60 49.5C55.86 49.5 52.5 52.86 52.5 57C52.5 61.14 55.86 64.5 60 64.5C64.14 64.5 67.5 61.14 67.5 57C67.5 52.86 64.14 49.5 60 49.5ZM60 57.75C59.5875 57.75 59.25 57.4125 59.25 57V54C59.25 53.5875 59.5875 53.25 60 53.25C60.4125 53.25 60.75 53.5875 60.75 54V57C60.75 57.4125 60.4125 57.75 60 57.75ZM59.25 59.25V60.75H60.75V59.25H59.25Z" fill="white"/>
</svg>
