<svg width="72" height="72" viewBox="0 0 72 72" fill="none" xmlns="http://www.w3.org/2000/svg">
<path d="M34.8183 6.24256C35.1956 6.08086 35.5978 6 36 6V36H12V18C12 16.7999 12.7152 15.7153 13.8182 15.2426L34.8183 6.24256Z" fill="#323738"/>
<path fill-rule="evenodd" clip-rule="evenodd" d="M36 63L36 36H12V36.6235C12 38.3224 12.1186 43.2758 12.7386 45.2158C15.1643 52.8053 20.9073 57.9634 25.7435 61.1495C28.1904 62.7615 30.4882 63.9241 32.1771 64.6857C33.0238 65.0675 33.7234 65.3512 34.22 65.5424C34.4684 65.638 34.6665 65.7107 34.8073 65.761L34.9326 65.8053L34.9747 65.82L35.0247 65.8371L35.041 65.8426L35.0493 65.8454C35.3575 65.9481 35.6788 65.9996 36 65.9997L36 63ZM36 63L35.0493 65.8454C35.0493 65.8454 35.0513 65.846 36 63Z" fill="#4A5153"/>
<path d="M60 36H36L36 63L36 65.9997C36.3206 65.9997 36.6411 65.9486 36.9487 65.846L36 63C36.9487 65.846 36.9531 65.8446 36.9531 65.8446L36.959 65.8426L36.9753 65.8371L37.0253 65.82C37.0662 65.8058 37.1223 65.7862 37.1927 65.761C37.3335 65.7107 37.5316 65.638 37.78 65.5424C38.2766 65.3512 38.9762 65.0675 39.8229 64.6857C41.5119 63.9241 43.8096 62.7615 46.2565 61.1495C51.0927 57.9634 56.8357 52.8053 59.2614 45.2159C59.8779 43.2867 59.9987 38.3444 60 36.6524V36Z" fill="#323738"/>
<path d="M36 6C36.4022 6 36.8044 6.08085 37.1818 6.24257L58.1817 15.2426C59.2848 15.7153 60 16.7999 60 18L60 36H36V6Z" fill="#4A5153"/>
<rect x="48" y="45" width="24" height="24" rx="12" fill="#FF444F"/>
<path fill-rule="evenodd" clip-rule="evenodd" d="M52.5207 57.5382C52.1982 52.9707 55.9707 49.1982 60.5382 49.5207C64.5057 49.7907 67.4982 53.2557 67.4982 57.2382V58.0557C67.4982 59.1357 66.8832 60.1632 65.8782 60.5607C64.6557 61.0482 63.3207 60.5682 62.6532 59.6532C61.7907 60.5307 60.4782 60.9732 59.0982 60.6507C57.6807 60.3132 56.5632 59.1282 56.3082 57.6957C55.8507 55.1307 58.0032 52.9257 60.5532 53.2932C62.4132 53.5557 63.7482 55.2507 63.7482 57.1332V58.0707C63.7482 58.6632 64.2807 59.2482 64.8732 59.2482C65.4657 59.2482 65.9982 58.6632 65.9982 58.0707V57.2457C65.9982 54.4482 64.1832 51.8832 61.4682 51.1932C57.1182 50.0682 53.0682 54.1257 54.1857 58.4757C54.8832 61.1832 57.4482 62.9982 60.2457 62.9982H62.9982C63.4107 62.9982 63.7482 63.3357 63.7482 63.7482C63.7482 64.1607 63.4107 64.4982 62.9982 64.4982H60.2307C56.2557 64.4982 52.7907 61.5057 52.5207 57.5382ZM57.7482 56.9982C57.7482 58.2432 58.7532 59.2482 59.9982 59.2482C61.2432 59.2482 62.2482 58.2432 62.2482 56.9982C62.2482 55.7532 61.2432 54.7482 59.9982 54.7482C58.7532 54.7482 57.7482 55.7532 57.7482 56.9982Z" fill="white"/>
</svg>
