<svg width="96" height="96" viewBox="0 0 96 96" fill="none" xmlns="http://www.w3.org/2000/svg">
<g clip-path="url(#clip0)">
<circle cx="48" cy="48" r="40" fill="#242828"/>
<path d="M54.2947 57.8936C49.3674 53.6867 49.9484 51.8041 43.6963 51.8041C37.4441 51.8041 33.5394 53.2684 35.1198 61.9842C36.7003 70.7001 41.372 66.7722 40.9304 73.4659C40.4888 80.1597 42.0925 81.6007 43.1152 83.2045C44.1379 84.8082 47.1826 89.4566 48.3447 82.9256C49.063 78.0346 51.0683 73.4223 54.1553 69.5612C56.619 66.3073 59.2454 62.1005 54.2947 57.8936ZM37.1652 42.6466C37.4673 39.2998 42.8363 35.8134 46.4621 34.2329C50.0879 32.6525 53.4348 32.0482 52.9932 29.3056C52.5516 26.563 51.5289 24.4712 45.881 24.4712C40.2332 24.4712 42.6968 32.0249 38.0484 27.5159C33.3999 23.0069 39.071 24.169 41.3953 23.1696C43.7195 22.1702 46.0437 17.9401 41.9763 17.6612C37.9089 17.3823 38.7921 19.4043 35.5847 18.2422C32.3773 17.0801 30.9362 22.3096 28.9142 21.5891C26.1538 20.0839 23.6764 18.1099 21.5928 15.7553C16.7491 19.8348 12.8948 24.9607 10.3203 30.7466C10.5885 35.1564 12.3322 39.3478 15.2709 42.6466C15.2709 42.6466 17.4557 47.7367 30.5179 53.9889C30.5179 53.9889 32.9816 54.1283 30.0763 51.2231C27.171 48.3178 23.9403 44.6687 27.5661 42.7861C31.1919 40.9035 32.2146 41.0429 33.0978 44.5293C33.981 48.0156 36.863 45.9703 37.1652 42.6234V42.6466ZM74.3529 57.545C73.9834 57.7798 73.6745 58.0982 73.451 58.4746C73.2274 58.8509 73.0956 59.2746 73.0662 59.7114C73.0368 60.1481 73.1106 60.5856 73.2816 60.9886C73.4526 61.3915 73.7161 61.7485 74.0507 62.0307C75.422 63.2626 78.1878 64.8663 79.071 62.0307C79.9542 59.1952 75.9333 56.4991 74.2599 57.5217L74.3529 57.545ZM90.1344 43.832C90.1344 43.4369 90.1344 43.0418 89.9949 42.6234C89.9949 41.7402 89.7625 40.857 89.5998 39.997C89.5998 39.5554 89.4371 39.1138 89.3441 38.6722C89.1582 37.8123 88.9258 36.9755 88.6934 36.1388C88.6934 35.7669 88.4842 35.3718 88.368 34.9999C88.0116 33.8688 87.6087 32.7687 87.1594 31.6995C86.9734 31.2347 86.741 30.7931 86.5318 30.3515C86.3226 29.9099 85.9508 29.0731 85.6254 28.4456C85.3 27.8181 85.0443 27.3532 84.7189 26.8186L83.859 25.4009C83.4871 24.8198 83.1152 24.2387 82.7201 23.6809L82.0461 22.7745C80.4178 20.5871 78.5808 18.5633 76.5609 16.7315L76.189 16.3829C75.4685 15.7553 74.7247 15.1278 73.8648 14.5467H73.7486C70.4529 11.9952 66.7944 9.95059 62.8944 8.48047C61.9779 10.4094 60.6906 12.1389 59.1059 13.5705C58.559 13.9432 58.1532 14.4889 57.9537 15.12C57.7542 15.751 57.7726 16.4308 58.0058 17.0501C58.2391 17.6695 58.6737 18.1924 59.2399 18.5351C59.8062 18.8777 60.4711 19.0202 61.128 18.9395C61.128 18.9395 59.9659 20.1016 61.128 24.3085C62.2901 28.5153 64.2424 29.445 69.9833 27.0743C72.447 26.0516 74.3296 26.5862 74.0507 29.1196C73.4696 34.4886 69.4022 34.2562 72.447 42.9256C74.3296 48.1551 78.9781 50.2004 80.7212 54.2678C81.6742 56.592 85.3697 58.5676 88.4842 59.9622C88.8096 58.8698 89.0885 57.6379 89.3441 56.6153C89.3441 56.1969 89.5068 55.7553 89.5998 55.3137C89.7625 54.477 89.8787 53.617 89.9949 52.7571C89.9949 52.3619 89.9949 51.9436 90.1344 51.5485C90.1344 50.2934 90.3203 49.015 90.3203 47.7367C90.3203 46.4584 90.3203 45.1103 90.1344 43.832Z" fill="#323738"/>
</g>
<path d="M24 16C24 20.003 22.3583 23.3194 17.5874 29.8571C16.8014 30.9342 15.1986 30.9342 14.4126 29.8571C9.64173 23.3194 8 20.003 8 16C8 11.5817 11.5817 8 16 8C20.4183 8 24 11.5817 24 16Z" fill="#6E6E6E"/>
<circle cx="16" cy="16" r="4" fill="white"/>
<path d="M56 68C56 72.003 54.3583 75.3194 49.5874 81.8571C48.8014 82.9342 47.1986 82.9342 46.4126 81.8571C41.6417 75.3194 40 72.003 40 68C40 63.5817 43.5817 60 48 60C52.4183 60 56 63.5817 56 68Z" fill="#6E6E6E"/>
<circle cx="48" cy="68" r="4" fill="white"/>
<path d="M48 44C48 48.003 46.3583 51.3194 41.5874 57.8571C40.8014 58.9342 39.1986 58.9342 38.4126 57.8571C33.6417 51.3194 32 48.003 32 44C32 39.5817 35.5817 36 40 36C44.4183 36 48 39.5817 48 44Z" fill="#6E6E6E"/>
<circle cx="40" cy="44" r="4" fill="white"/>
<path d="M88 16C88 20.003 86.3583 23.3194 81.5874 29.8571C80.8014 30.9342 79.1986 30.9342 78.4126 29.8571C73.6417 23.3194 72 20.003 72 16C72 11.5817 75.5817 8 80 8C84.4183 8 88 11.5817 88 16Z" fill="#6E6E6E"/>
<circle cx="80" cy="16" r="4" fill="white"/>
<path d="M84 44C84 48.003 82.3583 51.3194 77.5874 57.8571C76.8014 58.9342 75.1986 58.9342 74.4126 57.8571C69.6417 51.3194 68 48.003 68 44C68 39.5817 71.5817 36 76 36C80.4183 36 84 39.5817 84 44Z" fill="#6E6E6E"/>
<circle cx="76" cy="44" r="4" fill="white"/>
<defs>
<clipPath id="clip0">
<rect x="8" y="8" width="80" height="80" rx="40" fill="white"/>
</clipPath>
</defs>
</svg>
