<svg width="96" height="96" viewBox="0 0 96 96" fill="none" xmlns="http://www.w3.org/2000/svg">
<rect x="2" y="30" width="92" height="36" rx="6" fill="#242828" stroke="#323738" stroke-width="4"/>
<path fill-rule="evenodd" clip-rule="evenodd" d="M13.1805 48.4718L10 47.3991L11.1443 43.9255L14.1911 44.9531V42H17.8096V44.9529L20.8557 43.9255L22 47.3991L18.8201 48.4716L21.1243 51.969L18.1135 54L16.0003 50.7927L13.8872 54L10.8764 51.9689L13.1805 48.4718ZM29.1805 48.4718L26 47.3991L27.1443 43.9255L30.1911 44.9531V42H33.8096V44.9529L36.8557 43.9255L38 47.3991L34.8201 48.4716L37.1243 51.969L34.1135 54L32.0003 50.7927L29.8872 54L26.8764 51.9689L29.1805 48.4718ZM42 47.3991L45.1805 48.4718L42.8764 51.9689L45.8872 54L48.0004 50.7927L50.1135 54L53.1243 51.969L50.8201 48.4716L54 47.3991L52.8557 43.9255L49.8096 44.9529V42H46.1911V44.9531L43.1443 43.9255L42 47.3991ZM61.1805 48.4718L58 47.3991L59.1443 43.9255L62.1911 44.9531V42H65.8096V44.9529L68.8557 43.9255L70 47.3991L66.8201 48.4716L69.1243 51.969L66.1135 54L64.0004 50.7927L61.8872 54L58.8764 51.9689L61.1805 48.4718ZM74 47.3991L77.1805 48.4718L74.8764 51.9689L77.8872 54L80.0004 50.7927L82.1135 54L85.1243 51.969L82.8201 48.4716L86 47.3991L84.8557 43.9255L81.8096 44.9529V42H78.1911V44.9531L75.1443 43.9255L74 47.3991Z" fill="#6E6E6E"/>
</svg>
