<svg width="96" height="96" viewBox="0 0 96 96" fill="none" xmlns="http://www.w3.org/2000/svg">
<rect x="2" y="30" width="92" height="36" rx="6" fill="#242828" stroke="#323738" stroke-width="4"/>
<path fill-rule="evenodd" clip-rule="evenodd" d="M13.1805 48.4718L10 47.3991L11.1443 43.9255L14.1911 44.9531V42H17.8096V44.9529L20.8557 43.9255L22 47.3991L18.8201 48.4716L21.1243 51.969L18.1135 54L16.0003 50.7927L13.8872 54L10.8764 51.9689L13.1805 48.4718ZM29.1805 48.4718L26 47.3991L27.1443 43.9255L30.1911 44.9531V42H33.8096V44.9529L36.8557 43.9255L38 47.3991L34.8201 48.4716L37.1243 51.969L34.1135 54L32.0003 50.7927L29.8872 54L26.8764 51.9689L29.1805 48.4718ZM42 47.3991L45.1805 48.4718L42.8764 51.9689L45.8872 54L48.0004 50.7927L50.1135 54L53.1243 51.969L50.8201 48.4716L54 47.3991L52.8557 43.9255L49.8096 44.9529V42H46.1911V44.9531L43.1443 43.9255L42 47.3991ZM61.1805 48.4718L58 47.3991L59.1443 43.9255L62.1911 44.9531V42H65.8096V44.9529L68.8557 43.9255L70 47.3991L66.8201 48.4716L69.1243 51.969L66.1135 54L64.0004 50.7927L61.8872 54L58.8764 51.9689L61.1805 48.4718ZM74 47.3991L77.1805 48.4718L74.8764 51.9689L77.8872 54L80.0004 50.7927L82.1135 54L85.1243 51.969L82.8201 48.4716L86 47.3991L84.8557 43.9255L81.8096 44.9529V42H78.1911V44.9531L75.1443 43.9255L74 47.3991Z" fill="#6E6E6E"/>
<rect x="64" y="60" width="32" height="32" rx="16" fill="#FF444F"/>
<path d="M74.8571 75.125C75.3305 75.125 75.7143 75.5168 75.7143 76C75.7143 78.4162 77.6331 80.375 80 80.375C80.9463 80.375 81.8411 80.0606 82.5702 79.5018L80.8571 79.5C80.3838 79.5 80 79.1082 80 78.625C80 78.1418 80.3838 77.75 80.8571 77.75H84.2857C84.7591 77.75 85.1429 78.1418 85.1429 78.625V82.125C85.1429 82.6082 84.7591 83 84.2857 83C83.8123 83 83.4286 82.6082 83.4286 82.125L83.4289 81.0272C82.4403 81.7309 81.2514 82.125 80 82.125C76.6863 82.125 74 79.3827 74 76C74 75.5168 74.3838 75.125 74.8571 75.125ZM75.7143 69C76.1877 69 76.5714 69.3918 76.5714 69.875L76.5713 70.9727C77.5614 70.2678 78.7502 69.875 80 69.875C83.3137 69.875 86 72.6173 86 76C86 76.4832 85.6162 76.875 85.1429 76.875C84.6695 76.875 84.2857 76.4832 84.2857 76C84.2857 73.5838 82.3669 71.625 80 71.625C79.0542 71.625 78.1592 71.9387 77.4286 72.4993L79.1429 72.5C79.6162 72.5 80 72.8918 80 73.375C80 73.8582 79.6162 74.25 79.1429 74.25H75.7143C75.2409 74.25 74.8571 73.8582 74.8571 73.375V69.875C74.8571 69.3918 75.2409 69 75.7143 69Z" fill="white"/>
</svg>
