<svg width="96" height="96" viewBox="0 0 96 96" fill="none" xmlns="http://www.w3.org/2000/svg">
<rect x="25" y="5" width="46" height="86" rx="7" fill="#323738" stroke="#242828" stroke-width="2"/>
<path fill-rule="evenodd" clip-rule="evenodd" d="M33 62.6995L34.5902 63.2359L33.4382 64.9845L34.9436 66L36.0002 64.3963L37.0568 66L38.5622 64.9845L37.4101 63.2358L39 62.6995L38.4279 60.9627L36.9048 61.4764V60H35.0955V61.4766L33.5721 60.9627L33 62.6995ZM41 62.6995L42.5902 63.2359L41.4382 64.9845L42.9436 66L44.0002 64.3963L45.0568 66L46.5622 64.9845L45.4101 63.2358L47 62.6995L46.4279 60.9627L44.9048 61.4764V60H43.0955V61.4766L41.5721 60.9627L41 62.6995ZM50.5902 63.2359L49 62.6995L49.5721 60.9627L51.0955 61.4766V60H52.9048V61.4764L54.4279 60.9627L55 62.6995L53.4101 63.2358L54.5622 64.9845L53.0568 66L52.0002 64.3963L50.9436 66L49.4382 64.9845L50.5902 63.2359ZM57 62.6995L58.5902 63.2359L57.4382 64.9845L58.9436 66L60.0002 64.3963L61.0568 66L62.5622 64.9845L61.4101 63.2358L63 62.6995L62.4279 60.9627L60.9048 61.4764V60H59.0955V61.4766L57.5721 60.9627L57 62.6995Z" fill="#FF444F"/>
<rect x="38" y="36" width="20" height="16" rx="4" fill="#6E6E6E"/>
<path d="M42 38V32C42 28.6863 44.6863 26 48 26V26C51.3137 26 54 28.6863 54 32V38" stroke="#6E6E6E" stroke-width="4"/>
<rect x="40" y="86" width="16" height="2" rx="1" fill="#242828"/>
</svg>
