<svg width="96" height="96" viewBox="0 0 96 96" fill="none" xmlns="http://www.w3.org/2000/svg">
<path fill-rule="evenodd" clip-rule="evenodd" d="M20.281 32C23.4284 26.5592 28.1317 22.131 33.7825 19.324C33.5225 19.8449 33.2721 20.3772 33.031 20.9196C31.5905 24.1609 30.4206 27.906 29.5727 32H20.281ZM36.4178 40H48V32H37.7665C38.4613 29.0706 39.3352 26.433 40.3415 24.1687C41.6535 21.2169 43.112 19.0757 44.5296 17.7266C45.9266 16.3972 47.0924 16 48 16V8C25.9086 8 8 25.9086 8 48C8 70.0914 25.9086 88 48 88C70.0914 88 88 70.0914 88 48H80C80 50.7624 79.65 53.443 78.9919 56H67.6227C67.8709 53.4083 68 50.7315 68 48H60C60 50.7712 59.8539 53.4497 59.5822 56H36.4178C36.1461 53.4497 36 50.7712 36 48C36 45.2288 36.1461 42.5503 36.4178 40ZM28.3773 40H17.0081C16.35 42.557 16 45.2376 16 48C16 50.7624 16.35 53.443 17.0081 56H28.3773C28.1291 53.4083 28 50.7315 28 48C28 45.2685 28.1291 42.5917 28.3773 40ZM29.5727 64H20.281C23.4284 69.4408 28.1317 73.869 33.7825 76.676C33.5225 76.1551 33.2721 75.6228 33.031 75.0804C31.5905 71.8391 30.4206 68.094 29.5727 64ZM62.2175 76.676C67.8683 73.869 72.5716 69.4408 75.719 64H66.4273C65.5794 68.094 64.4095 71.8391 62.969 75.0804C62.7279 75.6228 62.4775 76.1551 62.2175 76.676ZM58.2335 64C57.5387 66.9294 56.6648 69.567 55.6585 71.8313C54.3465 74.7831 52.888 76.9243 51.4704 78.2734C50.0734 79.6028 48.9076 80 48 80C47.0924 80 45.9266 79.6028 44.5296 78.2734C43.112 76.9243 41.6535 74.7831 40.3415 71.8313C39.3352 69.567 38.4613 66.9294 37.7665 64H58.2335Z" fill="#3E3E3E"/>
<path fill-rule="evenodd" clip-rule="evenodd" d="M62.8284 9.17157C61.2663 7.60948 58.7337 7.60948 57.1716 9.17157C55.6095 10.7337 55.6095 13.2663 57.1716 14.8284L66.3431 24L57.1716 33.1716C55.6095 34.7337 55.6095 37.2663 57.1716 38.8284C58.7337 40.3905 61.2663 40.3905 62.8284 38.8284L72 29.6569L81.1716 38.8284C82.7337 40.3905 85.2663 40.3905 86.8284 38.8284C88.3905 37.2663 88.3905 34.7337 86.8284 33.1716L77.6569 24L86.8284 14.8284C88.3905 13.2663 88.3905 10.7337 86.8284 9.17157C85.2663 7.60948 82.7337 7.60948 81.1716 9.17157L72 18.3431L62.8284 9.17157Z" fill="#CC2E3D"/>
</svg>
