<svg width="74" height="92" viewBox="0 0 74 92" fill="none" xmlns="http://www.w3.org/2000/svg">
<path d="M73.6017 52.1457C73.5952 53.2293 73.553 55.4275 72.171 57.5497C71.8436 58.0525 71.5171 58.4335 71.2788 58.6886C68.8836 60.8821 66.4883 63.0766 64.0931 65.271C64.7433 64.6621 65.3663 63.8956 65.8485 62.9359C66.9649 60.7114 66.7276 58.6305 66.5643 57.196C66.1037 53.1599 63.9214 50.4475 62.9523 49.2757C61.9859 48.1067 59.419 45.0848 54.9964 43.898C53.4512 43.4833 50.8833 42.7947 48.0828 43.9599C47.6287 44.1485 46.5826 44.6307 45.5347 45.5689L53.0806 38.4593C54.0319 37.8916 55.9402 36.9328 58.4846 36.869C60.6049 36.8165 62.1661 37.4104 63.2178 37.8232C63.9496 38.1102 67.5654 39.5954 70.4222 43.5096C71.2581 44.6551 73.628 47.9013 73.6017 52.1457Z" fill="#FF444F"/>
<path d="M64.0931 65.4587C64.0424 65.4587 63.9927 65.4381 63.9552 65.3987C63.8848 65.3227 63.8895 65.2045 63.9646 65.1341C64.6776 64.4661 65.2555 63.6987 65.6805 62.8515C66.7717 60.6777 66.5437 58.6784 66.3776 57.2186C65.9132 53.1505 63.6568 50.4223 62.8068 49.3949C61.9643 48.3761 59.4002 45.2734 54.9466 44.0791C53.4314 43.6729 50.8955 42.9917 48.1541 44.1326C47.5283 44.3925 46.5873 44.8766 45.6594 45.7078C45.5825 45.7763 45.4652 45.7707 45.3958 45.6947C45.3264 45.6187 45.3301 45.5014 45.4052 45.4311L52.9511 38.3214C52.9614 38.312 52.9717 38.3036 52.9839 38.297C54.6764 37.2866 56.5772 36.7283 58.4789 36.6805C60.6818 36.627 62.3115 37.265 63.2853 37.6478C64.5875 38.1582 67.9031 39.7409 70.5723 43.398C71.3744 44.4975 73.8147 47.8413 73.7875 52.1457C73.7819 53.1308 73.7678 55.4379 72.3267 57.6511C72.0593 58.062 71.7516 58.4542 71.4148 58.8154C71.411 58.8191 71.4082 58.8229 71.4045 58.8257C69.2091 60.8353 67.0146 62.8468 64.8193 64.8573L64.2188 65.4081C64.1832 65.4409 64.1372 65.4578 64.0922 65.4578L64.0931 65.4587ZM51.3655 43.1268C52.846 43.1268 54.1266 43.4702 55.0442 43.717C59.6132 44.9432 62.2345 48.1143 63.0958 49.1566C63.9646 50.2074 66.2725 52.9976 66.7501 57.1754C66.9124 58.5986 67.1563 60.7471 66.0155 63.0204C65.9357 63.1789 65.8513 63.3347 65.7612 63.4876C67.556 61.8429 69.3508 60.1992 71.1455 58.5555C71.4664 58.2112 71.7582 57.8387 72.0124 57.4475C73.3934 55.3262 73.4066 53.0971 73.4131 52.1448C73.4394 47.9632 71.1371 44.809 70.2702 43.6213C67.6583 40.043 64.4196 38.4968 63.1483 37.9977C62.2008 37.6262 60.6152 37.0032 58.4883 37.0567C56.657 37.1027 54.8265 37.6393 53.1931 38.6104L47.4007 44.0679C47.624 43.9543 47.8295 43.8615 48.0096 43.7864C49.1889 43.2957 50.326 43.1268 51.3646 43.1268H51.3655Z" fill="white"/>
<path d="M67.6085 62.0502C67.6048 64.1508 67.601 66.2505 67.5973 68.3511C65.3024 70.4977 63.0085 72.6434 60.7137 74.79C60.7137 72.299 60.7109 69.8072 60.71 67.3153C61.2635 67.1174 62.7374 66.5385 64.0931 65.271C65.2649 64.1977 66.4367 63.1235 67.6085 62.0502Z" fill="#FF444F"/>
<path d="M60.7139 74.9776C60.6885 74.9776 60.6632 74.9729 60.6388 74.9616C60.5703 74.9316 60.5262 74.8641 60.5262 74.79L60.5225 67.3153C60.5225 67.2356 60.5722 67.1652 60.6472 67.139C61.5141 66.8284 62.7938 66.2289 63.9656 65.134L67.4829 61.9123C67.5383 61.8616 67.6171 61.8485 67.6856 61.8794C67.7541 61.9095 67.7972 61.977 67.7972 62.0511L67.786 68.3521C67.786 68.4037 67.7644 68.4534 67.7269 68.489L60.8433 74.9279C60.8077 74.9607 60.7617 74.9785 60.7148 74.9785L60.7139 74.9776ZM60.8977 67.4467L60.9015 74.3575L67.4098 68.2695L67.4201 62.4771L64.2199 65.4089C63.0584 66.4954 61.7937 67.1118 60.8977 67.4458V67.4467Z" fill="white"/>
<path d="M67.5895 74.1993C65.2909 76.359 62.9932 78.5197 60.6947 80.6803C59.6983 79.4438 58.7019 78.2082 57.7056 76.9717L60.7144 74.7903C62.1188 73.4769 63.5224 72.1643 64.9259 70.8509C65.8144 71.9664 66.7019 73.0828 67.5895 74.1993Z" fill="#FF444F"/>
<path d="M60.6944 80.8681C60.6944 80.8681 60.686 80.8681 60.6813 80.8681C60.6287 80.8643 60.5809 80.839 60.548 80.7986L57.5589 77.0899C57.527 77.0496 57.512 76.998 57.5186 76.9473C57.5252 76.8967 57.5524 76.8507 57.5946 76.8207L60.594 74.6459L60.8417 74.4142C62.1608 73.1805 63.479 71.9477 64.7971 70.7149C64.8356 70.6792 64.8872 70.6605 64.9388 70.6652C64.9913 70.6689 65.0392 70.6943 65.072 70.7355C65.9605 71.851 66.848 72.9675 67.7356 74.084C67.7965 74.16 67.7881 74.2707 67.7168 74.3373C66.1547 75.8046 64.5935 77.2729 63.0314 78.7412L60.822 80.8183C60.7873 80.8512 60.7413 80.869 60.6935 80.869L60.6944 80.8681ZM57.9755 77.0074L60.7132 80.4046L62.7753 78.4663C64.2952 77.0374 65.8151 75.6085 67.335 74.1806C66.5253 73.1626 65.7156 72.1438 64.906 71.1268C63.6375 72.3136 62.3681 73.5004 61.0988 74.6872L60.8426 74.9274C60.837 74.933 60.8314 74.9377 60.8248 74.9424L57.9755 77.0074Z" fill="white"/>
<path d="M67.5845 80.0594C65.284 82.2248 62.9836 84.3901 60.6831 86.5555C59.6924 85.3171 58.7007 84.0787 57.71 82.8402C58.7044 82.1206 59.6999 81.4001 60.6944 80.6796C62.1026 79.3558 63.5118 78.031 64.92 76.7072C65.8085 77.8246 66.696 78.942 67.5845 80.0594Z" fill="#FF444F"/>
<path d="M60.6829 86.7431C60.6829 86.7431 60.6745 86.7431 60.6698 86.7431C60.6173 86.7394 60.5694 86.7141 60.5366 86.6728L57.5634 82.9575C57.5315 82.9172 57.5175 82.8656 57.524 82.8149C57.5306 82.7642 57.5588 82.7183 57.6 82.6882C58.5917 81.9705 59.5834 81.2528 60.575 80.5342L64.7922 76.5703C64.8307 76.5346 64.8823 76.5159 64.9339 76.5196C64.9865 76.5234 65.0343 76.5487 65.0671 76.59L67.7316 79.9422C67.7926 80.0181 67.7842 80.1288 67.7138 80.1955L60.8124 86.6915C60.7777 86.7244 60.7317 86.7422 60.6839 86.7422L60.6829 86.7431ZM57.9791 82.8768L60.7017 86.2797L67.3291 80.0416L64.8992 76.984L60.8218 80.8165C60.8162 80.8222 60.8096 80.8269 60.803 80.8316C59.862 81.5136 58.9191 82.1957 57.9781 82.8768H57.9791Z" fill="white"/>
<path d="M57.6561 53.5661C57.6448 53.7969 57.6232 54.1581 57.415 54.5549C57.3662 54.6469 57.1063 55.1253 56.5574 55.4237C55.745 55.8646 54.8828 55.5963 54.4775 55.4697C53.5674 55.1863 53.0308 54.6075 52.7587 54.3082C52.4913 54.0117 51.7792 53.2236 51.706 52.0659C51.6891 51.8023 51.6666 51.3444 51.9012 50.834C51.9781 50.6689 52.2605 50.0788 52.921 49.7748C53.3713 49.5675 53.7766 49.5937 54.0872 49.6181C55.2806 49.711 56.093 50.4428 56.352 50.6821C56.5481 50.8641 57.1241 51.4317 57.4487 52.3445C57.5416 52.6072 57.6833 53.0191 57.6561 53.5661Z" fill="#FF444F"/>
<path d="M55.5611 55.8534C55.0761 55.8534 54.6567 55.722 54.4221 55.6489C53.4492 55.3458 52.8891 54.7304 52.6208 54.4348C52.3393 54.1234 51.5972 53.2996 51.5194 52.0781C51.5034 51.8332 51.4706 51.3228 51.7314 50.7562C52.0447 50.0825 52.5091 49.7589 52.8431 49.605C53.3479 49.3723 53.802 49.408 54.1022 49.4314C54.9522 49.4971 55.7516 49.8724 56.4796 50.5441C56.7742 50.8181 57.3146 51.4073 57.6261 52.2817C57.7124 52.5265 57.8738 52.9816 57.8437 53.5755C57.8334 53.7941 57.8128 54.2003 57.581 54.6422C57.4825 54.8279 57.1945 55.2905 56.6466 55.5888C56.2798 55.7877 55.9035 55.8534 55.5602 55.8534H55.5611ZM53.7523 49.7889C53.5299 49.7889 53.2728 49.8199 52.9998 49.9446C52.7231 50.0722 52.3365 50.3434 52.0719 50.9128C51.8515 51.3923 51.8796 51.822 51.8937 52.0537C51.9622 53.1448 52.6414 53.8973 52.8976 54.1815C53.1452 54.4536 53.6584 55.0184 54.5338 55.2905C54.9203 55.4115 55.7243 55.6629 56.4683 55.2586C56.9262 55.01 57.1673 54.6215 57.2499 54.4667C57.4431 54.099 57.4591 53.7593 57.4694 53.5567C57.4957 53.0369 57.3559 52.6429 57.2724 52.4065C56.9881 51.6081 56.4946 51.0686 56.2244 50.819C55.5602 50.2054 54.8359 49.8639 54.0731 49.8048C53.9774 49.7973 53.8695 49.7889 53.7523 49.7889Z" fill="white"/>
<path d="M20.551 20.4107C20.4975 18.9509 20.3296 14.4222 23.5176 11.0597C26.6962 7.70657 31.2108 7.62494 32.1884 7.60712C41.8509 7.43168 52.1551 18.2406 51.2788 27.9866C51.2019 28.8404 50.7234 34.1656 46.5109 37.0815C43.0687 39.4645 39.0973 38.8781 37.4517 38.6351C28.931 37.378 20.8766 29.2213 20.551 20.4097V20.4107Z" fill="#303541"/>
<path d="M40.3158 39.0705C39.1111 39.0705 38.0922 38.9204 37.4242 38.8218C33.2596 38.2073 29.0199 35.8975 25.7915 32.4853C22.4478 28.9501 20.5198 24.6645 20.3631 20.4172C20.3078 18.9161 20.1389 14.3499 23.3813 10.9302C25.466 8.73108 28.593 7.48421 32.1854 7.41948C36.8416 7.33504 41.9764 9.81563 45.9234 14.0544C47.7744 16.0424 49.2624 18.3269 50.225 20.6593C51.2608 23.168 51.6783 25.6383 51.4662 28.0035C51.2964 29.8874 50.4858 34.5587 46.6176 37.2363C44.4889 38.7102 42.1809 39.0705 40.3158 39.0705ZM32.4171 7.79288C32.342 7.79288 32.267 7.79288 32.1919 7.79476C28.7009 7.85855 25.6686 9.0632 23.6534 11.1892C20.5198 14.4944 20.684 18.9424 20.7375 20.4041C20.8904 24.5603 22.7827 28.7588 26.0636 32.2273C29.2347 35.5794 33.3956 37.848 37.4787 38.4503C39.1374 38.6952 43.0225 39.2684 46.4037 36.9276C50.1406 34.341 50.9277 29.802 51.0919 27.9697C51.2992 25.6655 50.8902 23.2544 49.8779 20.8019C48.9312 18.5108 47.4686 16.2657 45.6475 14.3096C41.8356 10.2153 36.9073 7.79194 32.4161 7.79194L32.4171 7.79288Z" fill="white"/>
<path d="M58.0078 23.3951C57.4843 26.1102 56.1473 28.0251 55.3227 29.029C52.8186 31.3529 50.3146 33.6768 47.8096 36.0016C50.8278 33.0107 51.2106 28.7428 51.279 27.9866C52.1553 18.2406 41.8511 7.43168 32.1886 7.60713C31.2739 7.62402 27.2612 7.69626 24.1445 10.4536C26.6551 8.06215 29.1658 5.67163 31.6764 3.28017C32.8379 2.57089 35.2387 1.32403 38.5102 1.16078C42.4234 0.966574 45.2774 2.49771 47.0759 3.45655C47.9119 3.90313 51.1852 5.72323 54.0158 9.49666C54.9202 10.7013 57.4364 14.1379 58.0603 19.0512C58.1926 20.0908 58.3643 21.5412 58.0078 23.3951Z" fill="#282C38"/>
<path d="M47.8097 36.1893C47.76 36.1893 47.7112 36.1696 47.6746 36.1311C47.6033 36.057 47.6052 35.9397 47.6784 35.8684C50.355 33.2161 50.9574 29.4633 51.0925 27.9726C51.2998 25.6655 50.8917 23.2544 49.8784 20.8029C48.9318 18.5118 47.4692 16.2667 45.649 14.3115C41.7734 10.1487 36.7427 7.71314 32.1925 7.79477C28.1751 7.86888 25.6664 9.3578 24.2694 10.5943C24.1925 10.6619 24.0762 10.6563 24.0067 10.5803C23.9373 10.5043 23.9411 10.3879 24.0152 10.3176L31.547 3.14413C31.5564 3.13475 31.5677 3.12724 31.5789 3.11973C33.0444 2.2247 35.4349 1.12607 38.5009 0.973141C42.4498 0.777996 45.3873 2.34291 47.1417 3.27829L47.1642 3.29049C48.6794 4.10015 51.6038 5.9681 54.166 9.38313C56.4467 12.421 57.8203 15.6653 58.2462 19.0269C58.3719 20.0138 58.5614 21.5065 58.1918 23.4298C57.7959 25.4826 56.8539 27.4594 55.4673 29.1472C55.4616 29.1537 55.456 29.1603 55.4504 29.1659L47.9373 36.1386C47.9017 36.1724 47.8557 36.1883 47.8097 36.1883V36.1893ZM32.4149 7.41761C37.0111 7.41761 42.0417 9.88601 45.9239 14.0554C47.775 16.0434 49.262 18.327 50.2256 20.6593C51.2613 23.1671 51.6788 25.6383 51.4668 28.0035C51.3345 29.469 50.8973 31.928 49.49 34.1872L55.1868 28.9004C56.5293 27.2633 57.4412 25.3475 57.825 23.3604C58.1833 21.4952 57.9985 20.0392 57.8756 19.0756C57.4572 15.7798 56.1081 12.5955 53.8667 9.61018C51.3477 6.25237 48.4758 4.41726 46.9888 3.62261L46.9663 3.61041C45.134 2.63375 42.3663 1.15797 38.5206 1.34842C35.5447 1.49665 33.2217 2.55963 31.7928 3.43028L26.0267 8.92248C27.5128 8.1222 29.5308 7.46921 32.185 7.42043C32.2619 7.41855 32.3389 7.41855 32.4167 7.41855L32.4149 7.41761Z" fill="white"/>
<path d="M48.6701 64.0926C48.6682 68.412 48.6664 72.7324 48.6645 77.0528C34.1497 73.0927 19.6348 69.1326 5.11999 65.1715C5.05995 62.9911 5.23914 58.3011 8.04717 53.4168C11.5917 47.251 17.0876 44.6653 19.3581 43.7741C24.1654 41.8883 28.33 42.1782 30.3781 42.3442C35.5476 42.7617 39.6071 44.6522 42.2726 45.8934C43.0231 46.2434 43.708 46.5886 44.3216 46.9133C44.1902 47.0953 44.0626 47.2867 43.9416 47.4893C43.7399 47.8261 43.0353 49.057 42.7848 50.8124C42.6582 51.6962 42.6966 52.3689 42.7313 52.9402C42.8664 55.1159 43.4781 56.8422 43.8797 57.7963C44.0579 58.2195 44.862 60.0762 46.5817 62.0614C47.3566 62.9564 48.1006 63.6263 48.6701 64.0926Z" fill="#303541"/>
<path d="M48.6646 77.2405C48.6477 77.2405 48.6318 77.2386 48.6149 77.234C34.1 73.2738 19.5852 69.3137 5.07038 65.3526C4.99064 65.3311 4.93435 65.2598 4.93247 65.1772C4.85178 62.2519 5.29837 57.8217 7.88497 53.324C11.2737 47.4284 16.4854 44.7011 19.2897 43.5996C24.2387 41.6585 28.5516 42.0084 30.3932 42.1576C35.5955 42.5779 39.6607 44.4712 42.3515 45.7237C43.0345 46.0417 43.7269 46.387 44.4099 46.7482C44.4577 46.7735 44.4925 46.8186 44.5046 46.8711C44.5168 46.9236 44.5056 46.9799 44.4737 47.0231C44.3367 47.2135 44.2147 47.3974 44.1031 47.586C43.7757 48.133 43.193 49.2823 42.9707 50.8397C42.845 51.7169 42.8863 52.3896 42.9191 52.93C43.0195 54.5418 43.4116 56.1996 44.0534 57.7242C44.333 58.3865 45.152 60.1241 46.7244 61.9395C47.3511 62.6638 48.0463 63.3393 48.7903 63.9482C48.8335 63.9838 48.8588 64.0373 48.8588 64.0936L48.8532 77.0538C48.8532 77.112 48.826 77.1673 48.7791 77.203C48.7462 77.2283 48.7059 77.2415 48.6655 77.2415L48.6646 77.2405ZM5.30399 65.0271C19.695 68.9544 34.086 72.8807 48.477 76.8071L48.4826 64.1808C47.748 63.5729 47.0612 62.9021 46.4401 62.1834C44.8321 60.3277 43.9933 58.5479 43.7072 57.8686C43.0495 56.3047 42.647 54.6047 42.5448 52.9516C42.511 52.3943 42.4688 51.7 42.6001 50.7853C42.8318 49.1631 43.4398 47.9632 43.7813 47.3927C43.8639 47.2539 43.9511 47.1178 44.0459 46.9799C43.4295 46.6572 42.8074 46.3495 42.1939 46.0633C39.5275 44.8221 35.4989 42.9457 30.3632 42.531C28.5469 42.3837 24.294 42.0394 19.4267 43.9486C16.6674 45.0313 11.5421 47.7136 8.20959 53.5107C5.70836 57.8621 5.24301 62.1506 5.30399 65.028V65.0271Z" fill="white"/>
<path d="M51.0691 40.3549C49.2246 42.0934 47.3791 43.8309 45.5346 45.5694C45.1181 45.9418 44.7015 46.3865 44.3216 46.9138C43.708 46.5892 43.0231 46.2439 42.2725 45.894C39.6071 44.6528 35.5475 42.7623 30.3781 42.3448C28.33 42.1787 24.1653 41.8888 19.358 43.7746C17.8935 44.3497 15.0874 45.6294 12.3281 48.1213C14.6098 45.8865 16.8915 43.6517 19.1732 41.4179C19.6142 40.9966 20.254 40.4271 21.0806 39.8276C23.4945 38.0769 25.7293 37.3536 27.0409 36.9408C27.9791 36.6452 29.1791 36.3328 30.6023 36.118C32.7452 37.4024 35.0803 38.2862 37.4511 38.6361C38.9232 38.8538 42.2547 39.3444 45.4052 37.7401C45.772 37.8743 46.1848 38.0319 46.6342 38.212C47.9242 38.728 49.0501 39.1831 50.3786 39.943C50.584 40.0603 50.8158 40.1973 51.0691 40.3549Z" fill="#282C38"/>
<path d="M12.3282 48.3088C12.2784 48.3088 12.2287 48.2891 12.1912 48.2497C12.1208 48.1756 12.1236 48.0583 12.1968 47.987C14.4785 45.7523 16.7602 43.5175 19.0419 41.2836C19.6461 40.7066 20.2944 40.1653 20.9699 39.6756C23.4571 37.8714 25.7519 37.1499 26.9837 36.7615C28.1462 36.3956 29.3536 36.116 30.5733 35.9322C30.6164 35.9256 30.6605 35.934 30.6981 35.9566C32.8597 37.2522 35.2042 38.1144 37.4775 38.4503C38.896 38.6604 42.2191 39.1511 45.3189 37.5731C45.3658 37.5496 45.4193 37.5459 45.4681 37.5637C45.8621 37.7082 46.2777 37.8677 46.7027 38.0375C47.9374 38.531 49.1036 38.9972 50.4705 39.7797C50.7023 39.912 50.9359 40.0518 51.1667 40.1953C51.2164 40.2263 51.2483 40.2779 51.2539 40.3361C51.2596 40.3942 51.238 40.4515 51.1958 40.4909C50.2613 41.3709 49.3278 42.2509 48.3934 43.1309C47.4824 43.9885 46.5714 44.8469 45.6614 45.7053C45.212 46.1069 44.8132 46.5497 44.4717 47.0226C44.4173 47.0986 44.3141 47.122 44.2315 47.0789C43.5542 46.7205 42.8674 46.379 42.191 46.0628C39.5246 44.8216 35.496 42.9452 30.3603 42.5305C28.544 42.3832 24.2911 42.0389 19.4238 43.9481C17.6487 44.6452 14.9983 45.9587 12.4511 48.2591C12.4154 48.292 12.3704 48.3079 12.3254 48.3079L12.3282 48.3088ZM27.7484 42.0342C28.8658 42.0342 29.7702 42.1074 30.3931 42.158C35.5954 42.5783 39.6606 44.4716 42.3514 45.7241C42.9865 46.0206 43.6302 46.3386 44.2663 46.6726C44.6012 46.227 44.9849 45.8086 45.4099 45.4295C46.3171 44.5748 47.2272 43.7164 48.1382 42.8589C49.0126 42.0351 49.8879 41.2105 50.7623 40.3867C50.6038 40.2901 50.4443 40.1963 50.2857 40.1062C48.9413 39.3369 47.7864 38.8753 46.5648 38.3865C46.1708 38.2289 45.7852 38.0797 45.4174 37.9446C42.2322 39.533 38.8679 39.0357 37.424 38.8218C35.1226 38.4822 32.7518 37.6153 30.5639 36.314C29.3865 36.4951 28.2203 36.7662 27.0973 37.1199C25.8851 37.5018 23.6287 38.212 21.1904 39.9795C20.528 40.4599 19.8929 40.989 19.3027 41.5538C17.8082 43.0165 16.3136 44.481 14.8181 45.9446C16.506 44.8141 18.0934 44.0691 19.2887 43.6C22.5639 42.3156 25.5614 42.0342 27.7474 42.0342H27.7484Z" fill="white"/>
<path d="M66.5626 57.1963C66.102 53.1602 63.9197 50.4479 62.9515 49.2761C61.9852 48.1071 59.4182 45.0851 54.9956 43.8983C53.4494 43.4836 50.8825 42.795 48.082 43.9602C47.3849 44.2501 45.2956 45.2287 43.9408 47.4897C43.7391 47.8265 43.0345 49.0575 42.784 50.8119C42.6574 51.6957 42.6958 52.3693 42.7315 52.9397C42.8666 55.1154 43.4774 56.8417 43.8798 57.7958C44.0581 58.219 44.8621 60.0756 46.5818 62.0609C47.3568 62.9559 48.1008 63.6258 48.6703 64.0921C48.6675 70.5112 48.6646 76.9313 48.6618 83.3504C50.6658 85.8526 52.6698 88.3548 54.6738 90.8569C56.6768 89.4234 58.6808 87.9898 60.6839 86.5553C59.6931 85.3169 58.7015 84.0785 57.7107 82.84C58.7052 82.1195 59.7006 81.399 60.6951 80.6784C59.6988 79.4419 58.7024 78.2063 57.706 76.9697C58.709 76.2426 59.7119 75.5155 60.7148 74.7884C60.713 72.2966 60.712 69.8057 60.7101 67.3138C61.5292 67.0202 64.3644 65.8934 65.8496 62.9343C66.966 60.7099 66.7287 58.6289 66.5645 57.1944L66.5626 57.1963ZM57.6554 53.5664C57.6441 53.7972 57.6225 54.1584 57.4133 54.5553C57.3645 54.6472 57.1047 55.1257 56.5558 55.4241C55.7443 55.865 54.8821 55.5967 54.4758 55.47C53.5658 55.1867 53.0291 54.6078 52.7571 54.3076C52.4897 54.0121 51.7766 53.224 51.7044 52.0663C51.6875 51.8026 51.665 51.3448 51.8995 50.8344C51.9755 50.6693 52.2589 50.0792 52.9194 49.7752C53.3697 49.5678 53.775 49.5941 54.0846 49.6185C55.278 49.7114 56.0914 50.4432 56.3494 50.6824C56.5455 50.8644 57.1215 51.433 57.4462 52.3449C57.539 52.6076 57.6807 53.0185 57.6544 53.5664H57.6554Z" fill="#FF7E88"/>
<path d="M54.672 91.0455C54.6166 91.0455 54.5622 91.0211 54.5256 90.9751L48.5136 83.4686C48.4874 83.4358 48.4724 83.3936 48.4724 83.3513L48.4808 64.1812C47.7481 63.5751 47.0613 62.9034 46.4384 62.1847C44.8284 60.3271 43.9906 58.5483 43.7054 57.8699C43.0477 56.3069 42.6452 54.6069 42.543 52.9519C42.5083 52.3974 42.466 51.7069 42.5974 50.7856C42.8291 49.1625 43.4371 47.9635 43.7786 47.3931C45.0611 45.2531 46.9797 44.2145 48.0089 43.7867C50.8685 42.597 53.4814 43.2979 55.0435 43.7163C59.6144 44.9425 62.2348 48.1136 63.096 49.156C63.9648 50.2077 66.2728 53.0007 66.7494 57.1747C66.9117 58.597 67.1565 60.7455 66.0157 63.0197C64.675 65.6907 62.2845 66.9292 60.8969 67.4461L60.9016 74.7894C60.9016 74.8494 60.8725 74.9057 60.8237 74.9414L57.9744 77.0063L60.8397 80.5612C60.8716 80.6015 60.8866 80.6531 60.88 80.7038C60.8734 80.7544 60.8453 80.8004 60.804 80.8304L57.9791 82.8757L60.8293 86.4371C60.8612 86.4774 60.8753 86.529 60.8687 86.5797C60.8622 86.6303 60.834 86.6763 60.7918 86.7063L54.7817 91.008C54.7489 91.0314 54.7104 91.0427 54.6729 91.0427L54.672 91.0455ZM48.8476 83.2857L54.7067 90.6017L60.4109 86.5187L57.5607 82.9582C57.5288 82.9179 57.5147 82.8663 57.5213 82.8156C57.5278 82.765 57.556 82.719 57.5973 82.689L60.4222 80.6437L57.5569 77.0889C57.525 77.0485 57.51 76.9969 57.5166 76.9463C57.5231 76.8956 57.5504 76.8496 57.5926 76.8196L60.5235 74.6946L60.5188 67.3157C60.5188 67.236 60.5685 67.1656 60.6436 67.1393C61.7 66.7612 64.3054 65.5866 65.6779 62.8518C66.7691 60.677 66.5411 58.6777 66.3741 57.2179C65.9106 53.1546 63.6543 50.4235 62.8042 49.3952C61.9617 48.3763 59.3995 45.2747 54.944 44.0794C53.4289 43.6732 50.892 42.993 48.1506 44.1329C47.1636 44.5438 45.3247 45.5383 44.0985 47.5854C43.7711 48.1315 43.1894 49.2798 42.967 50.8382C42.8404 51.7219 42.8826 52.3909 42.9154 52.9275C43.0158 54.5403 43.407 56.1981 44.0488 57.7226C44.3274 58.3841 45.1455 60.1197 46.7198 61.937C47.3484 62.6622 48.0427 63.3377 48.7848 63.9457C48.8279 63.9814 48.8533 64.0348 48.8533 64.0911L48.8448 83.2838L48.8476 83.2857ZM55.5595 55.8538C55.0754 55.8538 54.6551 55.7233 54.4205 55.6502C53.4429 55.3462 52.865 54.7073 52.6183 54.4343C52.3377 54.1247 51.5937 53.3019 51.5168 52.0785C51.5018 51.8326 51.469 51.3195 51.7288 50.7565C51.9737 50.2255 52.3584 49.8277 52.8406 49.6054C53.3444 49.3736 53.7985 49.4083 54.0997 49.4318C54.9506 49.4984 55.7509 49.8728 56.4771 50.5454C56.7716 50.8175 57.3111 51.4058 57.6226 52.283C57.7089 52.5269 57.8703 52.981 57.8412 53.5768C57.8309 53.7954 57.8102 54.2016 57.5785 54.6444C57.4819 54.8292 57.1967 55.2908 56.6441 55.5901C56.2782 55.789 55.9019 55.8547 55.5586 55.8547L55.5595 55.8538ZM53.7507 49.7902C53.5274 49.7902 53.2703 49.8202 52.9982 49.9459C52.5985 50.1298 52.2768 50.4648 52.0703 50.9142C51.8499 51.3917 51.8771 51.8233 51.8921 52.0559C51.9606 53.148 52.6408 53.9004 52.8969 54.1838C53.1427 54.4549 53.6531 55.0188 54.5322 55.2927C54.9187 55.4128 55.7237 55.6642 56.4667 55.2608C56.9415 55.0028 57.1845 54.59 57.2483 54.4699C57.4425 54.1012 57.4584 53.7616 57.4687 53.5589C57.4941 53.0373 57.3543 52.6442 57.2717 52.4096C56.9874 51.6084 56.493 51.0708 56.2247 50.8222C55.5614 50.2086 54.838 49.8671 54.0725 49.808C53.9768 49.8005 53.8698 49.7921 53.7525 49.7921L53.7507 49.7902Z" fill="white"/>
<path d="M0.630901 64.5195C0.567104 63.5747 0.474222 61.9554 1.21446 60.0875C1.43963 59.5208 1.86557 58.486 2.82065 57.4802C4.31051 55.9125 6.13342 55.4762 7.00219 55.2801C9.89934 54.6262 12.3236 55.6057 13.6549 56.1564C18.83 58.2946 21.0573 62.8598 21.6015 64.0194C22.0724 65.0242 22.8952 66.8256 22.9159 69.2752C22.9243 70.3157 22.9178 71.9857 21.9355 73.7804C21.5639 74.4587 20.8518 75.5217 19.62 76.4083C17.4837 77.946 15.2048 77.9301 14.2601 77.9104C12.2036 77.8672 10.7156 77.1786 9.5053 76.6175C8.93488 76.353 7.36903 75.5846 5.68872 74.0938C4.8631 73.3611 2.94074 71.6179 1.6845 68.671C1.35425 67.8951 0.764125 66.4785 0.630901 64.5204V64.5195Z" fill="#303541"/>
<path d="M14.6552 78.1018C14.5014 78.1018 14.3672 78.0989 14.2565 78.0961C12.1596 78.052 10.6444 77.3503 9.42666 76.7855C8.48752 76.3502 7.0549 75.5546 5.56411 74.2317C4.81073 73.5637 2.8105 71.7886 1.51203 68.7423C1.20994 68.034 0.582283 66.561 0.444368 64.5308C0.383385 63.6329 0.269863 61.962 1.04106 60.0171C1.2484 59.4955 1.6781 58.41 2.68572 57.3498C4.24594 55.7089 6.14954 55.2792 6.96202 55.0953C9.95111 54.4208 12.4082 55.4359 13.7283 55.981C17.1771 57.4061 20.0339 60.231 21.7724 63.9378C22.1974 64.8441 23.083 66.7308 23.1037 69.2715C23.1112 70.2228 23.1262 71.9941 22.1008 73.8677C21.6955 74.6089 20.9543 75.6765 19.7309 76.5575C17.7794 77.962 15.7323 78.0999 14.6562 78.0999L14.6552 78.1018ZM0.81777 64.5064C0.950994 66.4728 1.5627 67.9064 1.85635 68.596C3.12198 71.5644 5.07718 73.2991 5.81273 73.9521C7.26881 75.244 8.66672 76.0218 9.58334 76.4458C10.7692 76.9956 12.2459 77.6796 14.264 77.7218C15.1168 77.7396 17.3816 77.7875 19.5104 76.2554C20.6775 75.4157 21.383 74.3968 21.7705 73.6894C22.75 71.9012 22.7359 70.2584 22.7275 69.2761C22.7068 66.8171 21.8456 64.9811 21.4309 64.0982C19.7318 60.4768 16.9444 57.7176 13.5829 56.329C12.3013 55.7999 9.9164 54.8148 7.0427 55.4631C6.26306 55.6385 4.43733 56.0504 2.95592 57.6097C1.99896 58.6164 1.58615 59.6568 1.38819 60.1569C0.647956 62.023 0.757725 63.6385 0.816831 64.5073L0.81777 64.5064Z" fill="white"/>
<path d="M28.7351 66.1667C28.3036 67.8404 27.493 69.03 26.9619 69.6915C24.8097 71.6833 22.6575 73.6741 20.5043 75.6659C21.2108 74.9773 21.6639 74.2755 21.936 73.7792C22.9183 71.9844 22.9239 70.3144 22.9155 69.2749C22.8958 66.8243 22.073 65.023 21.602 64.0182C21.0588 62.8586 18.8306 58.2933 13.6555 56.1561C12.3242 55.6054 9.8999 54.6259 7.00275 55.2798C6.29629 55.4374 4.96593 55.7555 3.69092 56.7068C5.66301 54.8267 7.63697 52.9456 9.60906 51.0664C10.0434 50.7887 10.6758 50.4294 11.4864 50.1282C14.1115 49.1506 16.441 49.5756 17.3473 49.7529C19.9076 50.2539 21.5973 51.4783 22.7279 52.3179C23.455 52.8555 25.0527 54.139 26.4835 56.2799C27.1749 57.3167 28.3777 59.1593 28.8186 61.8491C28.9809 62.8417 29.2089 64.3269 28.7342 66.1657L28.7351 66.1667Z" fill="#282C38"/>
<path d="M20.5051 75.8535C20.4554 75.8535 20.4057 75.8338 20.3691 75.7954C20.2987 75.7212 20.3006 75.603 20.3738 75.5317C20.9273 74.9923 21.3983 74.3721 21.7717 73.6891C22.7502 71.9009 22.7361 70.2581 22.7277 69.2768C22.708 66.8196 21.8467 64.9817 21.4321 64.0989C20.4488 62.002 18.123 58.2051 13.584 56.3306C12.3043 55.8005 9.92132 54.8145 7.04481 55.4637C6.4575 55.595 5.08398 55.9028 3.80334 56.8579C3.72359 56.917 3.61195 56.9048 3.54815 56.8288C3.48435 56.7528 3.48998 56.6402 3.56222 56.5717C5.53431 54.6906 7.50828 52.8105 9.48037 50.9313C9.48881 50.9228 9.49819 50.9153 9.50851 50.9088C10.1155 50.5213 10.7591 50.1995 11.4215 49.9527C14.1498 48.9357 16.5835 49.4123 17.3837 49.569C20.0407 50.0888 21.7933 51.3901 22.8403 52.1669C23.8517 52.9156 25.3321 54.2187 26.64 56.1758C27.2592 57.1046 28.5483 59.0382 29.0052 61.819C29.1572 62.7469 29.4114 64.2987 28.917 66.2126C28.5792 67.5223 27.9713 68.7326 27.1091 69.8078C27.1034 69.8153 27.0969 69.8219 27.0903 69.8284L20.6327 75.8029C20.5971 75.8366 20.5511 75.8526 20.5051 75.8526V75.8535ZM8.94747 54.8783C11.0584 54.8783 12.7847 55.5932 13.7276 55.9835C18.3829 57.9068 20.7659 61.7937 21.7726 63.9394C22.1986 64.8466 23.0842 66.7343 23.1039 69.274C23.1124 70.2253 23.1274 71.9957 22.101 73.8702C22.0766 73.9152 22.0522 73.9593 22.0269 74.0034L26.8248 69.5648C27.6485 68.5337 28.2302 67.375 28.5539 66.1216C29.0277 64.2837 28.7819 62.7807 28.6346 61.8819C28.1908 59.1808 26.9787 57.3626 26.3276 56.386C25.0497 54.4739 23.6049 53.2017 22.617 52.4709C21.5953 51.7119 19.8859 50.4425 17.3124 49.9396C16.5384 49.7876 14.1826 49.327 11.5538 50.3064C10.9214 50.5419 10.3069 50.8478 9.72711 51.2174C8.14813 52.7223 6.56821 54.2272 4.98828 55.7339C5.82703 55.3539 6.56821 55.1879 6.96412 55.0997C7.65276 54.9439 8.31794 54.8801 8.94935 54.8801L8.94747 54.8783Z" fill="white"/>
<path d="M10.3496 64.7385V60.6404C11.2775 60.9012 12.2063 61.1621 13.1342 61.4229C13.138 62.7823 13.1408 64.1408 13.1445 65.5003C14.5462 65.8906 15.9488 66.2809 17.3505 66.6721V69.39C15.9516 69.011 14.5537 68.632 13.1548 68.2529C13.1483 69.6152 13.1408 70.9784 13.1342 72.3407C12.2026 72.0939 11.271 71.8472 10.3393 71.6004V67.4921C8.94235 67.1065 7.54444 66.7209 6.14746 66.3343V63.6126C7.54819 63.9879 8.94892 64.3632 10.3496 64.7394V64.7385Z" fill="#303541"/>
<path d="M13.1343 72.5283C13.1184 72.5283 13.1024 72.5264 13.0865 72.5217L10.2916 71.7815C10.2091 71.7599 10.1518 71.6849 10.1518 71.6004V67.6347L6.09788 66.5154C6.01625 66.4929 5.95996 66.4188 5.95996 66.3343V63.6126C5.95996 63.5545 5.98717 63.4991 6.03314 63.4635C6.07911 63.4278 6.13916 63.4156 6.19545 63.4316L10.1621 64.4945V60.6404C10.1621 60.5813 10.1893 60.526 10.2363 60.4912C10.2832 60.4556 10.3442 60.4443 10.4004 60.4603L13.185 61.2427C13.2657 61.2653 13.322 61.3394 13.322 61.4229L13.3323 65.3577L17.4013 66.491C17.4819 66.5135 17.5382 66.5876 17.5382 66.6721V69.39C17.5382 69.4482 17.511 69.5036 17.4651 69.5392C17.4191 69.5749 17.3581 69.5861 17.3018 69.5711L13.3417 68.4978L13.322 72.3416C13.322 72.3998 13.2948 72.4542 13.2488 72.4898C13.216 72.5152 13.1756 72.5283 13.1343 72.5283ZM10.5271 71.4559L12.9476 72.0977L12.9673 68.252C12.9673 68.1938 12.9946 68.1385 13.0415 68.1038C13.0874 68.0681 13.1484 68.0569 13.2038 68.0719L17.163 69.1442V66.8137L13.094 65.6804C13.0133 65.6579 12.957 65.5838 12.957 65.5003L12.9467 61.5645L10.5374 60.8881V64.7385C10.5374 64.7966 10.5102 64.852 10.4642 64.8876C10.4183 64.9233 10.3582 64.9355 10.3019 64.9195L6.33524 63.8566V66.1908L10.3892 67.3101C10.4708 67.3326 10.5271 67.4067 10.5271 67.4911V71.455V71.4559Z" fill="white"/>
</svg>
