<svg width="69" height="91" viewBox="0 0 69 91" fill="none" xmlns="http://www.w3.org/2000/svg">
<path d="M68.6765 51.6893C68.6699 52.773 68.6277 54.9711 67.2457 57.0933C66.9183 57.5962 66.5918 57.9771 66.3535 58.2323C63.9583 60.4258 61.563 62.6203 59.1678 64.8147C59.818 64.2058 60.441 63.4393 60.9232 62.4795C62.0397 60.2551 61.8023 58.1741 61.639 56.7396C61.1784 52.7035 58.9961 49.9912 58.027 48.8194C57.0606 47.6504 54.4937 44.6285 50.0711 43.4416C48.5259 43.027 45.958 42.3383 43.1575 43.5036C42.7034 43.6921 41.6573 44.1744 40.6094 45.1126L48.1553 38.0029C49.1066 37.4353 51.0149 36.4765 53.5593 36.4127C55.6796 36.3601 57.2408 36.954 58.2925 37.3668C59.0243 37.6539 62.6401 39.1391 65.4969 43.0532C66.3328 44.1988 68.7027 47.4449 68.6765 51.6893Z" fill="#FF444F"/>
<path d="M59.1688 65.0023C59.1181 65.0023 59.0684 64.9817 59.0309 64.9423C58.9605 64.8663 58.9652 64.7481 59.0403 64.6777C59.7533 64.0097 60.3312 63.2423 60.7562 62.3951C61.8473 60.2213 61.6194 58.222 61.4533 56.7622C60.9889 52.6941 58.7325 49.9659 57.8825 48.9385C57.04 47.9197 54.4759 44.817 50.0223 43.6227C48.5071 43.2165 45.9712 42.5354 43.2298 43.6762C42.604 43.9361 41.663 44.4202 40.7351 45.2514C40.6582 45.3199 40.5409 45.3143 40.4715 45.2383C40.402 45.1623 40.4058 45.045 40.4809 44.9747L48.0268 37.865C48.0371 37.8556 48.0474 37.8472 48.0596 37.8406C49.7521 36.8302 51.6529 36.272 53.5546 36.2241C55.7575 36.1706 57.3872 36.8086 58.361 37.1914C59.6632 37.7018 62.9788 39.2845 65.648 42.9416C66.4501 44.0412 68.8904 47.3849 68.8632 51.6893C68.8575 52.6744 68.8435 54.9815 67.4024 57.1947C67.135 57.6056 66.8273 57.9978 66.4905 58.359C66.4867 58.3627 66.4839 58.3665 66.4802 58.3693C64.2848 60.3789 62.0903 62.3904 59.895 64.401L59.2945 64.9517C59.2589 64.9845 59.2129 65.0014 59.1679 65.0014L59.1688 65.0023ZM46.4412 42.6705C47.9217 42.6705 49.2023 43.0138 50.1199 43.2606C54.6889 44.4868 57.3102 47.6579 58.1715 48.7002C59.0403 49.751 61.3482 52.5412 61.8258 56.719C61.9881 58.1423 62.232 60.2907 61.0912 62.564C61.0114 62.7225 60.927 62.8783 60.8369 63.0312C62.6317 61.3865 64.4264 59.7428 66.2212 58.0991C66.5421 57.7548 66.8339 57.3823 67.0881 56.9911C68.4691 54.8698 68.4823 52.6407 68.4888 51.6884C68.5151 47.5069 66.2128 44.3526 65.3459 43.1649C62.7339 39.5866 59.4953 38.0405 58.224 37.5413C57.2764 37.1698 55.6909 36.5468 53.564 36.6003C51.7326 36.6463 49.9022 37.1829 48.2688 38.154L42.4764 43.6115C42.6997 43.4979 42.9052 43.4051 43.0853 43.33C44.2646 42.8393 45.4017 42.6705 46.4403 42.6705H46.4412Z" fill="white"/>
<path d="M62.6857 61.5938C62.6819 63.6944 62.6782 65.7941 62.6744 67.8947C60.3796 70.0413 58.0857 72.1869 55.7909 74.3335C55.7909 71.8426 55.788 69.3508 55.7871 66.8589C56.3406 66.6609 57.8146 66.0821 59.1702 64.8146C60.3421 63.7413 61.5139 62.667 62.6857 61.5938Z" fill="#FF444F"/>
<path d="M55.791 74.5213C55.7657 74.5213 55.7403 74.5166 55.7159 74.5053C55.6475 74.4753 55.6034 74.4077 55.6034 74.3336L55.5996 66.859C55.5996 66.7793 55.6493 66.7089 55.7244 66.6826C56.5913 66.3721 57.871 65.7726 59.0428 64.6777L62.5601 61.4559C62.6154 61.4053 62.6942 61.3921 62.7627 61.4231C62.8312 61.4531 62.8744 61.5207 62.8744 61.5948L62.8631 67.8957C62.8631 67.9473 62.8415 67.997 62.804 68.0327L55.9205 74.4715C55.8848 74.5044 55.8388 74.5222 55.7919 74.5222L55.791 74.5213ZM55.9749 66.9903L55.9786 73.9011L62.4869 67.8131L62.4972 62.0207L59.297 64.9526C58.1356 66.039 56.8709 66.6554 55.9749 66.9894V66.9903Z" fill="white"/>
<path d="M62.6652 73.743C60.3666 75.9027 58.0689 78.0633 55.7703 80.224C54.774 78.9875 53.7776 77.7519 52.7812 76.5153L55.79 74.334C57.1945 73.0205 58.5981 71.708 60.0016 70.3945C60.8901 71.51 61.7776 72.6265 62.6652 73.743Z" fill="#FF444F"/>
<path d="M55.7711 80.4116C55.7711 80.4116 55.7626 80.4116 55.7579 80.4116C55.7054 80.4078 55.6575 80.3825 55.6247 80.3422L52.6356 76.6335C52.6037 76.5931 52.5887 76.5415 52.5953 76.4909C52.6018 76.4402 52.629 76.3942 52.6713 76.3642L55.6707 74.1895L55.9184 73.9578C57.2375 72.724 58.5556 71.4912 59.8738 70.2584C59.9123 70.2228 59.9639 70.204 60.0155 70.2087C60.068 70.2125 60.1158 70.2378 60.1487 70.2791C61.0372 71.3946 61.9247 72.5111 62.8122 73.6275C62.8732 73.7035 62.8648 73.8142 62.7935 73.8808C61.2314 75.3482 59.6702 76.8164 58.1081 78.2847L55.8987 80.3619C55.8639 80.3947 55.818 80.4125 55.7701 80.4125L55.7711 80.4116ZM53.0522 76.5509L55.7898 79.9481L57.852 78.0098C59.3719 76.5809 60.8917 75.1521 62.4116 73.7241C61.6019 72.7062 60.7923 71.6873 59.9826 70.6703C58.7142 71.8571 57.4448 73.044 56.1754 74.2308L55.9193 74.4709C55.9137 74.4766 55.908 74.4813 55.9015 74.486L53.0522 76.5509Z" fill="white"/>
<path d="M62.6597 79.6032C60.3592 81.7685 58.0588 83.9339 55.7583 86.0992C54.7676 84.8608 53.7759 83.6224 52.7852 82.384C53.7796 81.6644 54.7751 80.9438 55.7696 80.2233C57.1778 78.8995 58.587 77.5748 59.9952 76.251C60.8837 77.3684 61.7712 78.4858 62.6597 79.6032Z" fill="#FF444F"/>
<path d="M55.7581 86.2867C55.7581 86.2867 55.7497 86.2867 55.745 86.2867C55.6925 86.283 55.6446 86.2577 55.6118 86.2164L52.6386 82.5011C52.6067 82.4608 52.5927 82.4092 52.5992 82.3585C52.6058 82.3078 52.6339 82.2619 52.6752 82.2319C53.6669 81.5141 54.6586 80.7964 55.6503 80.0778L59.8674 76.1139C59.9059 76.0782 59.9575 76.0595 60.0091 76.0632C60.0617 76.067 60.1095 76.0923 60.1423 76.1336L62.8068 79.4858C62.8678 79.5617 62.8593 79.6725 62.789 79.7391L55.8876 86.2351C55.8529 86.268 55.8069 86.2858 55.7591 86.2858L55.7581 86.2867ZM53.0543 82.4204L55.7769 85.8233L62.4043 79.5852L59.9744 76.5276L55.897 80.3602C55.8914 80.3658 55.8848 80.3705 55.8782 80.3752C54.9372 81.0572 53.9943 81.7393 53.0533 82.4204H53.0543Z" fill="white"/>
<path d="M52.7313 53.1092C52.72 53.34 52.6984 53.7013 52.4902 54.0981C52.4414 54.1901 52.1815 54.6685 51.6326 54.9669C50.8202 55.4078 49.958 55.1395 49.5527 55.0128C48.6426 54.7295 48.106 54.1506 47.8339 53.8514C47.5665 53.5549 46.8544 52.7668 46.7812 51.6091C46.7643 51.3454 46.7418 50.8876 46.9764 50.3772C47.0533 50.2121 47.3357 49.622 47.9962 49.318C48.4465 49.1107 48.8518 49.1369 49.1624 49.1613C50.3558 49.2542 51.1682 49.986 51.4272 50.2252C51.6233 50.4072 52.1993 50.9749 52.5239 51.8877C52.6168 52.1504 52.7585 52.5623 52.7313 53.1092Z" fill="#FF444F"/>
<path d="M50.6363 55.3966C50.1513 55.3966 49.7319 55.2653 49.4973 55.1921C48.5244 54.889 47.9643 54.2736 47.696 53.978C47.4145 53.6666 46.6724 52.8428 46.5945 51.6213C46.5786 51.3764 46.5458 50.8661 46.8066 50.2994C47.1199 49.6258 47.5843 49.3021 47.9183 49.1482C48.4231 48.9155 48.8772 48.9512 49.1774 48.9747C50.0274 49.0403 50.8268 49.4156 51.5548 50.0874C51.8494 50.3613 52.3898 50.9505 52.7013 51.8249C52.7876 52.0698 52.949 52.5248 52.9189 53.1187C52.9086 53.3373 52.888 53.7435 52.6562 54.1854C52.5577 54.3712 52.2697 54.8337 51.7218 55.132C51.355 55.3309 50.9787 55.3966 50.6354 55.3966H50.6363ZM48.8275 49.3321C48.6051 49.3321 48.348 49.3631 48.075 49.4878C47.7983 49.6154 47.4117 49.8866 47.1471 50.4561C46.9267 50.9355 46.9548 51.3652 46.9689 51.5969C47.0374 52.688 47.7166 53.4405 47.9728 53.7247C48.2204 53.9968 48.7336 54.5616 49.609 54.8337C49.9955 54.9547 50.7995 55.2062 51.5435 54.8018C52.0014 54.5532 52.2425 54.1648 52.3251 54.01C52.5183 53.6422 52.5343 53.3025 52.5446 53.0999C52.5709 52.5801 52.4311 52.1861 52.3476 51.9497C52.0633 51.1513 51.5698 50.6118 51.2996 50.3622C50.6354 49.7487 49.9111 49.4072 49.1483 49.3481C49.0526 49.3405 48.9447 49.3321 48.8275 49.3321Z" fill="white"/>
<path d="M15.6257 19.9541C15.5722 18.4943 15.4043 13.9656 18.5923 10.6031C21.7709 7.24999 26.2855 7.16837 27.2631 7.15055C36.9256 6.9751 47.2298 17.7841 46.3535 27.53C46.2766 28.3838 45.7981 33.709 41.5856 36.6249C38.1434 39.0079 34.172 38.4216 32.5264 38.1786C24.0057 36.9214 15.9513 28.7647 15.6257 19.9532V19.9541Z" fill="#303541"/>
<path d="M35.3914 38.614C34.1868 38.614 33.1679 38.4639 32.4999 38.3654C28.3353 37.7509 24.0956 35.441 20.8672 32.0288C17.5235 28.4937 15.5955 24.208 15.4388 19.9608C15.3835 18.4597 15.2146 13.8935 18.457 10.4738C20.5417 8.27462 23.6687 7.02776 27.261 6.96303C31.9173 6.87859 37.052 9.35918 40.999 13.5979C42.8501 15.586 44.3381 17.8705 45.3007 20.2029C46.3364 22.7116 46.7539 25.1819 46.5419 27.5471C46.3721 29.431 45.5615 34.1022 41.6933 36.7798C39.5645 38.2538 37.2566 38.614 35.3914 38.614ZM27.4928 7.33643C27.4177 7.33643 27.3427 7.33643 27.2676 7.3383C23.7766 7.4021 20.7443 8.60675 18.7291 10.7327C15.5955 14.038 15.7597 18.486 15.8132 19.9477C15.9661 24.1039 17.8584 28.3023 21.1393 31.7708C24.3104 35.123 28.4713 37.3916 32.5543 37.9939C34.2131 38.2387 38.0981 38.812 41.4794 36.4712C45.2162 33.8846 46.0034 29.3456 46.1676 27.5133C46.3749 25.2091 45.9659 22.7979 44.9535 20.3455C44.0069 18.0544 42.5442 15.8093 40.7232 13.8531C36.9113 9.75885 31.983 7.33549 27.4918 7.33549L27.4928 7.33643Z" fill="white"/>
<path d="M53.084 22.9386C52.5604 25.6538 51.2235 27.5686 50.3988 28.5725C47.8948 30.8964 45.3908 33.2203 42.8858 35.5452C45.9039 32.5542 46.2867 28.2864 46.3552 27.5302C47.2315 17.7842 36.9273 6.97523 27.2648 7.15068C26.3501 7.16756 22.3374 7.23981 19.2207 9.99716C21.7313 7.6057 24.2419 5.21518 26.7525 2.82371C27.914 2.11444 30.3149 0.867576 33.5864 0.70433C37.4996 0.510123 40.3536 2.04126 42.1521 3.0001C42.988 3.44668 46.2614 5.26678 49.0919 9.0402C49.9964 10.2448 52.5126 13.6815 53.1365 18.5948C53.2688 19.6343 53.4405 21.0848 53.084 22.9386Z" fill="#282C38"/>
<path d="M42.8859 35.7328C42.8362 35.7328 42.7874 35.7131 42.7508 35.6746C42.6795 35.6005 42.6814 35.4832 42.7545 35.4119C45.4312 32.7597 46.0335 29.0069 46.1686 27.5161C46.376 25.209 45.9679 22.7979 44.9546 20.3464C44.008 18.0553 42.5453 15.8102 40.7252 13.855C36.8495 9.69222 31.8189 7.25666 27.2687 7.33828C23.2513 7.4124 20.7426 8.90132 19.3456 10.1379C19.2687 10.2054 19.1523 10.1998 19.0829 10.1238C19.0135 10.0478 19.0172 9.93146 19.0914 9.86109L26.6232 2.68765C26.6326 2.67826 26.6438 2.67076 26.6551 2.66325C28.1206 1.76821 30.5111 0.669585 33.5771 0.516659C37.526 0.321515 40.4635 1.88643 42.2179 2.82181L42.2404 2.834C43.7556 3.64367 46.68 5.51162 49.2422 8.92665C51.5229 11.9645 52.8964 15.2088 53.3224 18.5704C53.4481 19.5574 53.6376 21.05 53.268 22.9733C52.872 25.0261 51.9301 27.0029 50.5434 28.6907C50.5378 28.6973 50.5322 28.7038 50.5266 28.7095L43.0135 35.6821C42.9778 35.7159 42.9319 35.7319 42.8859 35.7319V35.7328ZM27.4901 6.96113C32.0863 6.96113 37.1169 9.42952 40.9992 13.5989C42.8502 15.5869 44.3373 17.8705 45.3008 20.2028C46.3366 22.7106 46.7541 25.1818 46.542 27.547C46.4097 29.0125 45.9725 31.4715 44.5653 33.7307L50.262 28.4439C51.6045 26.8068 52.5165 24.891 52.9002 22.9039C53.2586 21.0388 53.0738 19.5827 52.9509 18.6192C52.5324 15.3233 51.1833 12.139 48.9419 9.15369C46.4229 5.79589 43.5511 3.96078 42.064 3.16613L42.0415 3.15393C40.2092 2.17727 37.4415 0.701484 33.5959 0.891938C30.6199 1.04017 28.2969 2.10315 26.8681 2.9738L21.1019 8.466C22.588 7.66571 24.6061 7.01273 27.2602 6.96394C27.3372 6.96207 27.4141 6.96207 27.492 6.96207L27.4901 6.96113Z" fill="white"/>
<path d="M43.7463 63.6362C43.7444 67.9556 43.7425 72.276 43.7407 76.5964C29.2258 72.6363 14.711 68.6762 0.196166 64.7151C0.136121 62.5347 0.315317 57.8447 3.12334 52.9604C6.66784 46.7946 12.1638 44.209 14.4342 43.3177C19.2416 41.4319 23.4062 41.7218 25.4543 41.8879C30.6237 42.3054 34.6833 44.1958 37.3487 45.4371C38.0993 45.787 38.7842 46.1323 39.3978 46.4569C39.2664 46.6389 39.1388 46.8303 39.0178 47.0329C38.8161 47.3697 38.1115 48.6006 37.861 50.356C37.7343 51.2398 37.7728 51.9125 37.8075 52.4838C37.9426 54.6595 38.5543 56.3858 38.9559 57.3399C39.1341 57.7631 39.9382 59.6198 41.6579 61.605C42.4328 62.5 43.1768 63.1699 43.7463 63.6362Z" fill="#303541"/>
<path d="M43.7408 76.7842C43.7239 76.7842 43.708 76.7823 43.6911 76.7776C29.1762 72.8175 14.6614 68.8573 0.146556 64.8963C0.0668094 64.8747 0.0105175 64.8034 0.00864109 64.7208C-0.0720438 61.7955 0.374538 57.3654 2.96114 52.8677C6.34991 46.972 11.5616 44.2447 14.3659 43.1433C19.3148 41.2021 23.6277 41.5521 25.4694 41.7012C30.6717 42.1216 34.7369 44.0148 37.4277 45.2673C38.1107 45.5854 38.8031 45.9306 39.4861 46.2918C39.5339 46.3172 39.5686 46.3622 39.5808 46.4147C39.593 46.4673 39.5818 46.5236 39.5499 46.5667C39.4129 46.7572 39.2909 46.9411 39.1793 47.1296C38.8518 47.6766 38.2692 48.8259 38.0469 50.3833C37.9212 51.2605 37.9624 51.9332 37.9953 52.4736C38.0957 54.0854 38.4878 55.7432 39.1296 57.2678C39.4091 57.9302 40.2282 59.6677 41.8006 61.4831C42.4273 62.2074 43.1225 62.8829 43.8665 63.4918C43.9097 63.5274 43.935 63.5809 43.935 63.6372L43.9294 76.5975C43.9294 76.6556 43.9022 76.711 43.8553 76.7466C43.8224 76.772 43.7821 76.7851 43.7417 76.7851L43.7408 76.7842ZM0.380167 64.5707C14.7712 68.498 29.1622 72.4244 43.5531 76.3507L43.5588 63.7245C42.8242 63.1165 42.1374 62.4457 41.5163 61.727C39.9083 59.8713 39.0695 58.0915 38.7834 57.4123C38.1257 55.8483 37.7232 54.1483 37.6209 52.4952C37.5872 51.9379 37.5449 51.2436 37.6763 50.3289C37.908 48.7068 38.516 47.5068 38.8575 46.9364C38.94 46.7975 39.0273 46.6615 39.122 46.5236C38.5057 46.2008 37.8836 45.8931 37.27 45.607C34.6037 44.3657 30.5751 42.4893 25.4394 42.0746C23.623 41.9274 19.3702 41.583 14.5028 43.4923C11.7436 44.5749 6.61823 47.2572 3.28576 53.0544C0.78453 57.4057 0.319184 61.6942 0.380167 64.5717V64.5707Z" fill="white"/>
<path d="M46.1452 39.8983C44.3007 41.6367 42.4553 43.3743 40.6108 45.1128C40.1943 45.4852 39.7777 45.9299 39.3977 46.4572C38.7841 46.1326 38.0993 45.7873 37.3487 45.4374C34.6833 44.1961 30.6237 42.3057 25.4543 41.8882C23.4062 41.7221 19.2415 41.4322 14.4342 43.318C12.9697 43.8931 10.1635 45.1728 7.4043 47.6647C9.68599 45.4299 11.9677 43.1951 14.2494 40.9612C14.6903 40.54 15.3302 39.9705 16.1567 39.371C18.5707 37.6203 20.8055 36.897 22.1171 36.4842C23.0553 36.1886 24.2552 35.8762 25.6785 35.6614C27.8213 36.9458 30.1565 37.8295 32.5273 38.1795C33.9993 38.3972 37.3309 38.8878 40.4813 37.2835C40.8482 37.4177 41.261 37.5753 41.7104 37.7554C43.0004 38.2714 44.1262 38.7265 45.4547 39.4864C45.6602 39.6037 45.8919 39.7407 46.1452 39.8983Z" fill="#282C38"/>
<path d="M7.40484 47.8522C7.35511 47.8522 7.30539 47.8325 7.26786 47.7931C7.19749 47.719 7.20031 47.6017 7.27349 47.5304C9.55518 45.2957 11.8369 43.0609 14.1186 40.827C14.7228 40.25 15.3711 39.7087 16.0466 39.219C18.5337 37.4148 20.8285 36.6933 22.0604 36.3049C23.2228 35.939 24.4303 35.6594 25.6499 35.4756C25.6931 35.469 25.7372 35.4774 25.7747 35.4999C27.9363 36.7956 30.2809 37.6578 32.5541 37.9937C33.9727 38.2038 37.2958 38.6945 40.3956 37.1165C40.4425 37.093 40.4959 37.0892 40.5447 37.1071C40.9388 37.2516 41.3544 37.4111 41.7794 37.5809C43.0141 38.0744 44.1802 38.5406 45.5472 39.3231C45.7789 39.4554 46.0125 39.5952 46.2433 39.7387C46.2931 39.7697 46.325 39.8213 46.3306 39.8794C46.3362 39.9376 46.3146 39.9948 46.2724 40.0342C45.338 40.9143 44.4045 41.7943 43.47 42.6743C42.559 43.5318 41.6481 44.3903 40.738 45.2487C40.2886 45.6503 39.8899 46.0931 39.5484 46.566C39.494 46.642 39.3908 46.6654 39.3082 46.6223C38.6308 46.2639 37.9441 45.9224 37.2676 45.6062C34.6013 44.365 30.5727 42.4886 25.437 42.0739C23.6206 41.9266 19.3678 41.5823 14.5004 43.4915C12.7253 44.1886 10.0749 45.5021 7.52774 47.8025C7.49209 47.8354 7.44705 47.8513 7.40202 47.8513L7.40484 47.8522ZM22.825 41.5776C23.9424 41.5776 24.8468 41.6508 25.4698 41.7014C30.6721 42.1217 34.7373 44.015 37.4281 45.2675C38.0632 45.564 38.7068 45.882 39.3429 46.216C39.6778 45.7704 40.0616 45.3519 40.4866 44.9729C41.3938 44.1182 42.3039 43.2598 43.2148 42.4023C44.0892 41.5785 44.9646 40.7538 45.839 39.9301C45.6804 39.8335 45.5209 39.7397 45.3624 39.6496C44.0179 38.8803 42.863 38.4187 41.6415 37.9299C41.2474 37.7723 40.8618 37.6231 40.4941 37.488C37.3089 39.0763 33.9445 38.5791 32.5006 38.3652C30.1992 38.0256 27.8284 37.1587 25.6406 35.8574C24.4631 36.0385 23.2969 36.3096 22.1739 36.6633C20.9618 37.0452 18.7054 37.7554 16.267 39.5229C15.6047 40.0033 14.9695 40.5324 14.3794 41.0972C12.8848 42.5599 11.3903 44.0244 9.89481 45.488C11.5826 44.3575 13.1701 43.6125 14.3653 43.1434C17.6406 41.859 20.6381 41.5776 22.8241 41.5776H22.825Z" fill="white"/>
<path d="M61.6393 56.7397C61.1786 52.7036 58.9964 49.9913 58.0282 48.8195C57.0618 47.6505 54.4949 44.6285 50.0723 43.4417C48.5261 43.027 45.9592 42.3384 43.1587 43.5036C42.4616 43.7935 40.3722 44.7721 39.0175 47.0331C38.8158 47.3699 38.1112 48.6009 37.8607 50.3553C37.734 51.2391 37.7725 51.9127 37.8081 52.4831C37.9433 54.6588 38.554 56.3851 38.9565 57.3392C39.1348 57.7623 39.9388 59.619 41.6585 61.6043C42.4335 62.4993 43.1774 63.1692 43.7469 63.6355C43.7441 70.0546 43.7413 76.4747 43.7385 82.8938C45.7425 85.396 47.7465 87.8981 49.7504 90.4003C51.7535 88.9668 53.7575 87.5332 55.7605 86.0987C54.7698 84.8603 53.7781 83.6218 52.7874 82.3834C53.7819 81.6629 54.7773 80.9424 55.7718 80.2218C54.7754 78.9853 53.7791 77.7497 52.7827 76.5131C53.7856 75.786 54.7886 75.0589 55.7915 74.3318C55.7896 71.84 55.7887 69.3491 55.7868 66.8572C56.6059 66.5636 59.4411 65.4368 60.9262 62.4777C62.0427 60.2533 61.8053 58.1723 61.6411 56.7378L61.6393 56.7397ZM52.732 53.1098C52.7208 53.3406 52.6992 53.7018 52.49 54.0987C52.4412 54.1906 52.1813 54.6691 51.6325 54.9675C50.8209 55.4084 49.9587 55.1401 49.5525 55.0134C48.6424 54.7301 48.1058 54.1512 47.8337 53.851C47.5663 53.5555 46.8533 52.7674 46.7811 51.6097C46.7642 51.346 46.7417 50.8882 46.9762 50.3778C47.0522 50.2127 47.3355 49.6226 47.996 49.3186C48.4464 49.1112 48.8517 49.1375 49.1613 49.1619C50.3547 49.2548 51.1681 49.9866 51.4261 50.2258C51.6222 50.4078 52.1982 50.9764 52.5228 51.8883C52.6157 52.151 52.7574 52.5619 52.7311 53.1098H52.732Z" fill="#FF7E88"/>
<path d="M49.7481 90.5889C49.6928 90.5889 49.6384 90.5645 49.6018 90.5185L43.5898 83.012C43.5635 82.9792 43.5485 82.937 43.5485 82.8947L43.557 63.7246C42.8242 63.1185 42.1375 62.4468 41.5145 61.7281C39.9046 59.8705 39.0668 58.0917 38.7816 57.4133C38.1239 55.8503 37.7214 54.1503 37.6191 52.4953C37.5844 51.9408 37.5422 51.2503 37.6736 50.329C37.9053 48.7059 38.5132 47.5069 38.8547 46.9365C40.1373 44.7965 42.0559 43.7579 43.0851 43.3301C45.9447 42.1404 48.5576 42.8413 50.1197 43.2597C54.6906 44.4859 57.3109 47.657 58.1722 48.6994C59.041 49.7511 61.3489 52.5441 61.8255 56.7181C61.9878 58.1404 62.2327 60.2889 61.0919 62.5631C59.7512 65.2341 57.3607 66.4726 55.9731 66.9895L55.9778 74.3328C55.9778 74.3928 55.9487 74.4491 55.8999 74.4848L53.0506 76.5497L55.9158 80.1045C55.9477 80.1449 55.9627 80.1965 55.9562 80.2472C55.9496 80.2978 55.9215 80.3438 55.8802 80.3738L53.0553 82.4191L55.9055 85.9805C55.9374 86.0208 55.9515 86.0724 55.9449 86.1231C55.9384 86.1737 55.9102 86.2197 55.868 86.2497L49.8579 90.5514C49.8251 90.5748 49.7866 90.5861 49.7491 90.5861L49.7481 90.5889ZM43.9238 82.8291L49.7829 90.1451L55.4871 86.0621L52.6368 82.5016C52.6049 82.4613 52.5909 82.4097 52.5974 82.359C52.604 82.3084 52.6322 82.2624 52.6734 82.2324L55.4983 80.1871L52.6331 76.6323C52.6012 76.5919 52.5862 76.5403 52.5927 76.4897C52.5993 76.439 52.6265 76.393 52.6687 76.363L55.5997 74.238L55.595 66.8591C55.595 66.7793 55.6447 66.709 55.7198 66.6827C56.7762 66.3046 59.3815 65.13 60.7541 62.3952C61.8452 60.2204 61.6173 58.2211 61.4503 56.7613C60.9868 52.698 58.7304 49.9669 57.8804 48.9386C57.0379 47.9197 54.4757 44.818 50.0202 43.6228C48.505 43.2165 45.9681 42.5364 43.2267 43.6763C42.2398 44.0872 40.4009 45.0817 39.1747 47.1288C38.8472 47.6749 38.2656 48.8232 38.0432 50.3816C37.9165 51.2653 37.9588 51.9343 37.9916 52.4709C38.092 54.0837 38.4832 55.7415 39.1249 57.266C39.4036 57.9275 40.2217 59.6631 41.796 61.4804C42.4246 62.2056 43.1188 62.8811 43.861 63.4891C43.9041 63.5247 43.9294 63.5782 43.9294 63.6345L43.921 82.8272L43.9238 82.8291ZM50.6357 55.3971C50.1516 55.3971 49.7313 55.2667 49.4967 55.1936C48.5191 54.8896 47.9412 54.2507 47.6944 53.9777C47.4139 53.6681 46.6699 52.8453 46.593 51.6218C46.578 51.376 46.5451 50.8628 46.805 50.2999C47.0499 49.7689 47.4345 49.3711 47.9168 49.1488C48.4206 48.917 48.8747 48.9517 49.1758 48.9752C50.0268 49.0418 50.8271 49.4161 51.5532 50.0888C51.8478 50.3609 52.3873 50.9492 52.6988 51.8264C52.7851 52.0703 52.9464 52.5244 52.9174 53.1201C52.907 53.3387 52.8864 53.745 52.6547 54.1878C52.558 54.3726 52.2728 54.8342 51.7202 55.1335C51.3543 55.3324 50.9781 55.3981 50.6347 55.3981L50.6357 55.3971ZM48.8268 49.3336C48.6035 49.3336 48.3465 49.3636 48.0744 49.4893C47.6747 49.6732 47.3529 50.0082 47.1465 50.4575C46.926 50.9351 46.9533 51.3667 46.9683 51.5993C47.0367 52.6914 47.7169 53.4438 47.9731 53.7272C48.2189 53.9983 48.7293 54.5622 49.6083 54.8361C49.9949 54.9562 50.7999 55.2076 51.5429 54.8042C52.0176 54.5462 52.2606 54.1334 52.3244 54.0133C52.5186 53.6446 52.5346 53.305 52.5449 53.1023C52.5702 52.5807 52.4304 52.1876 52.3479 51.953C52.0636 51.1518 51.5692 50.6142 51.3009 50.3656C50.6375 49.752 49.9142 49.4105 49.1486 49.3514C49.0529 49.3439 48.946 49.3355 48.8287 49.3355L48.8268 49.3336Z" fill="white"/>
</svg>
