<svg width="24" height="25" viewBox="0 0 24 25" fill="none" xmlns="http://www.w3.org/2000/svg">
<path fill-rule="evenodd" clip-rule="evenodd" d="M17.8151 4.97C17.7351 4.97 17.6551 4.95 17.5851 4.91C15.6651 3.92 14.0051 3.5 12.0151 3.5C10.0351 3.5 8.15511 3.97 6.44511 4.91C6.20511 5.04 5.90511 4.95 5.76511 4.71C5.63511 4.47 5.72511 4.16 5.96511 4.03C7.82511 3.02 9.86511 2.5 12.0151 2.5C14.1451 2.5 16.0051 2.97 18.0451 4.02C18.2951 4.15 18.3851 4.45 18.2551 4.69C18.1651 4.87 17.9951 4.97 17.8151 4.97ZM3.50511 10.22C3.40511 10.22 3.30511 10.19 3.21511 10.13C2.98511 9.97 2.93511 9.66 3.09511 9.43C4.08511 8.03 5.34511 6.93 6.84511 6.16C9.98511 4.54 14.0051 4.53 17.1551 6.15C18.6551 6.92 19.9151 8.01 20.9051 9.4C21.0651 9.62 21.0151 9.94 20.7851 10.1C20.5551 10.26 20.2451 10.21 20.0851 9.98C19.1851 8.72 18.0451 7.73 16.6951 7.04C13.8251 5.57 10.1551 5.57 7.29511 7.05C5.93511 7.75 4.79511 8.75 3.89511 10.01C3.81511 10.15 3.66511 10.22 3.50511 10.22ZM9.40511 22.14C9.49511 22.24 9.62511 22.29 9.75511 22.29C9.88511 22.29 10.0151 22.24 10.1251 22.14C10.3151 21.94 10.3151 21.63 10.1251 21.43C9.35511 20.65 8.91511 20.16 8.27511 19.01C7.66511 17.93 7.34511 16.6 7.34511 15.16C7.34511 12.74 9.43511 10.77 12.0051 10.77C14.5751 10.77 16.6651 12.74 16.6651 15.16C16.6651 15.44 16.8851 15.66 17.1651 15.66C17.4451 15.66 17.6651 15.44 17.6651 15.16C17.6651 12.19 15.1251 9.77 12.0051 9.77C8.88511 9.77 6.34511 12.19 6.34511 15.16C6.34511 16.77 6.70511 18.27 7.39511 19.5C8.06511 20.71 8.53511 21.27 9.40511 22.14ZM16.9251 20.44C15.7351 20.44 14.6851 20.14 13.8251 19.55C12.3351 18.54 11.4451 16.9 11.4451 15.16C11.4451 14.88 11.6651 14.66 11.9451 14.66C12.2251 14.66 12.4451 14.88 12.4451 15.16C12.4451 16.57 13.1651 17.9 14.3851 18.72C15.0951 19.2 15.9251 19.43 16.9251 19.43C17.1651 19.43 17.5651 19.4 17.9651 19.33C18.2351 19.28 18.4951 19.46 18.5451 19.74C18.5951 20.01 18.4151 20.27 18.1351 20.32C17.5651 20.43 17.0651 20.44 16.9251 20.44ZM14.7851 22.48C14.8251 22.49 14.8751 22.5 14.9151 22.5C15.1251 22.5 15.3351 22.35 15.3851 22.12C15.4551 21.86 15.3051 21.58 15.0351 21.51C13.6251 21.12 12.7151 20.6 11.7651 19.66C10.5551 18.46 9.89511 16.86 9.89511 15.15C9.89511 14.08 10.8251 13.21 11.9751 13.21C13.1251 13.21 14.0551 14.08 14.0551 15.15C14.0551 16.77 15.4351 18.09 17.1351 18.09C18.8351 18.09 20.2151 16.77 20.2151 15.15C20.2151 10.83 16.5151 7.32 11.9651 7.32C8.73511 7.32 5.78511 9.13 4.45511 11.92C4.00511 12.87 3.77511 13.96 3.77511 15.16C3.77511 16.51 4.01511 17.81 4.50511 19.12C4.59511 19.37 4.88511 19.51 5.14511 19.41C5.40511 19.32 5.53511 19.03 5.43511 18.77C4.83511 17.17 4.76511 15.94 4.76511 15.16C4.76511 14.12 4.96511 13.17 5.35511 12.36C6.52511 9.91 9.12511 8.33 11.9651 8.33C15.9651 8.33 19.2151 11.39 19.2151 15.16C19.2151 16.23 18.2851 17.1 17.1351 17.1C15.9851 17.1 15.0551 16.23 15.0551 15.16C15.0551 13.54 13.6751 12.22 11.9751 12.22C10.2751 12.22 8.89511 13.54 8.89511 15.16C8.89511 17.14 9.66511 18.99 11.0651 20.38C12.1551 21.45 13.1951 22.04 14.7851 22.48Z" fill="white"/>
</svg>
