<svg width="96" height="96" viewBox="0 0 96 96" fill="none" xmlns="http://www.w3.org/2000/svg">
<path d="M84.8015 54.1893C84.7949 55.273 84.7527 57.4711 83.3707 59.5933C83.0433 60.0962 82.7168 60.4771 82.4785 60.7323C80.0833 62.9258 77.688 65.1203 75.2928 67.3147C75.943 66.7058 76.566 65.9393 77.0482 64.9795C78.1647 62.7551 77.9273 60.6741 77.764 59.2396C77.3034 55.2035 75.1211 52.4912 74.152 51.3194C73.1856 50.1504 70.6187 47.1285 66.1961 45.9416C64.6509 45.527 62.083 44.8383 59.2825 46.0036C58.8284 46.1921 57.7823 46.6744 56.7344 47.6126L64.2803 40.5029C65.2316 39.9353 67.1399 38.9765 69.6843 38.9127C71.8046 38.8601 73.3658 39.454 74.4175 39.8668C75.1493 40.1539 78.7651 41.6391 81.6219 45.5532C82.4578 46.6988 84.8277 49.9449 84.8015 54.1893Z" fill="#FF444F"/>
<path d="M75.2938 67.5023C75.2431 67.5023 75.1934 67.4817 75.1559 67.4423C75.0855 67.3663 75.0902 67.2481 75.1653 67.1777C75.8783 66.5097 76.4562 65.7423 76.8812 64.8951C77.9723 62.7213 77.7444 60.722 77.5783 59.2622C77.1139 55.1941 74.8575 52.4659 74.0075 51.4385C73.165 50.4197 70.6009 47.317 66.1473 46.1227C64.6321 45.7165 62.0962 45.0354 59.3548 46.1762C58.729 46.4361 57.788 46.9202 56.8601 47.7514C56.7832 47.8199 56.6659 47.8143 56.5965 47.7383C56.527 47.6623 56.5308 47.545 56.6059 47.4747L64.1518 40.365C64.1621 40.3556 64.1724 40.3472 64.1846 40.3406C65.8771 39.3302 67.7779 38.772 69.6796 38.7241C71.8825 38.6706 73.5122 39.3086 74.486 39.6914C75.7882 40.2018 79.1038 41.7845 81.773 45.4416C82.5751 46.5412 85.0154 49.8849 84.9882 54.1893C84.9825 55.1744 84.9685 57.4815 83.5274 59.6947C83.26 60.1056 82.9523 60.4978 82.6155 60.859C82.6117 60.8627 82.6089 60.8665 82.6052 60.8693C80.4098 62.8789 78.2153 64.8904 76.02 66.901L75.4195 67.4517C75.3839 67.4845 75.3379 67.5014 75.2928 67.5014L75.2938 67.5023ZM62.5662 45.1705C64.0467 45.1705 65.3273 45.5138 66.2449 45.7606C70.8139 46.9868 73.4352 50.1579 74.2965 51.2002C75.1653 52.251 77.4732 55.0412 77.9508 59.219C78.1131 60.6422 78.357 62.7907 77.2162 65.064C77.1364 65.2225 77.052 65.3783 76.9619 65.5312C78.7567 63.8865 80.5514 62.2428 82.3462 60.5991C82.6671 60.2548 82.9589 59.8823 83.2131 59.4911C84.5941 57.3698 84.6073 55.1407 84.6138 54.1884C84.6401 50.0069 82.3378 46.8526 81.4709 45.6649C78.8589 42.0866 75.6203 40.5405 74.349 40.0413C73.4014 39.6698 71.8159 39.0468 69.689 39.1003C67.8576 39.1463 66.0272 39.6829 64.3938 40.654L58.6014 46.1115C58.8247 45.9979 59.0302 45.9051 59.2103 45.83C60.3896 45.3393 61.5267 45.1705 62.5653 45.1705H62.5662Z" fill="white"/>
<path d="M78.8087 64.0935C78.805 66.1941 78.8012 68.2938 78.7975 70.3944C76.5026 72.541 74.2087 74.6867 71.9139 76.8333C71.9139 74.3424 71.9111 71.8505 71.9102 69.3587C72.4637 69.1607 73.9376 68.5818 75.2933 67.3143C76.4651 66.241 77.6369 65.1668 78.8087 64.0935Z" fill="#FF444F"/>
<path d="M71.9141 77.021C71.8887 77.021 71.8634 77.0163 71.839 77.0051C71.7705 76.975 71.7264 76.9075 71.7264 76.8334L71.7227 69.3588C71.7227 69.279 71.7724 69.2086 71.8474 69.1824C72.7143 68.8718 73.994 68.2723 75.1658 67.1775L78.6831 63.9557C78.7385 63.905 78.8173 63.8919 78.8858 63.9229C78.9543 63.9529 78.9974 64.0204 78.9974 64.0945L78.9862 70.3955C78.9862 70.4471 78.9646 70.4968 78.9271 70.5324L72.0435 76.9713C72.0079 77.0041 71.9619 77.0219 71.915 77.0219L71.9141 77.021ZM72.0979 69.4901L72.1017 76.4009L78.61 70.3129L78.6203 64.5205L75.4201 67.4523C74.2586 68.5388 72.9939 69.1552 72.0979 69.4892V69.4901Z" fill="white"/>
<path d="M78.7901 76.243C76.4916 78.4027 74.1939 80.5633 71.8953 82.724C70.899 81.4875 69.9026 80.2519 68.9062 79.0153L71.915 76.834C73.3195 75.5205 74.7231 74.208 76.1266 72.8945C77.0151 74.01 77.9026 75.1265 78.7901 76.243Z" fill="#FF444F"/>
<path d="M71.8961 82.9116C71.8961 82.9116 71.8876 82.9116 71.8829 82.9116C71.8304 82.9079 71.7825 82.8825 71.7497 82.8422L68.7606 79.1335C68.7287 79.0931 68.7137 79.0415 68.7203 78.9909C68.7268 78.9402 68.754 78.8942 68.7963 78.8642L71.7957 76.6895L72.0434 76.4577C73.3625 75.224 74.6806 73.9912 75.9988 72.7584C76.0373 72.7228 76.0889 72.704 76.1405 72.7087C76.193 72.7125 76.2408 72.7378 76.2737 72.7791C77.1622 73.8946 78.0497 75.0111 78.9372 76.1275C78.9982 76.2035 78.9898 76.3142 78.9185 76.3808C77.3564 77.8482 75.7952 79.3164 74.2331 80.7847L72.0237 82.8619C71.9889 82.8947 71.943 82.9125 71.8951 82.9125L71.8961 82.9116ZM69.1772 79.0509L71.9148 82.4481L73.977 80.5098C75.4969 79.0809 77.0167 77.6521 78.5366 76.2241C77.727 75.2062 76.9173 74.1873 76.1076 73.1703C74.8392 74.3571 73.5698 75.5439 72.3004 76.7308L72.0443 76.9709C72.0387 76.9766 72.033 76.9813 72.0265 76.986L69.1772 79.0509Z" fill="white"/>
<path d="M78.7847 82.1032C76.4842 84.2685 74.1838 86.4339 71.8833 88.5992C70.8926 87.3608 69.9009 86.1224 68.9102 84.884C69.9046 84.1644 70.9001 83.4438 71.8946 82.7233C73.3028 81.3995 74.712 80.0748 76.1202 78.751C77.0087 79.8684 77.8962 80.9858 78.7847 82.1032Z" fill="#FF444F"/>
<path d="M71.8831 88.7867C71.8831 88.7867 71.8747 88.7867 71.87 88.7867C71.8175 88.783 71.7696 88.7577 71.7368 88.7164L68.7636 85.0011C68.7317 84.9608 68.7177 84.9092 68.7242 84.8585C68.7308 84.8079 68.7589 84.7619 68.8002 84.7319C69.7919 84.0141 70.7836 83.2964 71.7752 82.5778L75.9924 78.6139C76.0309 78.5782 76.0825 78.5595 76.1341 78.5632C76.1866 78.567 76.2345 78.5923 76.2673 78.6336L78.9318 81.9858C78.9928 82.0618 78.9843 82.1725 78.914 82.2391L72.0126 88.7351C71.9779 88.768 71.9319 88.7858 71.8841 88.7858L71.8831 88.7867ZM69.1793 84.9204L71.9019 88.3233L78.5293 82.0852L76.0994 79.0276L72.022 82.8602C72.0164 82.8658 72.0098 82.8705 72.0032 82.8752C71.0622 83.5572 70.1193 84.2393 69.1783 84.9204H69.1793Z" fill="white"/>
<path d="M68.8582 55.6095C68.847 55.8403 68.8254 56.2015 68.6171 56.5984C68.5683 56.6903 68.3084 57.1688 67.7596 57.4671C66.9471 57.9081 66.0849 57.6397 65.6796 57.5131C64.7696 57.2298 64.2329 56.6509 63.9608 56.3516C63.6935 56.0551 62.9814 55.2671 62.9082 54.1093C62.8913 53.8457 62.8688 53.3878 63.1033 52.8775C63.1803 52.7123 63.4627 52.1222 64.1231 51.8182C64.5735 51.6109 64.9788 51.6372 65.2893 51.6616C66.4827 51.7544 67.2952 52.4862 67.5541 52.7255C67.7502 52.9075 68.3263 53.4751 68.6509 54.388C68.7438 54.6507 68.8854 55.0625 68.8582 55.6095Z" fill="#FF444F"/>
<path d="M66.7632 57.8969C66.2782 57.8969 65.8588 57.7655 65.6243 57.6923C64.6514 57.3893 64.0913 56.7738 63.8229 56.4783C63.5415 56.1668 62.7994 55.3431 62.7215 54.1216C62.7056 53.8767 62.6727 53.3663 62.9335 52.7996C63.2469 52.126 63.7113 51.8023 64.0453 51.6485C64.55 51.4158 65.0041 51.4514 65.3044 51.4749C66.1544 51.5406 66.9537 51.9158 67.6817 52.5876C67.9763 52.8615 68.5167 53.4507 68.8282 54.3251C68.9145 54.57 69.0759 55.025 69.0459 55.6189C69.0356 55.8375 69.0149 56.2437 68.7832 56.6856C68.6847 56.8714 68.3966 57.3339 67.8487 57.6323C67.4819 57.8312 67.1057 57.8969 66.7623 57.8969H66.7632ZM64.9544 51.8323C64.7321 51.8323 64.475 51.8633 64.202 51.9881C63.9252 52.1157 63.5387 52.3868 63.2741 52.9563C63.0536 53.4357 63.0818 53.8654 63.0958 54.0972C63.1643 55.1883 63.8436 55.9407 64.0997 56.225C64.3474 56.4971 64.8606 57.0619 65.7359 57.3339C66.1225 57.455 66.9265 57.7064 67.6705 57.302C68.1283 57.0534 68.3694 56.665 68.452 56.5102C68.6453 56.1424 68.6612 55.8028 68.6715 55.6001C68.6978 55.0804 68.558 54.6863 68.4745 54.4499C68.1902 53.6515 67.6968 53.112 67.4266 52.8625C66.7623 52.2489 66.038 51.9074 65.2753 51.8483C65.1796 51.8408 65.0717 51.8323 64.9544 51.8323Z" fill="white"/>
<path d="M31.7507 22.4541C31.6972 20.9943 31.5293 16.4656 34.7173 13.1031C37.8959 9.74999 42.4105 9.66837 43.3881 9.65055C53.0506 9.4751 63.3548 20.2841 62.4785 30.03C62.4016 30.8838 61.9231 36.209 57.7106 39.1249C54.2684 41.5079 50.297 40.9216 48.6514 40.6786C40.1307 39.4214 32.0763 31.2647 31.7507 22.4532V22.4541Z" fill="#303541"/>
<path d="M51.5164 41.114C50.3118 41.114 49.2929 40.9639 48.6249 40.8654C44.4603 40.2509 40.2206 37.941 36.9922 34.5288C33.6485 30.9937 31.7205 26.708 31.5638 22.4608C31.5085 20.9597 31.3396 16.3935 34.582 12.9738C36.6667 10.7746 39.7937 9.52776 43.386 9.46303C48.0423 9.37859 53.1771 11.8592 57.124 16.0979C58.9751 18.086 60.4631 20.3705 61.4257 22.7029C62.4614 25.2116 62.8789 27.6819 62.6669 30.0471C62.4971 31.931 61.6865 36.6022 57.8183 39.2798C55.6895 40.7538 53.3816 41.114 51.5164 41.114ZM43.6178 9.83643C43.5427 9.83643 43.4677 9.83643 43.3926 9.8383C39.9016 9.9021 36.8693 11.1067 34.8541 13.2327C31.7205 16.538 31.8847 20.986 31.9382 22.4477C32.0911 26.6039 33.9834 30.8023 37.2643 34.2708C40.4354 37.623 44.5963 39.8916 48.6793 40.4939C50.3381 40.7387 54.2231 41.312 57.6044 38.9712C61.3412 36.3846 62.1284 31.8456 62.2926 30.0133C62.4999 27.7091 62.0909 25.2979 61.0785 22.8455C60.1319 20.5544 58.6693 18.3093 56.8482 16.3531C53.0363 12.2589 48.108 9.83549 43.6168 9.83549L43.6178 9.83643Z" fill="white"/>
<path d="M69.209 25.4386C68.6854 28.1538 67.3485 30.0686 66.5238 31.0725C64.0198 33.3964 61.5157 35.7203 59.0108 38.0452C62.0289 35.0542 62.4117 30.7864 62.4802 30.0302C63.3565 20.2842 53.0523 9.47523 43.3898 9.65068C42.4751 9.66756 38.4624 9.7398 35.3457 12.4972C37.8563 10.1057 40.3669 7.71518 42.8775 5.32372C44.039 4.61444 46.4399 3.36758 49.7114 3.20433C53.6246 3.01012 56.4786 4.54126 58.2771 5.5001C59.113 5.94668 62.3864 7.76678 65.2169 11.5402C66.1214 12.7448 68.6376 16.1815 69.2615 21.0948C69.3938 22.1343 69.5655 23.5848 69.209 25.4386Z" fill="#282C38"/>
<path d="M59.0109 38.2328C58.9612 38.2328 58.9124 38.2131 58.8758 38.1746C58.8045 38.1005 58.8064 37.9832 58.8795 37.9119C61.5562 35.2597 62.1585 31.5069 62.2936 30.0161C62.501 27.709 62.0929 25.2979 61.0796 22.8464C60.133 20.5553 58.6703 18.3102 56.8502 16.355C52.9745 12.1922 47.9439 9.75666 43.3937 9.83828C39.3763 9.9124 36.8676 11.4013 35.4706 12.6379C35.3937 12.7054 35.2773 12.6998 35.2079 12.6238C35.1385 12.5478 35.1422 12.4315 35.2164 12.3611L42.7482 5.18765C42.7576 5.17826 42.7688 5.17076 42.7801 5.16325C44.2456 4.26821 46.6361 3.16959 49.7021 3.01666C53.651 2.82151 56.5885 4.38643 58.3429 5.32181L58.3654 5.334C59.8806 6.14367 62.8049 8.01162 65.3672 11.4267C67.6479 14.4645 69.0214 17.7088 69.4474 21.0704C69.5731 22.0574 69.7626 23.55 69.393 25.4733C68.997 27.5261 68.0551 29.5029 66.6684 31.1907C66.6628 31.1973 66.6572 31.2038 66.6516 31.2095L59.1385 38.1821C59.1028 38.2159 59.0569 38.2319 59.0109 38.2319V38.2328ZM43.616 9.46113C48.2122 9.46113 53.2429 11.9295 57.1251 16.0989C58.9762 18.0869 60.4632 20.3705 61.4267 22.7028C62.4625 25.2106 62.88 27.6818 62.668 30.047C62.5357 31.5125 62.0985 33.9715 60.6912 36.2307L66.3879 30.9439C67.7305 29.3068 68.6424 27.391 69.0261 25.4039C69.3845 23.5388 69.1997 22.0827 69.0768 21.1192C68.6584 17.8233 67.3092 14.639 65.0679 11.6537C62.5488 8.29589 59.677 6.46078 58.19 5.66613L58.1674 5.65393C56.3351 4.67727 53.5675 3.20148 49.7218 3.39194C46.7458 3.54017 44.4229 4.60315 42.994 5.4738L37.2278 10.966C38.7139 10.1657 40.732 9.51273 43.3862 9.46394C43.4631 9.46207 43.54 9.46207 43.6179 9.46207L43.616 9.46113Z" fill="white"/>
<path d="M59.8713 66.1362C59.8694 70.4556 59.8675 74.776 59.8657 79.0964C45.3508 75.1363 30.836 71.1762 16.3212 67.2151C16.2611 65.0347 16.4403 60.3447 19.2483 55.4604C22.7928 49.2946 28.2888 46.709 30.5592 45.8177C35.3665 43.9319 39.5312 44.2218 41.5793 44.3879C46.7487 44.8054 50.8083 46.6958 53.4737 47.9371C54.2243 48.287 54.9092 48.6323 55.5228 48.9569C55.3914 49.1389 55.2638 49.3303 55.1428 49.5329C54.9411 49.8697 54.2365 51.1006 53.986 52.856C53.8593 53.7398 53.8978 54.4125 53.9325 54.9838C54.0676 57.1595 54.6793 58.8858 55.0809 59.8399C55.2591 60.2631 56.0632 62.1198 57.7829 64.105C58.5578 65 59.3018 65.6699 59.8713 66.1362Z" fill="#303541"/>
<path d="M59.8658 79.2842C59.8489 79.2842 59.8329 79.2823 59.8161 79.2776C45.3012 75.3175 30.7864 71.3573 16.2716 67.3963C16.1918 67.3747 16.1355 67.3034 16.1336 67.2208C16.053 64.2955 16.4995 59.8654 19.0861 55.3677C22.4749 49.472 27.6866 46.7447 30.4909 45.6433C35.4398 43.7021 39.7527 44.0521 41.5944 44.2012C46.7967 44.6216 50.8619 46.5148 53.5527 47.7673C54.2357 48.0854 54.9281 48.4306 55.6111 48.7918C55.6589 48.8172 55.6936 48.8622 55.7058 48.9147C55.718 48.9673 55.7068 49.0236 55.6749 49.0667C55.5379 49.2572 55.4159 49.4411 55.3043 49.6297C54.9768 50.1766 54.3942 51.3259 54.1719 52.8833C54.0462 53.7605 54.0874 54.4332 54.1203 54.9736C54.2207 56.5854 54.6128 58.2432 55.2545 59.7678C55.5341 60.4302 56.3532 62.1677 57.9256 63.9831C58.5523 64.7074 59.2475 65.3829 59.9915 65.9918C60.0347 66.0274 60.06 66.0809 60.06 66.1372L60.0544 79.0975C60.0544 79.1556 60.0271 79.211 59.9802 79.2466C59.9474 79.272 59.9071 79.2851 59.8667 79.2851L59.8658 79.2842ZM16.5052 67.0707C30.8962 70.998 45.2872 74.9244 59.6781 78.8507L59.6838 66.2245C58.9492 65.6165 58.2624 64.9457 57.6413 64.227C56.0332 62.3713 55.1945 60.5915 54.9084 59.9123C54.2507 58.3483 53.8482 56.6483 53.7459 54.9952C53.7122 54.4379 53.6699 53.7436 53.8013 52.8289C54.033 51.2068 54.641 50.0068 54.9825 49.4364C55.065 49.2975 55.1523 49.1615 55.247 49.0236C54.6306 48.7008 54.0086 48.3931 53.395 48.107C50.7287 46.8657 46.7001 44.9893 41.5644 44.5746C39.748 44.4274 35.4952 44.083 30.6278 45.9923C27.8686 47.0749 22.7432 49.7572 19.4108 55.5544C16.9095 59.9057 16.4442 64.1942 16.5052 67.0717V67.0707Z" fill="white"/>
<path d="M62.2702 42.3983C60.4257 44.1367 58.5803 45.8743 56.7358 47.6128C56.3193 47.9852 55.9027 48.4299 55.5227 48.9572C54.9091 48.6326 54.2243 48.2873 53.4737 47.9374C50.8083 46.6961 46.7487 44.8057 41.5793 44.3882C39.5312 44.2221 35.3665 43.9322 30.5592 45.818C29.0947 46.3931 26.2885 47.6728 23.5293 50.1647C25.811 47.9299 28.0927 45.6951 30.3744 43.4612C30.8153 43.04 31.4552 42.4705 32.2817 41.871C34.6957 40.1203 36.9305 39.397 38.2421 38.9842C39.1803 38.6886 40.3802 38.3762 41.8035 38.1614C43.9463 39.4458 46.2815 40.3295 48.6523 40.6795C50.1243 40.8972 53.4559 41.3878 56.6063 39.7835C56.9732 39.9177 57.386 40.0753 57.8354 40.2554C59.1254 40.7714 60.2512 41.2265 61.5797 41.9864C61.7852 42.1037 62.0169 42.2407 62.2702 42.3983Z" fill="#282C38"/>
<path d="M23.5298 50.3522C23.4801 50.3522 23.4304 50.3325 23.3929 50.2931C23.3225 50.219 23.3253 50.1017 23.3985 50.0304C25.6802 47.7957 27.9619 45.5609 30.2436 43.327C30.8478 42.75 31.4961 42.2087 32.1716 41.719C34.6587 39.9148 36.9535 39.1933 38.1854 38.8049C39.3478 38.439 40.5553 38.1594 41.7749 37.9756C41.8181 37.969 41.8622 37.9774 41.8997 37.9999C44.0613 39.2956 46.4059 40.1578 48.6791 40.4937C50.0977 40.7038 53.4208 41.1945 56.5206 39.6165C56.5675 39.593 56.621 39.5893 56.6697 39.6071C57.0638 39.7516 57.4794 39.9111 57.9044 40.0809C59.1391 40.5744 60.3053 41.0406 61.6722 41.8231C61.9039 41.9554 62.1375 42.0952 62.3683 42.2387C62.4181 42.2697 62.45 42.3213 62.4556 42.3794C62.4612 42.4376 62.4396 42.4948 62.3974 42.5343C61.463 43.4143 60.5295 44.2943 59.595 45.1743C58.684 46.0318 57.7731 46.8903 56.863 47.7487C56.4136 48.1503 56.0149 48.5931 55.6734 49.066C55.619 49.142 55.5158 49.1654 55.4332 49.1223C54.7558 48.7639 54.0691 48.4224 53.3926 48.1062C50.7263 46.865 46.6977 44.9886 41.562 44.5739C39.7456 44.4266 35.4928 44.0823 30.6254 45.9915C28.8503 46.6886 26.1999 48.0021 23.6527 50.3025C23.6171 50.3354 23.5721 50.3513 23.527 50.3513L23.5298 50.3522ZM38.95 44.0776C40.0674 44.0776 40.9718 44.1508 41.5948 44.2014C46.7971 44.6217 50.8623 46.515 53.5531 47.7675C54.1882 48.064 54.8318 48.382 55.4679 48.716C55.8028 48.2704 56.1866 47.8519 56.6116 47.4729C57.5188 46.6182 58.4289 45.7598 59.3398 44.9023C60.2142 44.0785 61.0896 43.2538 61.964 42.4301C61.8054 42.3335 61.6459 42.2397 61.4874 42.1496C60.1429 41.3803 58.988 40.9187 57.7665 40.4299C57.3725 40.2723 56.9869 40.1231 56.6191 39.988C53.4339 41.5764 50.0695 41.0791 48.6256 40.8652C46.3242 40.5256 43.9534 39.6587 41.7656 38.3574C40.5881 38.5385 39.4219 38.8096 38.2989 39.1633C37.0868 39.5452 34.8304 40.2554 32.392 42.0229C31.7297 42.5033 31.0945 43.0324 30.5044 43.5972C29.0098 45.0599 27.5153 46.5244 26.0198 47.988C27.7076 46.8575 29.2951 46.1125 30.4903 45.6434C33.7656 44.359 36.7631 44.0776 38.9491 44.0776H38.95Z" fill="white"/>
<path d="M77.7643 59.2397C77.3036 55.2036 75.1214 52.4913 74.1532 51.3195C73.1868 50.1505 70.6199 47.1285 66.1973 45.9417C64.6511 45.527 62.0842 44.8384 59.2837 46.0036C58.5866 46.2935 56.4972 47.2721 55.1425 49.5331C54.9408 49.8699 54.2362 51.1009 53.9857 52.8553C53.859 53.7391 53.8975 54.4127 53.9331 54.9831C54.0683 57.1588 54.679 58.8851 55.0815 59.8392C55.2598 60.2623 56.0638 62.119 57.7835 64.1043C58.5585 64.9993 59.3024 65.6692 59.8719 66.1355C59.8691 72.5546 59.8663 78.9747 59.8635 85.3938C61.8675 87.896 63.8715 90.3982 65.8755 92.9003C67.8785 91.4668 69.8825 90.0332 71.8855 88.5987C70.8948 87.3603 69.9031 86.1219 68.9124 84.8834C69.9069 84.1629 70.9023 83.4424 71.8968 82.7218C70.9004 81.4853 69.9041 80.2497 68.9077 79.0131C69.9106 78.286 70.9136 77.5589 71.9165 76.8318C71.9146 74.34 71.9137 71.8491 71.9118 69.3572C72.7308 69.0636 75.5661 67.9368 77.0512 64.9777C78.1677 62.7533 77.9303 60.6723 77.7661 59.2378L77.7643 59.2397ZM68.857 55.6098C68.8458 55.8406 68.8242 56.2018 68.615 56.5987C68.5662 56.6906 68.3063 57.1691 67.7575 57.4675C66.9459 57.9084 66.0837 57.6401 65.6775 57.5134C64.7674 57.2301 64.2308 56.6512 63.9587 56.351C63.6913 56.0555 62.9783 55.2674 62.9061 54.1097C62.8892 53.846 62.8667 53.3882 63.1012 52.8778C63.1772 52.7127 63.4605 52.1226 64.121 51.8186C64.5714 51.6112 64.9767 51.6375 65.2863 51.6619C66.4796 51.7548 67.2931 52.4866 67.5511 52.7258C67.7472 52.9078 68.3232 53.4764 68.6478 54.3883C68.7407 54.651 68.8824 55.0619 68.8561 55.6098H68.857Z" fill="#FF7E88"/>
<path d="M65.8731 93.0889C65.8178 93.0889 65.7634 93.0645 65.7268 93.0185L59.7148 85.512C59.6885 85.4792 59.6735 85.437 59.6735 85.3947L59.682 66.2246C58.9492 65.6185 58.2625 64.9468 57.6395 64.2281C56.0296 62.3705 55.1918 60.5917 54.9066 59.9133C54.2489 58.3503 53.8464 56.6503 53.7441 54.9953C53.7094 54.4408 53.6672 53.7503 53.7985 52.829C54.0303 51.2059 54.6382 50.0069 54.9797 49.4365C56.2623 47.2965 58.1809 46.2579 59.2101 45.8301C62.0697 44.6404 64.6826 45.3413 66.2447 45.7597C70.8156 46.9859 73.4359 50.157 74.2972 51.1994C75.166 52.2511 77.4739 55.0441 77.9505 59.2181C78.1128 60.6404 78.3577 62.7889 77.2169 65.0631C75.8762 67.7341 73.4857 68.9726 72.0981 69.4895L72.1028 76.8328C72.1028 76.8928 72.0737 76.9491 72.0249 76.9848L69.1756 79.0497L72.0408 82.6045C72.0727 82.6449 72.0877 82.6965 72.0812 82.7472C72.0746 82.7978 72.0465 82.8438 72.0052 82.8738L69.1803 84.9191L72.0305 88.4805C72.0624 88.5208 72.0765 88.5724 72.0699 88.6231C72.0634 88.6737 72.0352 88.7197 71.993 88.7497L65.9829 93.0514C65.9501 93.0748 65.9116 93.0861 65.8741 93.0861L65.8731 93.0889ZM60.0488 85.3291L65.9078 92.6451L71.6121 88.5621L68.7618 85.0016C68.7299 84.9613 68.7159 84.9097 68.7224 84.859C68.729 84.8084 68.7572 84.7624 68.7984 84.7324L71.6233 82.6871L68.7581 79.1323C68.7262 79.0919 68.7112 79.0403 68.7177 78.9897C68.7243 78.939 68.7515 78.893 68.7937 78.863L71.7247 76.738L71.72 69.3591C71.72 69.2793 71.7697 69.209 71.8448 69.1827C72.9012 68.8046 75.5065 67.63 76.8791 64.8952C77.9702 62.7204 77.7423 60.7211 77.5753 59.2613C77.1118 55.198 74.8554 52.4669 74.0054 51.4386C73.1629 50.4197 70.6007 47.3181 66.1452 46.1228C64.63 45.7166 62.0931 45.0364 59.3517 46.1763C58.3648 46.5872 56.5259 47.5817 55.2997 49.6288C54.9722 50.1749 54.3906 51.3232 54.1682 52.8816C54.0415 53.7653 54.0838 54.4343 54.1166 54.9709C54.217 56.5837 54.6082 58.2415 55.2499 59.766C55.5286 60.4275 56.3467 62.1631 57.921 63.9804C58.5496 64.7056 59.2438 65.3811 59.986 65.9891C60.0291 66.0247 60.0544 66.0782 60.0544 66.1345L60.046 85.3272L60.0488 85.3291ZM66.7607 57.8972C66.2766 57.8972 65.8562 57.7667 65.6217 57.6936C64.6441 57.3896 64.0662 56.7507 63.8194 56.4777C63.5389 56.1681 62.7949 55.3453 62.718 54.1219C62.703 53.876 62.6701 53.3628 62.93 52.7999C63.1749 52.2689 63.5595 51.8711 64.0418 51.6488C64.5456 51.417 64.9997 51.4517 65.3008 51.4752C66.1518 51.5418 66.9521 51.9161 67.6782 52.5888C67.9728 52.8609 68.5123 53.4492 68.8238 54.3264C68.9101 54.5703 69.0715 55.0244 69.0424 55.6201C69.032 55.8387 69.0114 56.245 68.7797 56.6878C68.683 56.8726 68.3978 57.3342 67.8452 57.6335C67.4793 57.8324 67.1031 57.8981 66.7597 57.8981L66.7607 57.8972ZM64.9518 51.8336C64.7285 51.8336 64.4715 51.8636 64.1994 51.9893C63.7997 52.1732 63.4779 52.5082 63.2715 52.9575C63.051 53.4351 63.0782 53.8667 63.0933 54.0993C63.1617 55.1914 63.8419 55.9438 64.0981 56.2272C64.3439 56.4983 64.8543 57.0622 65.7333 57.3361C66.1199 57.4562 66.9249 57.7076 67.6679 57.3042C68.1426 57.0462 68.3856 56.6334 68.4494 56.5133C68.6436 56.1446 68.6596 55.805 68.6699 55.6023C68.6952 55.0807 68.5554 54.6876 68.4729 54.453C68.1886 53.6518 67.6942 53.1142 67.4258 52.8656C66.7625 52.252 66.0392 51.9105 65.2736 51.8514C65.1779 51.8439 65.071 51.8355 64.9537 51.8355L64.9518 51.8336Z" fill="white"/>
<path d="M11.833 66.5635C11.7693 65.6187 11.6764 63.9994 12.4166 62.1314C12.6418 61.5647 13.0677 60.5299 14.0228 59.5242C15.5127 57.9564 17.3356 57.5202 18.2043 57.3241C21.1015 56.6702 23.5258 57.6497 24.8571 58.2004C30.0322 60.3385 32.2595 64.9038 32.8036 66.0634C33.2746 67.0682 34.0974 68.8695 34.118 71.3192C34.1265 72.3596 34.1199 74.0296 33.1376 75.8244C32.7661 76.5027 32.054 77.5657 30.8221 78.4523C28.6859 79.99 26.407 79.974 25.4622 79.9543C23.4057 79.9112 21.9177 79.2225 20.7074 78.6615C20.137 78.3969 18.5712 77.6285 16.8909 76.1378C16.0653 75.405 14.1429 73.6619 12.8866 70.715C12.5564 69.9391 11.9663 68.5224 11.833 66.5644V66.5635Z" fill="#99FFDF"/>
<path d="M25.8564 80.1456C25.7025 80.1456 25.5684 80.1428 25.4577 80.14C23.3608 80.0959 21.8456 79.3941 20.6278 78.8293C19.6887 78.394 18.2561 77.5984 16.7653 76.2756C16.0119 75.6076 14.0117 73.8325 12.7132 70.7862C12.4111 70.0779 11.7835 68.6049 11.6455 66.5746C11.5846 65.6768 11.471 64.0058 12.2422 62.061C12.4496 61.5393 12.8793 60.4529 13.8869 59.3937C15.4471 57.7528 17.3507 57.3231 18.1632 57.1392C21.1523 56.4646 23.6094 57.4797 24.9295 58.0248C28.3783 59.449 31.2351 62.2749 32.9736 65.9817C33.3986 66.888 34.2842 68.7747 34.3058 71.3153C34.3133 72.2667 34.3283 74.038 33.3029 75.9116C32.8976 76.6527 32.1564 77.7213 30.933 78.6014C28.9815 80.0058 26.9344 80.1438 25.8583 80.1438L25.8564 80.1456ZM12.0189 66.5502C12.1522 68.5167 12.7639 69.9503 13.0575 70.6398C14.3232 73.6083 16.2774 75.343 17.0139 75.996C18.47 77.2879 19.8679 78.0657 20.7845 78.4897C21.9704 79.0395 23.4471 79.7234 25.4652 79.7657C26.318 79.7835 28.5828 79.8313 30.7116 78.2993C31.8777 77.4596 32.5842 76.4407 32.9717 75.7333C33.9512 73.9451 33.9371 72.3023 33.9286 71.32C33.908 68.861 33.0467 67.025 32.632 66.1421C30.933 62.5207 28.1456 59.7614 24.784 58.3729C23.5025 57.8438 21.1176 56.8577 18.2439 57.507C17.4642 57.6824 15.6385 58.0943 14.1571 59.6535C13.2001 60.6602 12.7873 61.7007 12.5894 62.2008C11.8501 64.0668 11.9589 65.6824 12.018 66.5512L12.0189 66.5502Z" fill="white"/>
<path d="M39.9368 68.2109C39.5052 69.8847 38.6946 71.0743 38.1636 71.7357C36.0114 73.7275 33.8592 75.7184 31.706 77.7101C32.4125 77.0215 32.8656 76.3197 33.1377 75.8234C34.12 74.0287 34.1256 72.3587 34.1172 71.3192C34.0975 68.8686 33.2747 67.0672 32.8037 66.0624C32.2605 64.9028 30.0323 60.3376 24.8572 58.2004C23.5259 57.6496 21.1016 56.6702 18.2044 57.3241C17.4979 57.4817 16.1676 57.7997 14.8926 58.7511C16.8647 56.8709 18.8386 54.9898 20.8107 53.1106C21.2451 52.8329 21.8774 52.4736 22.6881 52.1724C25.3131 51.1948 27.6427 51.6198 28.549 51.7972C31.1093 52.2982 32.799 53.5225 33.9295 54.3622C34.6566 54.8998 36.2544 56.1832 37.6851 58.3242C38.3766 59.3609 39.5793 61.2035 40.0203 63.8933C40.1826 64.8859 40.4106 66.3711 39.9359 68.21L39.9368 68.2109Z" fill="#282C38"/>
<path d="M31.7063 77.8978C31.6566 77.8978 31.6068 77.8781 31.5702 77.8397C31.4999 77.7656 31.5018 77.6473 31.5749 77.576C32.1285 77.0366 32.5994 76.4164 32.9728 75.7334C33.9514 73.9452 33.9373 72.3024 33.9289 71.3211C33.9092 68.8639 33.0479 67.026 32.6332 66.1432C31.65 64.0463 29.3242 60.2494 24.7852 58.3749C23.5055 57.8448 21.1225 56.8588 18.246 57.508C17.6587 57.6394 16.2852 57.9471 15.0045 58.9022C14.9248 58.9613 14.8131 58.9491 14.7493 58.8731C14.6855 58.7971 14.6912 58.6845 14.7634 58.616C16.7355 56.7349 18.7094 54.8548 20.6815 52.9756C20.69 52.9671 20.6994 52.9596 20.7097 52.9531C21.3167 52.5656 21.9603 52.2438 22.6227 51.9971C25.3509 50.981 27.7846 51.4566 28.5849 51.6133C31.2419 52.1331 32.9944 53.4344 34.0415 54.2112C35.0528 54.9599 36.5333 56.263 37.8411 58.2201C38.4604 59.1489 39.7494 61.0825 40.2063 63.8634C40.3583 64.7912 40.6126 66.343 40.1182 68.2569C39.7804 69.5667 39.1724 70.776 38.3102 71.8521C38.3046 71.8596 38.2981 71.8662 38.2915 71.8727L31.8339 77.8472C31.7982 77.8809 31.7523 77.8969 31.7063 77.8969V77.8978ZM20.1486 56.9226C22.2596 56.9226 23.9859 57.6375 24.9288 58.0278C29.5841 59.9511 31.9671 63.838 32.9738 65.9837C33.3997 66.8909 34.2854 68.7786 34.3051 71.3183C34.3135 72.2696 34.3285 74.04 33.3022 75.9145C33.2778 75.9595 33.2534 76.0036 33.228 76.0477L38.026 71.6091C38.8497 70.578 39.4314 69.4194 39.7551 68.1659C40.2289 66.328 39.9831 64.8241 39.8358 63.9262C39.392 61.2251 38.1798 59.4069 37.5297 58.4303C36.2518 56.5182 34.807 55.246 33.8191 54.5152C32.7974 53.7562 31.088 52.4877 28.5145 51.9839C27.7405 51.8319 25.3847 51.3713 22.7559 52.3508C22.1235 52.5862 21.509 52.8921 20.9292 53.2617C19.3502 54.7666 17.7703 56.2715 16.1904 57.7782C17.0291 57.3982 17.7703 57.2322 18.1662 57.144C18.8549 56.9883 19.5201 56.9245 20.1515 56.9245L20.1486 56.9226Z" fill="white"/>
<path d="M21.9795 68.3602C23.3296 67.4042 24.6796 66.4482 26.0288 65.4922C26.1639 65.4396 26.4069 65.3655 26.7061 65.3946C27.2343 65.4452 27.5702 65.7802 27.7316 65.9406C28.0768 66.284 28.196 66.6471 28.2213 66.7296C28.2645 66.8685 28.3386 67.1162 28.2804 67.4183C28.2654 67.4971 28.2354 67.6434 28.1313 67.8011C28.0478 67.9268 27.9502 68.0084 27.8845 68.0544C25.9134 69.4504 23.9413 70.8464 21.9701 72.2434C20.5863 70.5012 19.2024 68.758 17.8177 67.0158C17.7839 66.9595 17.7417 66.8798 17.7032 66.7794C17.6657 66.6809 17.5756 66.4369 17.6056 66.1292C17.6206 65.98 17.6488 65.6948 17.873 65.4621C18.132 65.1929 18.4763 65.176 18.5823 65.1704C18.8816 65.1553 19.1049 65.2632 19.2803 65.3477C19.5289 65.4678 19.7063 65.6254 19.7888 65.6995C19.8657 65.7689 19.9267 65.8327 19.9689 65.8796C20.6388 66.7071 21.3087 67.5346 21.9786 68.3612L21.9795 68.3602Z" fill="#303541"/>
<path d="M21.9704 72.431C21.915 72.431 21.8606 72.4066 21.8231 72.3597L17.6706 67.1321C17.665 67.1255 17.6603 67.119 17.6566 67.1115C17.6059 67.027 17.5627 66.9379 17.528 66.8459C17.4924 66.7521 17.3835 66.4679 17.4192 66.1104C17.4351 65.9481 17.4689 65.6113 17.7382 65.3317C17.9446 65.1178 18.2251 65.0005 18.5732 64.9827C18.9212 64.9649 19.1764 65.0887 19.3622 65.1788C19.6399 65.3129 19.8397 65.4921 19.9148 65.5606C19.9823 65.6216 20.048 65.6873 20.109 65.7548C20.1109 65.7576 20.1137 65.7595 20.1156 65.7623L22.0145 68.1078L25.9202 65.342C25.9324 65.3336 25.9465 65.3261 25.9605 65.3204C26.211 65.2229 26.4681 65.1863 26.7242 65.2116C27.319 65.2688 27.7009 65.6488 27.8641 65.8111C28.2141 66.1592 28.3567 66.5326 28.4008 66.6771C28.4439 66.815 28.5331 67.103 28.4646 67.4567C28.4496 67.5336 28.4148 67.7147 28.2873 67.908C28.2094 68.0262 28.1099 68.1275 27.9927 68.211L22.0783 72.4001C22.0454 72.4235 22.0079 72.4348 21.9704 72.4348V72.431ZM17.9727 66.9088L22.006 71.9873L27.7759 67.9014C27.8547 67.8451 27.9223 67.7766 27.9748 67.6969C28.0611 67.5674 28.0837 67.4473 28.0959 67.3826C28.1465 67.1208 28.078 66.9032 28.0414 66.785C28.0049 66.6677 27.8885 66.3618 27.5986 66.0738C27.441 65.9171 27.1492 65.6263 26.6876 65.5822C26.4972 65.5644 26.3048 65.5897 26.1172 65.6601L22.0867 68.5141C22.006 68.5713 21.8944 68.5553 21.8325 68.4793L19.8257 66.0016C19.7741 65.9453 19.7196 65.8899 19.6634 65.8393C19.593 65.7764 19.4279 65.6272 19.1989 65.5165C19.0329 65.4358 18.8443 65.3448 18.5919 65.358C18.4991 65.3627 18.2157 65.3767 18.0084 65.5925C17.8282 65.7792 17.8057 66.01 17.7926 66.1479C17.7663 66.4172 17.8479 66.632 17.8789 66.7127C17.9052 66.7803 17.9371 66.8469 17.9737 66.9097L17.9727 66.9088Z" fill="white"/>
</svg>
