<svg width="25" height="24" viewBox="0 0 25 24" fill="none" xmlns="http://www.w3.org/2000/svg">
<path d="M3.5 20V17.2C3.5 16.6333 3.64583 16.1125 3.9375 15.6375C4.22917 15.1625 4.61667 14.8 5.1 14.55C6.13333 14.0333 7.18333 13.6458 8.25 13.3875C9.31667 13.1292 10.4 13 11.5 13C11.8333 13 12.1667 13.0125 12.5 13.0375C12.8333 13.0625 13.1667 13.1 13.5 13.15C13.4333 14.1167 13.6083 15.0292 14.025 15.8875C14.4417 16.7458 15.05 17.45 15.85 18V20H3.5ZM19.5 23L18 21.5V16.85C17.2667 16.6333 16.6667 16.2208 16.2 15.6125C15.7333 15.0042 15.5 14.3 15.5 13.5C15.5 12.5333 15.8417 11.7083 16.525 11.025C17.2083 10.3417 18.0333 10 19 10C19.9667 10 20.7917 10.3417 21.475 11.025C22.1583 11.7083 22.5 12.5333 22.5 13.5C22.5 14.25 22.2875 14.9167 21.8625 15.5C21.4375 16.0833 20.9 16.5 20.25 16.75L21.5 18L20 19.5L21.5 21L19.5 23ZM11.5 12C10.4 12 9.45833 11.6083 8.675 10.825C7.89167 10.0417 7.5 9.1 7.5 8C7.5 6.9 7.89167 5.95833 8.675 5.175C9.45833 4.39167 10.4 4 11.5 4C12.6 4 13.5417 4.39167 14.325 5.175C15.1083 5.95833 15.5 6.9 15.5 8C15.5 9.1 15.1083 10.0417 14.325 10.825C13.5417 11.6083 12.6 12 11.5 12ZM19 14C19.2833 14 19.5208 13.9042 19.7125 13.7125C19.9042 13.5208 20 13.2833 20 13C20 12.7167 19.9042 12.4792 19.7125 12.2875C19.5208 12.0958 19.2833 12 19 12C18.7167 12 18.4792 12.0958 18.2875 12.2875C18.0958 12.4792 18 12.7167 18 13C18 13.2833 18.0958 13.5208 18.2875 13.7125C18.4792 13.9042 18.7167 14 19 14Z" fill="white"/>
</svg>
