<svg width="24" height="25" viewBox="0 0 24 25" fill="none" xmlns="http://www.w3.org/2000/svg">
<path d="M17 16.5V17.5C17 18.05 16.55 18.5 16 18.5H14V16.5L11 19.5L14 22.5V20.5H16C17.65 20.5 19 19.15 19 17.5V16.5H17Z" fill="white"/>
<path d="M13 5.5L10 2.5V4.5H8C6.35 4.5 5 5.85 5 7.5V8.5H7V7.5C7 6.95 7.45 6.5 8 6.5H10V8.5L13 5.5Z" fill="white"/>
<path d="M14 4.5V13.5C14 14.6 14.9 15.5 16 15.5H20C21.1 15.5 22 14.6 22 13.5V4.5C22 3.4 21.1 2.5 20 2.5H16C14.9 2.5 14 3.4 14 4.5ZM20 13.5H16V4.5H20V13.5Z" fill="white"/>
<path d="M2 11.5V20.5C2 21.6 2.9 22.5 4 22.5H8C9.1 22.5 10 21.6 10 20.5V11.5C10 10.4 9.1 9.5 8 9.5H4C2.9 9.5 2 10.4 2 11.5ZM8 20.5H4V11.5H8V20.5Z" fill="white"/>
</svg>
