<svg width="360" height="160" viewBox="0 0 360 160" fill="none" xmlns="http://www.w3.org/2000/svg">
<path d="M154.147 79.1667L146.89 65.8333H142.052L139.634 79.1667L125.524 104.5L119.476 96.5L111.01 104.5L100.126 57.8333L87.2251 65.8333L84 54.5" stroke="#999999" stroke-width="3" stroke-linecap="round"/>
<circle cx="154" cy="79.5" r="2.5" fill="white" stroke="white"/>
<path d="M180.148 106.5L180.148 52.5" stroke="white" stroke-width="0.3" stroke-linecap="round" stroke-dasharray="2 2"/>
<line x1="204.148" y1="56.75" x2="300.148" y2="56.75" stroke="#242828" stroke-width="0.5"/>
<line x1="204.148" y1="61.75" x2="300.148" y2="61.75" stroke="#242828" stroke-width="0.5"/>
<line x1="204.148" y1="66.75" x2="300.148" y2="66.75" stroke="#242828" stroke-width="0.5"/>
<line x1="204.148" y1="71.75" x2="300.148" y2="71.75" stroke="#242828" stroke-width="0.5"/>
<line x1="204.148" y1="76.75" x2="300.148" y2="76.75" stroke="#242828" stroke-width="0.5"/>
<line x1="204.148" y1="81.75" x2="300.148" y2="81.75" stroke="#242828" stroke-width="0.5"/>
<line x1="204.148" y1="86.75" x2="300.148" y2="86.75" stroke="#242828" stroke-width="0.5"/>
<line x1="204.148" y1="91.75" x2="300.148" y2="91.75" stroke="#242828" stroke-width="0.5"/>
<line x1="204.148" y1="96.75" x2="300.148" y2="96.75" stroke="#242828" stroke-width="0.5"/>
<line x1="204.148" y1="101.75" x2="300.148" y2="101.75" stroke="#242828" stroke-width="0.5"/>
<line x1="204.148" y1="106.75" x2="300.148" y2="106.75" stroke="#242828" stroke-width="0.5"/>
<line x1="254.398" y1="52.25" x2="254.398" y2="106.75" stroke="#242828" stroke-width="0.5" stroke-linecap="square"/>
<line x1="249.398" y1="52.25" x2="249.398" y2="106.75" stroke="#242828" stroke-width="0.5" stroke-linecap="square"/>
<line x1="244.398" y1="52.25" x2="244.398" y2="106.75" stroke="#242828" stroke-width="0.5" stroke-linecap="square"/>
<line x1="239.398" y1="52.25" x2="239.398" y2="106.75" stroke="#242828" stroke-width="0.5" stroke-linecap="square"/>
<line x1="234.398" y1="52.25" x2="234.398" y2="106.75" stroke="#242828" stroke-width="0.5" stroke-linecap="square"/>
<line x1="229.398" y1="52.25" x2="229.398" y2="106.75" stroke="#242828" stroke-width="0.5" stroke-linecap="square"/>
<line x1="224.398" y1="52.25" x2="224.398" y2="106.75" stroke="#242828" stroke-width="0.5" stroke-linecap="square"/>
<line x1="219.398" y1="52.25" x2="219.398" y2="106.75" stroke="#242828" stroke-width="0.5" stroke-linecap="square"/>
<line x1="214.398" y1="52.25" x2="214.398" y2="106.75" stroke="#242828" stroke-width="0.5" stroke-linecap="square"/>
<line x1="209.398" y1="52.25" x2="209.398" y2="106.75" stroke="#242828" stroke-width="0.5" stroke-linecap="square"/>
<line x1="204.398" y1="52.25" x2="204.398" y2="106.75" stroke="#242828" stroke-width="0.5" stroke-linecap="square"/>
<line x1="269.398" y1="52.25" x2="269.398" y2="106.75" stroke="#242828" stroke-width="0.5" stroke-linecap="square"/>
<line x1="269.398" y1="52.25" x2="269.398" y2="106.75" stroke="#242828" stroke-width="0.5" stroke-linecap="square"/>
<line x1="269.398" y1="52.25" x2="269.398" y2="106.75" stroke="#242828" stroke-width="0.5" stroke-linecap="square"/>
<line x1="269.398" y1="52.25" x2="269.398" y2="106.75" stroke="#242828" stroke-width="0.5" stroke-linecap="square"/>
<line x1="269.398" y1="52.25" x2="269.398" y2="106.75" stroke="#242828" stroke-width="0.5" stroke-linecap="square"/>
<line x1="269.398" y1="52.25" x2="269.398" y2="106.75" stroke="#242828" stroke-width="0.5" stroke-linecap="square"/>
<line x1="284.398" y1="52.25" x2="284.398" y2="106.75" stroke="#242828" stroke-width="0.5" stroke-linecap="square"/>
<line x1="299.398" y1="52.25" x2="299.398" y2="106.75" stroke="#242828" stroke-width="0.5" stroke-linecap="square"/>
<line x1="264.398" y1="52" x2="264.398" y2="107" stroke="#242828" stroke-width="0.5"/>
<line x1="264.398" y1="52" x2="264.398" y2="107" stroke="#242828" stroke-width="0.5"/>
<line x1="264.398" y1="52" x2="264.398" y2="107" stroke="#242828" stroke-width="0.5"/>
<line x1="264.398" y1="52" x2="264.398" y2="107" stroke="#242828" stroke-width="0.5"/>
<line x1="264.398" y1="52" x2="264.398" y2="107" stroke="#242828" stroke-width="0.5"/>
<line x1="264.398" y1="52" x2="264.398" y2="107" stroke="#242828" stroke-width="0.5"/>
<line x1="264.398" y1="52" x2="264.398" y2="107" stroke="#242828" stroke-width="0.5"/>
<line x1="279.398" y1="52" x2="279.398" y2="107" stroke="#242828" stroke-width="0.5"/>
<line x1="294.398" y1="52" x2="294.398" y2="107" stroke="#242828" stroke-width="0.5"/>
<line x1="259.398" y1="52" x2="259.398" y2="107" stroke="#242828" stroke-width="0.5"/>
<line x1="259.398" y1="52" x2="259.398" y2="107" stroke="#242828" stroke-width="0.5"/>
<line x1="259.398" y1="52" x2="259.398" y2="107" stroke="#242828" stroke-width="0.5"/>
<line x1="259.398" y1="52" x2="259.398" y2="107" stroke="#242828" stroke-width="0.5"/>
<line x1="259.398" y1="52" x2="259.398" y2="107" stroke="#242828" stroke-width="0.5"/>
<line x1="259.398" y1="52" x2="259.398" y2="107" stroke="#242828" stroke-width="0.5"/>
<line x1="259.398" y1="52" x2="259.398" y2="107" stroke="#242828" stroke-width="0.5"/>
<line x1="274.398" y1="52" x2="274.398" y2="107" stroke="#242828" stroke-width="0.5"/>
<line x1="269.398" y1="52" x2="269.398" y2="107" stroke="#242828" stroke-width="0.5"/>
<line x1="289.398" y1="52" x2="289.398" y2="107" stroke="#242828" stroke-width="0.5"/>
<line x1="254.398" y1="52" x2="254.398" y2="107" stroke="#242828" stroke-width="0.5"/>
<line x1="254.398" y1="52" x2="254.398" y2="107" stroke="#242828" stroke-width="0.5"/>
<line x1="254.398" y1="52" x2="254.398" y2="107" stroke="#242828" stroke-width="0.5"/>
<line x1="254.398" y1="52" x2="254.398" y2="107" stroke="#242828" stroke-width="0.5"/>
<line x1="254.398" y1="52" x2="254.398" y2="107" stroke="#242828" stroke-width="0.5"/>
<line x1="254.398" y1="52" x2="254.398" y2="107" stroke="#242828" stroke-width="0.5"/>
<line x1="254.398" y1="52" x2="254.398" y2="107" stroke="#242828" stroke-width="0.5"/>
<line x1="269.398" y1="52" x2="269.398" y2="107" stroke="#242828" stroke-width="0.5"/>
<line x1="284.398" y1="52" x2="284.398" y2="107" stroke="#242828" stroke-width="0.5"/>
<line x1="204.148" y1="51.75" x2="300.148" y2="51.75" stroke="#242828" stroke-width="0.5"/>
<line x1="289.148" y1="56.5" x2="300.148" y2="56.5" stroke="#999999"/>
<line x1="289.148" y1="61.5" x2="300.148" y2="61.5" stroke="#999999"/>
<line x1="289.148" y1="66.5" x2="300.148" y2="66.5" stroke="#999999"/>
<line x1="289.148" y1="71.5" x2="300.148" y2="71.5" stroke="#999999"/>
<line x1="289.148" y1="76.5" x2="300.148" y2="76.5" stroke="#999999"/>
<line x1="289.148" y1="81.5" x2="300.148" y2="81.5" stroke="#999999"/>
<line x1="289.148" y1="86.5" x2="300.148" y2="86.5" stroke="#999999"/>
<line x1="289.148" y1="91.5" x2="300.148" y2="91.5" stroke="#999999"/>
<line x1="289.148" y1="96.5" x2="300.148" y2="96.5" stroke="#999999"/>
<line x1="289.148" y1="101.5" x2="300.148" y2="101.5" stroke="#999999"/>
<path d="M275.149 78.6667L267.892 65.3333H263.054L260.635 78.6667L246.526 104L240.478 96L232.012 104L221.128 57.3333L208.227 65.3333L205.002 54" stroke="#999999" stroke-linecap="round"/>
<line x1="277.148" y1="76.5" x2="292.148" y2="76.5" stroke="#E6E9E9" stroke-dasharray="2 2"/>
<line x1="255.148" y1="91.5" x2="300.148" y2="91.5" stroke="#E6E9E9" stroke-dasharray="2 2"/>
<line x1="221.148" y1="56.5" x2="300.148" y2="56.5" stroke="#E6E9E9" stroke-dasharray="2 2"/>
<circle cx="274.002" cy="76.5" r="2.5" fill="white" stroke="white"/>
<circle cx="253.648" cy="91.5" r="1" fill="white" stroke="white"/>
<circle cx="220.648" cy="56.5" r="1" fill="white" stroke="white"/>
<line x1="286.002" y1="76.5" x2="300.002" y2="76.5" stroke="white" stroke-width="5"/>
</svg>
