<svg width="360" height="160" viewBox="0 0 360 160" fill="none" xmlns="http://www.w3.org/2000/svg">
<path d="M250 79.3333L235.581 52.6667H225.969L221.162 79.3333L193.126 130L181.11 114L164.288 130L142.66 36.6667L117.026 52.6667L110.618 30L97 79.3333" stroke="#999999" stroke-width="3" stroke-linecap="round"/>
<path d="M263.419 105.667L249 79" stroke="#999999" stroke-width="3" stroke-linecap="round" stroke-dasharray="6 6"/>
<circle cx="249.5" cy="79.5" r="4.5" fill="#3E3E3E"/>
<path d="M206.382 65.52C200.512 59.669 191.722 58.4755 184.655 61.9104L195.256 72.4772C196.395 73.6125 196.395 75.4464 195.256 76.5817L190.612 81.2101C189.474 82.3745 187.634 82.3745 186.495 81.2101L175.895 70.6433C172.478 77.717 173.675 86.4207 179.545 92.2718C184.976 97.6862 192.919 99.1125 199.665 96.58L222.91 119.751C225.918 122.75 230.766 122.75 233.744 119.751C236.752 116.753 236.752 111.921 233.744 108.952L210.616 85.8677C213.303 79.056 211.901 71.0217 206.382 65.52Z" fill="white"/>
</svg>
